{
.appVersion = "3260";
.formatVersion = 3;
DisplayStrings = (
"",
"F EL",
LE,
"",
xf,
n,
o,
"n/two.osf/two.osf",
"8",
"8/eight.osf",
"/nine.osf",
"/zero.osf",
"",
VM,
jJ,
"/two.osf",
"/three.osf/three.osf",
"/four.osf/four.osf",
"/three.osf",
"/five.osf/five.osf",
"0",
"55",
S,
zez,
nvv,
vy,
xv,
w,
y,
aa,
"6/six.osf",
"7/seven.osf/seven.osf"
);
date = "2024-09-19 19:54:42 +0000";
familyName = "Axelent-Display";
featurePrefixes = (
{
automatic = 1;
code = "languagesystem DFLT dflt;
";
name = Languagesystems;
}
);
features = (
{
automatic = 1;
code = "sub zero by zero.osf;
sub one by one.osf;
sub two by two.osf;
sub three by three.osf;
sub four by four.osf;
sub five by five.osf;
sub six by six.osf;
sub seven by seven.osf;
sub eight by eight.osf;
sub nine by nine.osf;
";
tag = onum;
}
);
fontMaster = (
{
customParameters = (
{
name = unitizerUnit;
value = 10.15625;
}
);
guides = (
{
angle = 206.2502;
pos = (161,-157);
},
{
angle = 206.2502;
pos = (-69,263);
},
{
angle = 206.2502;
pos = (251,593);
},
{
angle = 116.2502;
pos = (209,-173);
},
{
angle = -63.7498;
pos = (630,228);
},
{
angle = 116.2502;
pos = (257,757);
},
{
angle = 116.2502;
pos = (358,77);
},
{
angle = 116.2502;
pos = (30,77);
},
{
pos = (50,19);
},
{
pos = (325,29);
},
{
pos = (-190,368);
},
{
pos = (256,235);
},
{
pos = (50,-181);
}
);
id = "A2AECE16-8029-4E4A-A860-6BA7A78BC664";
metricValues = (
{
over = 16;
pos = 800;
},
{
over = 16;
pos = 740;
},
{
over = 16;
pos = 500;
},
{
over = -16;
},
{
over = -16;
pos = -300;
},
{
}
);
name = "Le display";
userData = {
GSOffsetHorizontal = -35;
GSOffsetVertical = -10;
};
}
);
glyphs = (
{
glyphname = A;
lastChange = "2024-12-05 21:53:36 +0000";
layers = (
{
layerId = "A2AECE16-8029-4E4A-A860-6BA7A78BC664";
shapes = (
{
closed = 1;
nodes = (
(591,6,o),
(699,4,o),
(803,-16,c),
(806,29,l),
(745,35,o),
(701,42,o),
(662,144,c),
(435,689,l),
(415,733,o),
(407,758,o),
(395,756,c),
(364,749,o),
(323,749,o),
(274,756,c),
(264,719,l),
(308,719,o),
(318,683,o),
(333,640,c),
(530,162,l),
(558,89,o),
(580,56,o),
(547,36,c),
(531,29,o),
(516,23,o),
(500,19,c),
(511,-16,l)
);
},
{
closed = 1;
nodes = (
(105,7,o),
(182,5,o),
(260,-16,c),
(251,29,l),
(212,33,o),
(178,62,o),
(180,73,c),
(203,154,o),
(223,192,o),
(250,268,c),
(388,656,l),
(354,685,l),
(128,67,l),
(98,42,o),
(37,23,o),
(20,18,c),
(29,-16,l)
);
},
{
closed = 1;
nodes = (
(505,266,l),
(477,306,l),
(251,306,l),
(231,266,l)
);
}
);
width = 826;
},
{
associatedMasterId = "A2AECE16-8029-4E4A-A860-6BA7A78BC664";
layerId = "99FA5C5C-2CAE-4A2B-B7AB-8F704B5B7054";
name = "Nov 22, 24 at 10:41";
shapes = (
{
closed = 1;
nodes = (
(598,6,o),
(692,4,o),
(796,-16,c),
(803,29,l),
(742,35,o),
(707,60,o),
(659,144,c),
(425,689,l),
(399,745,o),
(407,743,o),
(385,756,c),
(351,742,o),
(320,742,o),
(225,756,c),
(215,719,l),
(268,704,o),
(311,678,o),
(339,640,c),
(537,162,l),
(565,89,o),
(587,56,o),
(554,36,c),
(538,29,o),
(523,23,o),
(507,19,c),
(518,-16,l)
);
},
{
closed = 1;
nodes = (
(112,7,o),
(189,5,o),
(267,-16,c),
(258,29,l),
(219,33,o),
(190,55,o),
(185,73,c),
(208,154,o),
(226,192,o),
(253,268,c),
(393,656,l),
(361,683,l),
(207,271,l),
(168,174,o),
(133,89,o),
(120,65,c),
(98,51,o),
(62,26,o),
(27,18,c),
(36,-16,l)
);
},
{
closed = 1;
nodes = (
(523,277,l),
(495,358,l),
(269,358,l),
(249,277,l)
);
}
);
width = 835;
},
{
associatedMasterId = "A2AECE16-8029-4E4A-A860-6BA7A78BC664";
layerId = "7CA5A71E-CB90-4285-8F96-BB12A778E560";
name = "Nov 22, 24 at 10:42";
shapes = (
{
closed = 1;
nodes = (
(598,6,o),
(692,4,o),
(796,-16,c),
(803,29,l),
(742,35,o),
(707,60,o),
(659,144,c),
(425,689,l),
(399,745,o),
(407,743,o),
(385,756,c),
(351,742,o),
(320,742,o),
(225,756,c),
(215,719,l),
(268,704,o),
(311,678,o),
(339,640,c),
(537,162,l),
(565,89,o),
(587,56,o),
(554,36,c),
(538,29,o),
(523,23,o),
(507,19,c),
(518,-16,l)
);
},
{
closed = 1;
nodes = (
(112,7,o),
(189,5,o),
(267,-16,c),
(258,29,l),
(219,33,o),
(190,55,o),
(185,73,c),
(208,154,o),
(226,192,o),
(253,268,c),
(393,656,l),
(361,683,l),
(207,271,l),
(168,174,o),
(133,89,o),
(120,65,c),
(98,51,o),
(62,26,o),
(27,18,c),
(36,-16,l)
);
},
{
closed = 1;
nodes = (
(523,277,l),
(495,358,l),
(269,358,l),
(249,277,l)
);
}
);
width = 835;
},
{
associatedMasterId = "A2AECE16-8029-4E4A-A860-6BA7A78BC664";
layerId = "F77EE8AB-012B-41CF-ACF0-9AF3B65566DA";
name = "Dec 5, 24 at 22:18";
shapes = (
{
closed = 1;
nodes = (
(591,6,o),
(685,4,o),
(789,-16,c),
(796,29,l),
(735,35,o),
(700,60,o),
(652,144,c),
(418,689,l),
(392,745,o),
(400,743,o),
(378,756,c),
(344,742,o),
(313,742,o),
(218,756,c),
(208,719,l),
(261,704,o),
(304,678,o),
(332,640,c),
(530,162,l),
(558,89,o),
(580,56,o),
(547,36,c),
(531,29,o),
(516,23,o),
(500,19,c),
(511,-16,l)
);
},
{
closed = 1;
nodes = (
(105,7,o),
(182,5,o),
(260,-16,c),
(251,29,l),
(212,33,o),
(183,55,o),
(178,73,c),
(201,154,o),
(219,192,o),
(246,268,c),
(386,656,l),
(354,683,l),
(200,271,l),
(161,174,o),
(126,89,o),
(113,65,c),
(91,51,o),
(55,26,o),
(20,18,c),
(29,-16,l)
);
},
{
closed = 1;
nodes = (
(516,257,l),
(488,328,l),
(262,328,l),
(242,257,l)
);
}
);
width = 816;
}
);
unicode = 65;
},
{
glyphname = B;
lastChange = "2024-12-05 21:53:36 +0000";
layers = (
{
background = {
hints = (
{
name = _corner.leftSerif;
origin = (0,0);
type = Corner;
},
{
name = _corner.leftSerif;
options = 1;
origin = (0,4);
scale = (1,-1);
type = Corner;
}
);
shapes = (
{
closed = 1;
nodes = (
(517,0,l),
(617,0,l),
(617,737,l),
(611,740,l),
(517,740,l)
);
},
{
closed = 1;
nodes = (
(583,377,l),
(673,377,o),
(755,380,o),
(760,301,c),
(791,290,l),
(779,367,o),
(780,443,o),
(796,520,c),
(757,519,l),
(756,434,o),
(673,434,o),
(582,434,c)
);
},
{
closed = 1;
nodes = (
(705,692,o),
(783,695,o),
(822,694,c),
(867,695,o),
(906,663,o),
(964,508,c),
(978,554,l),
(956,611,o),
(934,675,o),
(924,756,c),
(884,747,o),
(725,743,o),
(611,740,c),
(597,663,l)
);
},
{
closed = 1;
nodes = (
(517,0,l),
(631,0,o),
(845,0,o),
(959,-16,c),
(1036,211,l),
(1034,261,l),
(986,195,o),
(953,145,o),
(897,93,c),
(767,44,o),
(661,36,o),
(599,101,c)
);
}
);
};
layerId = "A2AECE16-8029-4E4A-A860-6BA7A78BC664";
shapes = (
{
closed = 1;
nodes = (
(545,-4,o),
(658,64,o),
(658,221,cs),
(658,312,o),
(583,394,o),
(512,414,c),
(549,446,o),
(598,475,o),
(598,561,cs),
(598,695,o),
(500,747,o),
(404,747,cs),
(330,747,o),
(278,740,o),
(245,738,c),
(153,738,ls),
(125,738,o),
(84,748,o),
(56,754,c),
(65,709,l),
(87,702,o),
(113,695,o),
(132,682,c),
(138,672,o),
(142,657,o),
(142,617,cs),
(142,119,ls),
(142,79,o),
(138,64,o),
(132,54,c),
(113,41,o),
(87,34,o),
(65,27,c),
(56,-18,l),
(84,-12,o),
(125,-6,o),
(153,-5,cs),
(248,-1,l),
(301,-2,o),
(367,-17,o),
(431,-11,c)
);
},
{
closed = 1;
nodes = (
(217,684,o),
(218,685,o),
(219,686,c),
(217,682,l)
);
},
{
closed = 1;
nodes = (
(252,354,l),
(252,364,o),
(253,369,o),
(260,369,c),
(312,366,o),
(367,366,o),
(417,360,c),
(427,358,ls),
(481,347,o),
(543,278,o),
(543,183,cs),
(543,86,o),
(472,34,o),
(397,27,cs),
(351,23,o),
(301,34,o),
(252,57,c)
);
},
{
closed = 1;
nodes = (
(252,520,o),
(252,611,o),
(252,700,c),
(290,708,o),
(349,708,o),
(366,708,cs),
(434,708,o),
(489,633,o),
(489,537,cs),
(489,435,o),
(441,399,o),
(341,401,cs),
(292,402,o),
(252,408,o),
(252,431,cs)
);
}
);
width = 719;
},
{
associatedMasterId = "A2AECE16-8029-4E4A-A860-6BA7A78BC664";
background = {
hints = (
{
name = _corner.leftSerif;
origin = (0,0);
type = Corner;
},
{
name = _corner.leftSerif;
options = 1;
origin = (0,4);
scale = (1,-1);
type = Corner;
}
);
shapes = (
{
closed = 1;
nodes = (
(134,0,l),
(234,0,l),
(234,737,l),
(228,740,l),
(134,740,l)
);
},
{
closed = 1;
nodes = (
(200,377,l),
(290,377,o),
(372,380,o),
(377,301,c),
(408,290,l),
(396,367,o),
(397,443,o),
(413,520,c),
(374,519,l),
(373,434,o),
(290,434,o),
(199,434,c)
);
},
{
closed = 1;
nodes = (
(322,692,o),
(400,695,o),
(439,694,c),
(484,695,o),
(523,663,o),
(581,508,c),
(595,554,l),
(573,611,o),
(551,675,o),
(541,756,c),
(501,747,o),
(342,743,o),
(228,740,c),
(214,663,l)
);
},
{
closed = 1;
nodes = (
(134,0,l),
(248,0,o),
(462,0,o),
(576,-16,c),
(653,211,l),
(651,261,l),
(603,195,o),
(570,145,o),
(514,93,c),
(384,44,o),
(278,36,o),
(216,101,c)
);
}
);
};
hints = (
{
name = _corner.leftSerif;
origin = (0,0);
type = Corner;
},
{
name = _corner.leftSerif;
options = 1;
origin = (0,4);
scale = (1,-1);
type = Corner;
}
);
layerId = "A25F5DBB-1089-496E-906B-D9F059AB382B";
name = "Nov 22, 24 at 10:42";
shapes = (
{
closed = 1;
nodes = (
(139,0,l),
(239,0,l),
(239,737,l),
(233,740,l),
(139,740,l)
);
},
{
closed = 1;
nodes = (
(208,378,l),
(287,380,o),
(383,381,o),
(414,381,cs),
(494,381,o),
(560,294,o),
(560,181,cs),
(560,81,o),
(504,39,o),
(384,39,cs),
(357,39,o),
(260,51,o),
(221,98,c),
(184,5,l),
(267,-1,o),
(322,-16,o),
(420,-16,cs),
(519,-16,o),
(669,78,o),
(669,215,cs),
(669,337,o),
(578,432,o),
(464,432,cs),
(447,432,o),
(409,422,o),
(253,416,c)
);
},
{
closed = 1;
nodes = (
(194,675,l),
(260,701,o),
(327,710,o),
(353,710,cs),
(421,710,o),
(476,637,o),
(476,541,cs),
(476,457,o),
(429,421,o),
(328,421,cs),
(305,421,o),
(248,421,o),
(215,421,c),
(234,385,o),
(275,381,o),
(358,381,cs),
(442,381,o),
(568,455,o),
(568,570,cs),
(568,673,o),
(492,756,o),
(396,756,cs),
(381,756,o),
(363,745,o),
(232,740,c)
);
}
);
width = 689;
},
{
associatedMasterId = "A2AECE16-8029-4E4A-A860-6BA7A78BC664";
background = {
hints = (
{
name = _corner.leftSerif;
origin = (0,0);
type = Corner;
},
{
name = _corner.leftSerif;
options = 1;
origin = (0,4);
scale = (1,-1);
type = Corner;
}
);
shapes = (
{
closed = 1;
nodes = (
(175,0,l),
(275,0,l),
(275,737,l),
(269,740,l),
(175,740,l)
);
},
{
closed = 1;
nodes = (
(241,377,l),
(331,377,o),
(413,380,o),
(418,301,c),
(449,290,l),
(437,367,o),
(438,443,o),
(454,520,c),
(415,519,l),
(414,434,o),
(331,434,o),
(240,434,c)
);
},
{
closed = 1;
nodes = (
(363,692,o),
(441,695,o),
(480,694,c),
(525,695,o),
(564,663,o),
(622,508,c),
(636,554,l),
(614,611,o),
(592,675,o),
(582,756,c),
(542,747,o),
(383,743,o),
(269,740,c),
(255,663,l)
);
},
{
closed = 1;
nodes = (
(175,0,l),
(289,0,o),
(503,0,o),
(617,-16,c),
(694,211,l),
(692,261,l),
(644,195,o),
(611,145,o),
(555,93,c),
(425,44,o),
(319,36,o),
(257,101,c)
);
}
);
};
hints = (
{
name = _corner.leftSerif;
origin = (0,0);
type = Corner;
},
{
name = _corner.leftSerif;
options = 1;
origin = (0,4);
scale = (1,-1);
type = Corner;
}
);
layerId = "51575CCD-E260-4C11-AEC0-F3F58C44C7E7";
name = "Dec 5, 24 at 22:20";
shapes = (
{
closed = 1;
nodes = (
(140,0,l),
(252,0,l),
(252,737,l),
(246,740,l),
(140,740,l)
);
},
{
closed = 1;
nodes = (
(221,371,l),
(300,373,o),
(396,374,o),
(427,374,cs),
(507,374,o),
(573,294,o),
(573,181,cs),
(573,81,o),
(517,39,o),
(397,39,cs),
(370,39,o),
(273,51,o),
(234,98,c),
(197,5,l),
(280,-1,o),
(335,-16,o),
(433,-16,cs),
(532,-16,o),
(682,78,o),
(682,215,cs),
(682,337,o),
(591,437,o),
(477,437,cs),
(460,437,o),
(422,427,o),
(266,421,c)
);
},
{
closed = 1;
nodes = (
(217,684,l),
(223,710,o),
(340,710,o),
(366,710,cs),
(434,710,o),
(489,637,o),
(489,541,cs),
(489,457,o),
(442,421,o),
(341,421,cs),
(318,421,o),
(261,421,o),
(228,421,c),
(247,385,o),
(283,376,o),
(366,376,cs),
(450,376,o),
(576,448,o),
(576,563,cs),
(576,666,o),
(500,755,o),
(404,749,c),
(330,744,o),
(278,742,o),
(245,740,c)
);
}
);
width = 743;
}
);
unicode = 66;
},
{
glyphname = C;
lastChange = "2024-12-05 21:53:36 +0000";
layers = (
{
layerId = "A2AECE16-8029-4E4A-A860-6BA7A78BC664";
shapes = (
{
closed = 1;
nodes = (
(476,-13,ls),
(545,-13,o),
(655,-5,o),
(675,-12,c),
(689,56,o),
(713,122,o),
(735,168,cs),
(738,174,o),
(709,202,o),
(709,202,c),
(668,115,o),
(626,67,o),
(591,49,c),
(568,40,o),
(523,25,o),
(492,26,c),
(333,22,o),
(200,179,o),
(195,358,cs),
(192,463,o),
(206,533,o),
(258,602,cs),
(286,639,o),
(324,670,o),
(385,688,cs),
(416,697,o),
(493,717,o),
(598,682,cs),
(635,670,o),
(672,620,o),
(707,530,c),
(707,530,o),
(738,556,o),
(735,563,cs),
(716,610,o),
(696,669,o),
(687,737,c),
(664,731,o),
(557,737,o),
(486,740,cs),
(365,745,o),
(224,709,o),
(135,569,cs),
(92,502,o),
(71,438,o),
(71,363,cs),
(71,147,o),
(230,-13,o),
(439,-13,cs)
);
}
);
width = 806;
},
{
associatedMasterId = "A2AECE16-8029-4E4A-A860-6BA7A78BC664";
layerId = "8AB29F00-2FE7-40BD-8553-E0A32B34CC3B";
name = "Nov 14, 24 at 21:28";
shapes = (
{
closed = 1;
nodes = (
(664,553,l),
(633,633,o),
(610,711,o),
(616,739,c),
(576,737,l),
(573,694,l),
(504,741,o),
(464,756,o),
(411,756,cs),
(321,756,o),
(196,684,o),
(101,571,cs),
(58,521,o),
(35,446,o),
(35,369,cs),
(35,147,o),
(192,-16,o),
(412,-16,cs),
(488,-16,o),
(609,45,o),
(716,164,c),
(716,218,l),
(644,135,o),
(575,67,o),
(459,65,cs),
(311,61,o),
(161,223,o),
(158,392,cs),
(155,563,o),
(225,679,o),
(378,683,cs),
(489,684,o),
(589,591,o),
(648,496,c)
);
}
);
width = 746;
},
{
associatedMasterId = "A2AECE16-8029-4E4A-A860-6BA7A78BC664";
layerId = "0BA85A21-E241-40D6-876D-903E6D6DDA6A";
name = "Nov 22, 24 at 10:42";
shapes = (
{
closed = 1;
nodes = (
(665,552,l),
(633,633,o),
(610,711,o),
(616,739,c),
(576,737,l),
(573,694,l),
(504,741,o),
(464,756,o),
(411,756,cs),
(321,756,o),
(196,684,o),
(101,571,cs),
(58,521,o),
(35,446,o),
(35,369,cs),
(35,147,o),
(192,-16,o),
(412,-16,cs),
(488,-16,o),
(609,45,o),
(716,164,c),
(716,218,l),
(644,135,o),
(575,67,o),
(459,65,cs),
(311,61,o),
(161,223,o),
(158,392,cs),
(155,563,o),
(225,679,o),
(378,683,cs),
(489,684,o),
(589,590,o),
(648,495,c)
);
}
);
width = 746;
},
{
associatedMasterId = "A2AECE16-8029-4E4A-A860-6BA7A78BC664";
layerId = "A2332D5F-C1A0-4462-8BF2-1EA9C5BB5552";
name = "Dec 5, 24 at 22:20";
shapes = (
{
closed = 1;
nodes = (
(698,518,l),
(708,550,l),
(676,632,o),
(653,711,o),
(659,739,c),
(618,737,l),
(615,693,l),
(545,741,o),
(505,756,o),
(451,756,cs),
(360,756,o),
(210,693,o),
(132,571,cs),
(97,515,o),
(71,443,o),
(71,365,cs),
(71,140,o),
(230,-24,o),
(452,-24,cs),
(529,-24,o),
(635,20,o),
(744,140,c),
(744,195,l),
(671,111,o),
(599,38,o),
(482,36,cs),
(332,32,o),
(181,196,o),
(178,367,cs),
(177,429,o),
(184,477,o),
(212,533,cs),
(256,621,o),
(353,679,o),
(451,682,cs),
(554,683,o),
(619,604,o),
(675,518,c)
);
}
);
width = 815;
}
);
metricLeft = O;
unicode = 67;
},
{
glyphname = D;
lastChange = "2024-12-05 21:53:36 +0000";
layers = (
{
hints = (
{
name = _corner.leftSerif;
origin = (0,0);
type = Corner;
},
{
name = _corner.leftSerif;
options = 1;
origin = (0,4);
scale = (1,-1);
type = Corner;
}
);
layerId = "A2AECE16-8029-4E4A-A860-6BA7A78BC664";
shapes = (
{
closed = 1;
nodes = (
(140,0,l),
(252,0,l),
(252,737,l),
(246,740,l),
(140,740,l)
);
},
{
closed = 1;
nodes = (
(191,662,l),
(270,697,o),
(368,712,o),
(421,712,cs),
(577,712,o),
(703,608,o),
(703,345,cs),
(703,136,o),
(549,33,o),
(403,33,c),
(365,33,o),
(352,25,o),
(236,60,c),
(236,0,l),
(302,0,o),
(359,-16,o),
(412,-16,cs),
(683,-16,o),
(826,179,o),
(826,379,cs),
(826,571,o),
(666,756,o),
(417,756,cs),
(340,756,o),
(302,740,o),
(236,740,c)
);
}
);
width = 897;
},
{
associatedMasterId = "A2AECE16-8029-4E4A-A860-6BA7A78BC664";
hints = (
{
name = _corner.leftSerif;
origin = (0,0);
type = Corner;
},
{
name = _corner.leftSerif;
options = 1;
origin = (0,4);
scale = (1,-1);
type = Corner;
}
);
layerId = "90AE0590-C9CA-4BA9-8F30-37D3A53977FE";
name = "Nov 7, 24 at 19:18";
shapes = (
{
closed = 1;
nodes = (
(115,0,l),
(215,0,l),
(215,737,l),
(209,740,l),
(115,740,l)
);
},
{
closed = 1;
nodes = (
(154,662,l),
(233,694,o),
(299,705,o),
(330,705,cs),
(575,705,o),
(666,615,o),
(666,345,cs),
(666,129,o),
(522,35,o),
(346,35,cs),
(288,35,o),
(229,48,o),
(154,88,c),
(199,0,l),
(315,0,o),
(357,-6,o),
(375,-6,cs),
(606,-6,o),
(795,179,o),
(795,379,cs),
(795,571,o),
(628,746,o),
(380,746,cs),
(363,746,o),
(315,740,o),
(199,740,c)
);
}
);
width = 800;
},
{
associatedMasterId = "A2AECE16-8029-4E4A-A860-6BA7A78BC664";
hints = (
{
name = _corner.leftSerif;
origin = (0,0);
type = Corner;
},
{
name = _corner.leftSerif;
options = 1;
origin = (0,4);
scale = (1,-1);
type = Corner;
}
);
layerId = "74C4E649-0589-4CB9-9DED-5B262BD0E2B2";
name = "Nov 22, 24 at 10:42";
shapes = (
{
closed = 1;
nodes = (
(115,0,l),
(215,0,l),
(215,737,l),
(209,740,l),
(115,740,l)
);
},
{
closed = 1;
nodes = (
(154,662,l),
(233,687,o),
(299,698,o),
(330,698,cs),
(575,698,o),
(666,608,o),
(666,345,cs),
(666,136,o),
(562,42,o),
(346,42,cs),
(288,42,o),
(229,55,o),
(154,95,c),
(199,0,l),
(315,0,o),
(357,-16,o),
(375,-16,cs),
(646,-16,o),
(795,179,o),
(795,379,cs),
(795,571,o),
(628,756,o),
(380,756,cs),
(363,756,o),
(315,740,o),
(199,740,c)
);
}
);
width = 830;
},
{
associatedMasterId = "A2AECE16-8029-4E4A-A860-6BA7A78BC664";
hints = (
{
name = _corner.leftSerif;
origin = (0,0);
type = Corner;
},
{
name = _corner.leftSerif;
options = 1;
origin = (0,4);
scale = (1,-1);
type = Corner;
}
);
layerId = "34BBED28-9198-476C-9780-7DA55E2730B5";
name = "Dec 5, 24 at 22:20";
shapes = (
{
closed = 1;
nodes = (
(140,0,l),
(240,0,l),
(240,737,l),
(234,740,l),
(140,740,l)
);
},
{
closed = 1;
nodes = (
(179,662,l),
(258,687,o),
(324,698,o),
(355,698,cs),
(600,698,o),
(691,608,o),
(691,345,cs),
(691,136,o),
(587,42,o),
(371,42,cs),
(313,42,o),
(254,55,o),
(179,95,c),
(224,0,l),
(340,0,o),
(382,-16,o),
(400,-16,cs),
(671,-16,o),
(820,179,o),
(820,379,cs),
(820,571,o),
(653,756,o),
(405,756,cs),
(388,756,o),
(340,740,o),
(224,740,c)
);
}
);
width = 891;
}
);
unicode = 68;
},
{
glyphname = E;
lastChange = "2024-12-05 21:53:36 +0000";
layers = (
{
associatedMasterId = "A2AECE16-8029-4E4A-A860-6BA7A78BC664";
hints = (
{
name = _corner.leftSerif;
origin = (1,33);
type = Corner;
},
{
name = _corner.leftSerif;
options = 1;
origin = (1,32);
scale = (1,-1);
type = Corner;
}
);
layerId = "8233647B-C5DE-4774-B8E8-61EEF3146A72";
name = "Nov 1, 24 at 16:02";
shapes = (
{
closed = 1;
nodes = (
(219,345,o),
(282,345,o),
(345,343,c),
(356,317,o),
(364,290,o),
(369,262,c),
(404,264,l),
(397,362,o),
(397,393,o),
(404,491,c),
(369,495,l),
(363,466,o),
(355,438,o),
(345,411,c),
(282,409,o),
(219,409,o),
(156,411,c),
(156,343,l)
);
},
{
closed = 1;
nodes = (
(267,6,o),
(401,6,o),
(554,0,c),
(554,62,o),
(558,135,o),
(571,227,c),
(530,211,l),
(516,139,o),
(507,108,o),
(492,65,c),
(396,63,o),
(310,63,o),
(219,76,c),
(215,89,o),
(214,102,o),
(214,128,c),
(214,615,l),
(214,640,o),
(215,652,o),
(218,665,c),
(314,679,o),
(384,679,o),
(484,675,c),
(489,637,o),
(493,583,o),
(496,548,c),
(534,570,l),
(534,629,o),
(538,688,o),
(544,747,c),
(391,736,o),
(267,736,o),
(114,740,c),
(114,0,l)
);
}
);
width = 606;
},
{
associatedMasterId = "A2AECE16-8029-4E4A-A860-6BA7A78BC664";
background = {
shapes = (
{
closed = 1;
nodes = (
(383,0,l),
(554,0,l),
(571,227,l),
(520,211,l),
(482,70,l),
(383,70,l)
);
},
{
closed = 1;
nodes = (
(472,670,l),
(510,529,l),
(561,513,l),
(544,740,l),
(373,740,l),
(373,670,l)
);
}
);
};
hints = (
{
name = _corner.leftSerif;
origin = (1,11);
type = Corner;
},
{
name = _corner.leftSerif;
options = 1;
origin = (1,10);
scale = (1,-1);
type = Corner;
}
);
layerId = "2906AD53-1ADF-4CF4-A5A4-963D86553801";
name = "Nov 13, 24 at 17:49";
shapes = (
{
closed = 1;
nodes = (
(345,343,l),
(369,262,l),
(404,264,l),
(404,491,l),
(369,495,l),
(345,411,l),
(156,411,l),
(156,343,l)
);
},
{
closed = 1;
nodes = (
(554,0,l),
(571,227,l),
(520,211,l),
(482,70,l),
(214,70,l),
(214,670,l),
(472,670,l),
(510,530,l),
(561,512,l),
(544,740,l),
(114,740,l),
(114,0,l)
);
}
);
width = 606;
},
{
associatedMasterId = "A2AECE16-8029-4E4A-A860-6BA7A78BC664";
hints = (
{
name = _corner.leftSerif;
origin = (1,15);
type = Corner;
},
{
name = _corner.leftSerif;
options = 1;
origin = (1,14);
scale = (1,-1);
type = Corner;
}
);
layerId = "551738E9-ADBE-45BE-B0D5-DB91CB90DB2D";
name = "Nov 13, 24 at 18:14";
shapes = (
{
closed = 1;
nodes = (
(219,345,o),
(282,345,o),
(345,343,c),
(369,262,l),
(404,264,l),
(404,491,l),
(369,495,l),
(345,411,l),
(282,409,o),
(219,409,o),
(156,411,c),
(156,343,l)
);
},
{
closed = 1;
nodes = (
(554,0,l),
(571,227,l),
(530,211,l),
(492,65,l),
(219,76,l),
(214,128,l),
(214,615,l),
(214,640,o),
(215,652,o),
(218,665,c),
(484,675,l),
(496,548,l),
(534,570,l),
(544,747,l),
(114,740,l),
(114,0,l)
);
}
);
width = 606;
},
{
layerId = "A2AECE16-8029-4E4A-A860-6BA7A78BC664";
name = "Le display";
shapes = (
{
closed = 1;
nodes = (
(646,183,l),
(632,217,l),
(585,143,o),
(546,46,o),
(546,46,c),
(401,31,o),
(295,42,o),
(222,68,c),
(152,0,l),
(266,0,o),
(478,6,o),
(590,-10,c)
);
},
{
closed = 1;
nodes = (
(254,0,l),
(254,737,l),
(246,740,l),
(153,740,l),
(125,740,o),
(84,750,o),
(56,756,c),
(65,711,l),
(87,704,o),
(113,697,o),
(132,684,c),
(138,674,o),
(142,659,o),
(142,619,c),
(142,127,l),
(142,87,o),
(138,72,o),
(132,62,c),
(113,49,o),
(87,42,o),
(65,35,c),
(56,-10,l),
(84,-4,o),
(125,0,o),
(153,0,c)
);
},
{
closed = 1;
nodes = (
(486,265,l),
(474,342,o),
(475,416,o),
(491,493,c),
(452,487,l),
(451,402,o),
(368,402,o),
(215,402,c),
(216,362,l),
(368,362,o),
(450,365,o),
(455,288,c)
);
},
{
closed = 1;
nodes = (
(585,637,o),
(564,687,o),
(555,756,c),
(517,747,o),
(358,743,o),
(246,740,c),
(232,677,l),
(338,706,o),
(416,709,o),
(455,708,c),
(496,709,o),
(527,677,o),
(576,554,c),
(576,554,o),
(605,589,o),
(605,589,c)
);
}
);
width = 697;
},
{
associatedMasterId = "A2AECE16-8029-4E4A-A860-6BA7A78BC664";
hints = (
{
name = _corner.leftSerif;
origin = (0,0);
type = Corner;
},
{
name = _corner.leftSerif;
options = 1;
origin = (0,4);
scale = (1,-1);
type = Corner;
}
);
layerId = "45F0BF9E-242C-4EA7-B027-4C352AB812DA";
name = "Nov 14, 24 at 22:40";
shapes = (
{
closed = 1;
nodes = (
(134,0,l),
(234,0,l),
(234,737,l),
(228,740,l),
(134,740,l)
);
},
{
closed = 1;
nodes = (
(220,357,l),
(310,357,o),
(427,357,o),
(445,280,c),
(478,275,l),
(453,348,o),
(440,423,o),
(443,502,c),
(404,494,l),
(418,410,o),
(310,414,o),
(219,414,c)
);
},
{
closed = 1;
nodes = (
(322,692,o),
(400,695,o),
(439,694,c),
(484,695,o),
(523,663,o),
(581,508,c),
(595,554,l),
(573,611,o),
(551,675,o),
(541,756,c),
(501,747,o),
(342,743,o),
(228,740,c),
(214,663,l)
);
},
{
closed = 1;
nodes = (
(134,0,l),
(248,0,o),
(442,0,o),
(556,-16,c),
(633,211,l),
(631,261,l),
(583,195,o),
(550,145,o),
(494,93,c),
(364,44,o),
(278,36,o),
(216,101,c)
);
}
);
width = 678;
},
{
associatedMasterId = "A2AECE16-8029-4E4A-A860-6BA7A78BC664";
background = {
hints = (
{
name = _corner.leftSerif;
origin = (0,0);
type = Corner;
},
{
name = _corner.leftSerif;
options = 1;
origin = (0,4);
scale = (1,-1);
type = Corner;
}
);
shapes = (
{
closed = 1;
nodes = (
(139,0,l),
(239,0,l),
(239,737,l),
(233,740,l),
(139,740,l)
);
},
{
closed = 1;
nodes = (
(188,378,l),
(267,380,o),
(333,381,o),
(364,381,cs),
(444,381,o),
(510,294,o),
(510,181,cs),
(510,81,o),
(454,39,o),
(334,39,cs),
(307,39,o),
(240,47,o),
(201,94,c),
(164,12,l),
(247,6,o),
(272,-16,o),
(370,-16,cs),
(469,-16,o),
(619,78,o),
(619,215,cs),
(619,337,o),
(528,432,o),
(414,432,cs),
(397,432,o),
(389,422,o),
(233,416,c)
);
},
{
closed = 1;
nodes = (
(155,675,l),
(221,701,o),
(277,710,o),
(303,710,cs),
(371,710,o),
(426,637,o),
(426,541,cs),
(426,457,o),
(379,421,o),
(278,421,cs),
(255,421,o),
(198,421,o),
(165,421,c),
(184,385,o),
(225,381,o),
(308,381,cs),
(392,381,o),
(518,455,o),
(518,570,cs),
(518,673,o),
(442,756,o),
(346,756,cs),
(331,756,o),
(324,745,o),
(193,740,c)
);
}
);
};
hints = (
{
name = _corner.leftSerif;
origin = (0,0);
type = Corner;
},
{
name = _corner.leftSerif;
options = 1;
origin = (0,4);
scale = (1,-1);
type = Corner;
}
);
layerId = "1337DB55-7DA8-40A2-82D2-C5D0A22947B7";
name = "Nov 22, 24 at 10:42";
shapes = (
{
closed = 1;
nodes = (
(134,0,l),
(234,0,l),
(234,737,l),
(228,740,l),
(134,740,l)
);
},
{
closed = 1;
nodes = (
(200,377,l),
(290,377,o),
(372,380,o),
(377,301,c),
(408,290,l),
(396,367,o),
(397,443,o),
(413,520,c),
(374,519,l),
(373,434,o),
(290,434,o),
(199,434,c)
);
},
{
closed = 1;
nodes = (
(322,692,o),
(400,695,o),
(439,694,c),
(484,695,o),
(523,663,o),
(581,508,c),
(595,554,l),
(573,611,o),
(551,675,o),
(541,756,c),
(501,747,o),
(342,743,o),
(228,740,c),
(214,663,l)
);
},
{
closed = 1;
nodes = (
(134,0,l),
(248,0,o),
(442,0,o),
(556,-16,c),
(633,211,l),
(631,261,l),
(583,195,o),
(550,145,o),
(494,93,c),
(364,44,o),
(278,36,o),
(216,101,c)
);
}
);
width = 678;
},
{
associatedMasterId = "A2AECE16-8029-4E4A-A860-6BA7A78BC664";
hints = (
{
name = _corner.leftSerif;
origin = (0,0);
type = Corner;
},
{
name = _corner.leftSerif;
options = 1;
origin = (0,39);
scale = (1,-1);
type = Corner;
}
);
layerId = "B3903FD3-BDEA-4984-973B-BAD154A65BB1";
name = "Dec 5, 24 at 22:20";
shapes = (
{
closed = 1;
nodes = (
(99,3,l),
(111,3,ls),
(225,3,o),
(437,3,o),
(549,-13,c),
(616,180,l),
(602,214,l),
(555,140,o),
(497,54,o),
(497,54,c),
(369,41,o),
(286,28,o),
(211,56,c),
(211,345,l),
(285,344,o),
(348,338,o),
(352,271,c),
(383,251,l),
(371,328,o),
(372,402,o),
(388,479,c),
(349,475,l),
(348,401,o),
(286,392,o),
(211,390,c),
(211,674,l),
(307,698,o),
(377,701,o),
(414,700,cs),
(459,701,o),
(496,669,o),
(554,516,c),
(568,553,l),
(546,610,o),
(524,672,o),
(514,753,c),
(476,744,o),
(317,740,o),
(205,737,cs),
(99,737,l)
);
}
);
width = 689;
}
);
unicode = 69;
},
{
glyphname = F;
lastChange = "2024-12-05 21:53:36 +0000";
layers = (
{
layerId = "A2AECE16-8029-4E4A-A860-6BA7A78BC664";
shapes = (
{
closed = 1;
nodes = (
(488,259,l),
(476,336,o),
(477,410,o),
(493,487,c),
(454,483,l),
(453,398,o),
(368,398,o),
(215,398,c),
(216,356,l),
(368,356,o),
(452,359,o),
(457,282,c)
);
},
{
closed = 1;
nodes = (
(181,3,o),
(214,3,o),
(239,2,c),
(272,2,o),
(305,-7,o),
(337,-16,c),
(348,18,l),
(318,29,o),
(286,42,o),
(263,59,c),
(254,81,o),
(254,102,o),
(254,124,c),
(254,128,l),
(254,615,l),
(254,735,l),
(226,735,o),
(186,734,o),
(154,735,c),
(126,735,o),
(85,746,o),
(57,753,c),
(65,708,l),
(87,700,o),
(113,693,o),
(131,679,c),
(137,669,o),
(142,654,o),
(142,614,c),
(142,123,l),
(142,83,o),
(137,68,o),
(131,58,c),
(113,44,o),
(87,37,o),
(65,29,c),
(57,-16,l),
(85,-9,o),
(126,2,o),
(154,2,c)
);
},
{
closed = 1;
nodes = (
(587,633,o),
(565,682,o),
(556,751,c),
(518,742,o),
(359,737,o),
(247,734,c),
(233,666,l),
(339,699,o),
(417,703,o),
(456,702,c),
(498,703,o),
(528,672,o),
(578,549,c),
(578,549,o),
(610,576,o),
(607,584,c)
);
}
);
width = 627;
},
{
associatedMasterId = "A2AECE16-8029-4E4A-A860-6BA7A78BC664";
hints = (
{
name = _corner.leftSerif;
options = 1;
origin = (1,22);
scale = (1,-1);
type = Corner;
},
{
name = _corner.leftSerif;
origin = (1,23);
type = Corner;
},
{
name = _corner.rightSerif;
options = 1;
origin = (1,2);
scale = (-1,1);
type = Corner;
}
);
layerId = "B47DE825-B03C-4B93-838F-E44D39F6102D";
name = "Nov 14, 24 at 22:41";
shapes = (
{
closed = 1;
nodes = (
(219,345,o),
(282,345,o),
(345,343,c),
(356,317,o),
(364,290,o),
(369,262,c),
(404,264,l),
(397,362,o),
(397,393,o),
(404,491,c),
(369,495,l),
(363,466,o),
(355,438,o),
(345,411,c),
(282,409,o),
(219,409,o),
(156,411,c),
(156,343,l)
);
},
{
closed = 1;
nodes = (
(149,1,o),
(184,1,o),
(214,0,c),
(215,86,o),
(214,102,o),
(214,128,c),
(214,615,l),
(214,640,o),
(215,652,o),
(218,665,c),
(314,679,o),
(384,679,o),
(484,675,c),
(489,637,o),
(493,583,o),
(496,548,c),
(534,570,l),
(534,629,o),
(538,688,o),
(544,756,c),
(391,736,o),
(267,736,o),
(114,740,c),
(114,0,l)
);
}
);
width = 600;
},
{
associatedMasterId = "A2AECE16-8029-4E4A-A860-6BA7A78BC664";
hints = (
{
name = _corner.leftSerif;
options = 1;
origin = (0,10);
scale = (1,-1);
type = Corner;
},
{
name = _corner.leftSerif;
origin = (0,11);
type = Corner;
},
{
name = _corner.rightSerif;
options = 1;
origin = (0,2);
scale = (-1,1);
type = Corner;
}
);
layerId = "135D38CD-A12E-4B3C-9B9B-B07E94339F13";
name = "Nov 22, 24 at 10:42";
shapes = (
{
closed = 1;
nodes = (
(149,1,o),
(184,1,o),
(214,0,c),
(215,86,o),
(214,102,o),
(214,128,c),
(214,615,l),
(214,740,l),
(182,740,o),
(149,739,o),
(114,740,c),
(114,0,l)
);
},
{
closed = 1;
nodes = (
(200,377,l),
(290,377,o),
(372,380,o),
(377,301,c),
(408,290,l),
(396,367,o),
(397,443,o),
(413,520,c),
(374,519,l),
(373,434,o),
(290,434,o),
(199,434,c)
);
},
{
closed = 1;
nodes = (
(292,692,o),
(370,695,o),
(409,694,c),
(454,695,o),
(493,663,o),
(551,508,c),
(565,554,l),
(543,611,o),
(521,675,o),
(511,756,c),
(471,747,o),
(312,743,o),
(198,740,c),
(184,663,l)
);
}
);
width = 585;
},
{
associatedMasterId = "A2AECE16-8029-4E4A-A860-6BA7A78BC664";
hints = (
{
name = _corner.leftSerif;
options = 1;
origin = (0,10);
scale = (1,-1);
type = Corner;
},
{
name = _corner.leftSerif;
origin = (0,11);
type = Corner;
},
{
name = _corner.rightSerif;
options = 1;
origin = (0,2);
scale = (-1,1);
type = Corner;
}
);
layerId = "A75A8639-138A-483C-9885-65164461161D";
name = "Dec 5, 24 at 22:21";
shapes = (
{
closed = 1;
nodes = (
(175,1,o),
(210,1,o),
(240,0,c),
(241,86,o),
(240,102,o),
(240,128,c),
(240,615,l),
(240,740,l),
(208,740,o),
(175,739,o),
(140,740,c),
(140,0,l)
);
},
{
closed = 1;
nodes = (
(318,692,o),
(396,695,o),
(435,694,c),
(480,695,o),
(519,663,o),
(577,508,c),
(591,554,l),
(569,611,o),
(547,675,o),
(537,756,c),
(497,747,o),
(338,743,o),
(224,740,c),
(210,663,l)
);
},
{
closed = 1;
nodes = (
(198,345,l),
(286,345,o),
(368,348,o),
(373,271,c),
(404,251,l),
(392,328,o),
(393,402,o),
(409,479,c),
(370,475,l),
(369,390,o),
(286,390,o),
(197,390,c)
);
}
);
width = 611;
}
);
unicode = 70;
},
{
glyphname = G;
lastChange = "2024-12-05 21:53:36 +0000";
layers = (
{
guides = (
{
angle = 270;
pos = (758,694);
},
{
angle = 270;
pos = (858,694);
}
);
layerId = "A2AECE16-8029-4E4A-A860-6BA7A78BC664";
shapes = (
{
closed = 1;
nodes = (
(454,-13,o),
(465,-12,o),
(477,-11,cs),
(511,-8,o),
(543,-2,o),
(568,8,cs),
(654,43,o),
(652,45,o),
(720,88,c),
(720,235,ls),
(720,276,o),
(727,291,o),
(732,300,c),
(746,318,o),
(770,332,o),
(794,337,c),
(805,383,l),
(710,361,o),
(620,363,o),
(537,383,c),
(530,347,l),
(567,337,o),
(598,320,o),
(612,300,c),
(620,279,o),
(620,258,o),
(620,235,cs),
(620,89,l),
(619,88,l),
(584,68,o),
(535,39,o),
(479,44,cs),
(278,62,o),
(193,238,o),
(191,361,cs),
(189,506,o),
(241,615,o),
(357,669,cs),
(423,699,o),
(519,705,o),
(577,675,c),
(611,655,o),
(650,609,o),
(685,519,c),
(685,519,o),
(716,545,o),
(713,552,cs),
(694,599,o),
(674,658,o),
(665,726,c),
(642,720,o),
(504,744,o),
(451,742,cs),
(347,737,o),
(224,674,o),
(133,564,cs),
(94,516,o),
(71,437,o),
(71,362,cs),
(71,146,o),
(224,-13,o),
(433,-13,cs)
);
}
);
width = 863;
},
{
associatedMasterId = "A2AECE16-8029-4E4A-A860-6BA7A78BC664";
guides = (
{
angle = 270;
pos = (573,694);
},
{
angle = 270;
pos = (673,694);
}
);
layerId = "84C1E218-A106-4FBF-B819-2335AB0DFEB1";
name = "Nov 22, 24 at 10:42";
shapes = (
{
closed = 1;
nodes = (
(673,170,l),
(614,110,o),
(552,67,o),
(459,65,cs),
(311,61,o),
(161,223,o),
(158,392,cs),
(155,563,o),
(225,679,o),
(378,683,cs),
(489,684,o),
(589,590,o),
(648,495,c),
(665,552,l),
(633,633,o),
(610,711,o),
(616,739,c),
(576,737,l),
(573,694,l),
(504,741,o),
(464,756,o),
(411,756,cs),
(321,756,o),
(196,684,o),
(101,571,cs),
(58,521,o),
(35,446,o),
(35,369,cs),
(35,147,o),
(192,-16,o),
(412,-16,cs),
(478,-16,o),
(578,30,o),
(673,120,c)
);
},
{
closed = 1;
nodes = (
(573,80,l),
(673,149,l),
(673,358,l),
(573,358,l)
);
},
{
closed = 1;
nodes = (
(673,120,l),
(673,170,l)
);
},
{
angle = 180;
pos = (1098,360);
ref = _dblBotSerif;
}
);
width = 746;
},
{
associatedMasterId = "A2AECE16-8029-4E4A-A860-6BA7A78BC664";
guides = (
{
angle = 270;
pos = (665,694);
},
{
angle = 270;
pos = (765,694);
}
);
layerId = "B43152FB-CC5A-4776-AC0F-7D2E10213441";
name = "Dec 5, 24 at 22:21";
shapes = (
{
angle = 180;
pos = (1133,361);
ref = _dblBotSerif;
},
{
closed = 1;
nodes = (
(689,512,l),
(701,552,l),
(669,633,o),
(646,711,o),
(652,739,c),
(612,737,l),
(609,694,l),
(540,741,o),
(500,756,o),
(447,756,cs),
(357,756,o),
(208,694,o),
(131,573,cs),
(96,518,o),
(71,446,o),
(71,369,cs),
(71,147,o),
(228,-16,o),
(448,-16,cs),
(518,-16,o),
(611,20,o),
(709,118,cs),
(710,119,o),
(709,170,o),
(709,170,c),
(709,149,l),
(709,149,l),
(709,358,l),
(608,358,l),
(608,80,l),
(709,149,l),
(709,170,l),
(645,101,o),
(578,46,o),
(477,44,cs),
(329,40,o),
(179,202,o),
(176,371,cs),
(175,433,o),
(182,480,o),
(210,535,cs),
(254,622,o),
(350,680,o),
(447,683,cs),
(551,684,o),
(617,601,o),
(673,512,c)
);
},
{
closed = 1;
nodes = (
(709,120,l),
(709,170,l)
);
}
);
width = 851;
}
);
metricLeft = O;
unicode = 71;
},
{
glyphname = H;
lastChange = "2024-12-05 21:53:36 +0000";
layers = (
{
hints = (
{
name = _corner.leftSerif;
origin = (0,0);
type = Corner;
},
{
name = _corner.rightSerif;
options = 1;
origin = (0,1);
scale = (-1,1);
type = Corner;
},
{
name = _corner.rightSerif;
origin = (0,2);
type = Corner;
},
{
name = _corner.leftSerif;
options = 1;
origin = (0,3);
scale = (1,-1);
type = Corner;
},
{
name = _corner.leftSerif;
origin = (1,0);
type = Corner;
},
{
name = _corner.rightSerif;
options = 1;
origin = (1,1);
scale = (-1,1);
type = Corner;
},
{
name = _corner.rightSerif;
origin = (1,2);
type = Corner;
},
{
name = _corner.leftSerif;
options = 1;
origin = (1,3);
scale = (1,-1);
type = Corner;
}
);
layerId = "A2AECE16-8029-4E4A-A860-6BA7A78BC664";
shapes = (
{
closed = 1;
nodes = (
(140,0,l),
(252,0,l),
(252,740,l),
(140,740,l)
);
},
{
closed = 1;
nodes = (
(602,0,l),
(714,0,l),
(714,740,l),
(602,740,l)
);
},
{
closed = 1;
nodes = (
(182,341,l),
(658,341,l),
(658,381,l),
(182,381,l)
);
}
);
width = 856;
},
{
associatedMasterId = "A2AECE16-8029-4E4A-A860-6BA7A78BC664";
hints = (
{
name = _corner.leftSerif;
options = 1;
origin = (0,3);
scale = (1,-1);
type = Corner;
},
{
name = _corner.leftSerif;
options = 1;
origin = (1,3);
scale = (1,-1);
type = Corner;
},
{
name = _corner.rightSerif;
origin = (0,2);
type = Corner;
},
{
name = _corner.rightSerif;
origin = (1,2);
type = Corner;
},
{
name = _corner.rightSerif;
options = 1;
origin = (0,1);
scale = (-1,1);
type = Corner;
},
{
name = _corner.rightSerif;
options = 1;
origin = (1,1);
scale = (-1,1);
type = Corner;
},
{
name = _corner.leftSerif;
origin = (0,0);
type = Corner;
},
{
name = _corner.leftSerif;
origin = (1,0);
type = Corner;
}
);
layerId = "7F620785-02F3-469A-9F7E-108AAF1205EA";
name = "Nov 22, 24 at 10:42";
shapes = (
{
closed = 1;
nodes = (
(124,0,l),
(224,0,l),
(224,740,l),
(124,740,l)
);
},
{
closed = 1;
nodes = (
(587,0,l),
(688,0,l),
(688,740,l),
(587,740,l)
);
},
{
closed = 1;
nodes = (
(166,331,l),
(636,331,l),
(636,391,l),
(166,391,l)
);
}
);
width = 824;
},
{
associatedMasterId = "A2AECE16-8029-4E4A-A860-6BA7A78BC664";
hints = (
{
name = _corner.leftSerif;
origin = (0,0);
type = Corner;
},
{
name = _corner.rightSerif;
options = 1;
origin = (0,1);
scale = (-1,1);
type = Corner;
},
{
name = _corner.rightSerif;
origin = (0,2);
type = Corner;
},
{
name = _corner.leftSerif;
options = 1;
origin = (0,3);
scale = (1,-1);
type = Corner;
},
{
name = _corner.leftSerif;
origin = (1,0);
type = Corner;
},
{
name = _corner.rightSerif;
options = 1;
origin = (1,1);
scale = (-1,1);
type = Corner;
},
{
name = _corner.rightSerif;
origin = (1,2);
type = Corner;
},
{
name = _corner.leftSerif;
options = 1;
origin = (1,3);
scale = (1,-1);
type = Corner;
}
);
layerId = "DDA4D94B-F45F-4114-94FC-917B4339699C";
name = "Dec 5, 24 at 22:22";
shapes = (
{
closed = 1;
nodes = (
(140,0,l),
(246,0,l),
(246,740,l),
(140,740,l)
);
},
{
closed = 1;
nodes = (
(596,0,l),
(704,0,l),
(704,740,l),
(596,740,l)
);
},
{
closed = 1;
nodes = (
(182,341,l),
(652,341,l),
(652,401,l),
(182,401,l)
);
}
);
width = 846;
}
);
unicode = 72;
},
{
glyphname = I;
lastChange = "2024-12-05 21:53:36 +0000";
layers = (
{
hints = (
{
name = _corner.rightSerif;
options = 1;
origin = (0,2);
scale = (-1,1);
type = Corner;
},
{
name = _corner.rightSerif;
origin = (0,5);
type = Corner;
},
{
name = _corner.rightSerif;
options = 1;
origin = (0,8);
scale = (1,-1);
type = Corner;
},
{
name = _corner.leftSerif;
origin = (0,9);
type = Corner;
}
);
layerId = "A2AECE16-8029-4E4A-A860-6BA7A78BC664";
shapes = (
{
closed = 1;
nodes = (
(175,4,o),
(218,4,o),
(251,3,c),
(254,232,o),
(252,509,o),
(252,738,c),
(220,738,o),
(176,739,o),
(141,740,c),
(141,3,l)
);
}
);
width = 395;
},
{
associatedMasterId = "A2AECE16-8029-4E4A-A860-6BA7A78BC664";
hints = (
{
name = _corner.rightSerif;
origin = (0,7);
type = Corner;
},
{
name = _corner.rightSerif;
options = 1;
origin = (0,10);
scale = (1,-1);
type = Corner;
},
{
name = _corner.leftSerif;
origin = (0,11);
type = Corner;
},
{
name = _corner.rightSerif;
options = 1;
origin = (0,2);
scale = (-1,1);
type = Corner;
}
);
layerId = "B17578BF-45C0-45C5-8D42-93522EE8BFA9";
name = "Nov 22, 24 at 10:42";
shapes = (
{
closed = 1;
nodes = (
(148,1,o),
(181,1,o),
(214,0,c),
(215,86,o),
(214,102,o),
(214,128,c),
(214,615,l),
(214,738,l),
(182,738,o),
(149,739,o),
(114,740,c),
(114,0,l)
);
}
);
width = 330;
},
{
associatedMasterId = "A2AECE16-8029-4E4A-A860-6BA7A78BC664";
hints = (
{
name = _corner.rightSerif;
origin = (0,7);
type = Corner;
},
{
name = _corner.rightSerif;
options = 1;
origin = (0,10);
scale = (1,-1);
type = Corner;
},
{
name = _corner.leftSerif;
origin = (0,11);
type = Corner;
},
{
name = _corner.rightSerif;
options = 1;
origin = (0,2);
scale = (-1,1);
type = Corner;
}
);
layerId = "20B6C222-7811-4EF9-A4DC-CF97BD6D0561";
name = "Dec 5, 24 at 22:22";
shapes = (
{
closed = 1;
nodes = (
(174,1,o),
(207,1,o),
(240,0,c),
(241,86,o),
(240,102,o),
(240,128,c),
(240,615,l),
(240,738,l),
(208,738,o),
(175,739,o),
(140,740,c),
(140,0,l)
);
}
);
width = 382;
}
);
unicode = 73;
},
{
glyphname = J;
lastChange = "2024-12-09 14:36:09 +0000";
layers = (
{
layerId = "A2AECE16-8029-4E4A-A860-6BA7A78BC664";
shapes = (
{
closed = 1;
nodes = (
(251,197,l),
(251,497,l),
(253,588,o),
(251,740,o),
(251,740,cs),
(141,740,l),
(141,665,o),
(142,380,o),
(143,197,c)
);
},
{
closed = 1;
nodes = (
(220,-100,o),
(251,-37,o),
(251,-5,c),
(251,459,l),
(143,459,l),
(143,15,l),
(143,-79,o),
(137,-105,o),
(53,-160,c),
(62,-186,l)
);
}
);
width = 373;
},
{
associatedMasterId = "A2AECE16-8029-4E4A-A860-6BA7A78BC664";
hints = (
{
name = _corner.leftSerif;
options = 1;
origin = (0,5);
scale = (-1,1);
type = Corner;
},
{
name = _corner.rightSerif;
origin = (0,49);
type = Corner;
}
);
layerId = "22986F80-45A6-49A9-B159-B3BA7AFAB55C";
name = "Dec 5, 24 at 22:22";
shapes = (
{
closed = 1;
nodes = (
(230,731,o),
(216,731,o),
(200,731,c),
(181,731,o),
(157,731,o),
(140,732,c),
(140,714,o),
(142,537,o),
(142,492,c),
(142,48,l),
(142,-20,o),
(139,-60,o),
(135,-74,c),
(129,-91,o),
(123,-103,o),
(113,-109,c),
(103,-116,o),
(91,-120,o),
(71,-120,c),
(60,-120,o),
(50,-118,o),
(43,-116,c),
(34,-113,o),
(27,-108,o),
(16,-102,c),
(5,-108,l),
(7,-123,o),
(7,-136,o),
(7,-143,c),
(7,-152,l),
(5,-186,l),
(11,-188,o),
(22,-189,o),
(28,-189,c),
(52,-189,o),
(77,-182,o),
(104,-167,c),
(130,-152,o),
(164,-129,o),
(187,-101,c),
(209,-70,o),
(226,-40,o),
(234,-8,c),
(246,25,o),
(250,70,o),
(250,124,c),
(250,492,l),
(252,583,o),
(250,731,o),
(250,731,c)
);
}
);
width = 372;
}
);
unicode = 74;
},
{
glyphname = K;
lastChange = "2024-12-05 21:53:36 +0000";
layers = (
{
hints = (
{
name = _corner.rightSerif;
options = 1;
origin = (2,2);
scale = (-1,1);
type = Corner;
},
{
name = _corner.rightSerif;
origin = (2,7);
type = Corner;
},
{
name = _corner.rightSerif;
options = 1;
origin = (2,10);
scale = (1,-1);
type = Corner;
},
{
name = _corner.leftSerif;
origin = (2,11);
type = Corner;
}
);
layerId = "A2AECE16-8029-4E4A-A860-6BA7A78BC664";
shapes = (
{
closed = 1;
nodes = (
(644,691,o),
(654,702,o),
(682,710,c),
(689,752,l),
(623,730,o),
(551,736,o),
(492,758,c),
(484,716,l),
(526,705,o),
(533,695,o),
(548,677,c),
(618,670,l)
);
},
{
closed = 1;
nodes = (
(679,-5,o),
(573,-7,o),
(573,-7,c),
(504,78,o),
(364,248,o),
(309,317,c),
(264,375,o),
(257,378,o),
(257,378,c),
(374,475,o),
(441,547,o),
(531,649,c),
(541,660,o),
(549,670,o),
(548,677,c),
(618,670,l),
(605,659,o),
(595,648,o),
(579,632,c),
(579,632,o),
(371,424,o),
(371,424,c),
(434,344,o),
(563,191,o),
(634,107,cs),
(677,55,o),
(697,34,o),
(758,14,c),
(748,-21,l),
(715,-13,o),
(682,-5,o),
(649,-5,c)
);
},
{
closed = 1;
nodes = (
(175,-3,o),
(216,-3,o),
(249,-4,c),
(250,82,o),
(249,98,o),
(249,124,c),
(249,609,l),
(249,731,l),
(217,731,o),
(176,732,o),
(141,733,c),
(141,-4,l)
);
}
);
width = 768;
},
{
associatedMasterId = "A2AECE16-8029-4E4A-A860-6BA7A78BC664";
layerId = "EA7EE0DA-3084-45DB-AC63-C98297F1F492";
name = "Dec 5, 24 at 22:23";
shapes = (
{
closed = 1;
nodes = (
(45,711,o),
(76,693,o),
(90,673,c),
(95,656,l),
(95,85,l),
(93,77,o),
(90,71,o),
(88,67,c),
(73,49,o),
(49,35,o),
(24,29,c),
(14,-16,l),
(109,5,o),
(201,4,o),
(284,-16,c),
(292,19,l),
(254,29,o),
(223,47,o),
(209,67,c),
(205,80,l),
(205,350,l),
(285,350,l),
(354,257,o),
(404,190,o),
(504,60,cs),
(511,51,o),
(502,26,o),
(473,26,c),
(461,-16,l),
(527,3,o),
(622,5,o),
(696,-16,c),
(738,25,l),
(707,26,o),
(656,47,o),
(641,67,cs),
(622,91,l),
(397,380,l),
(283,380,l),
(509,643,o),
(387,503,o),
(526,664,c),
(551,680,o),
(592,704,o),
(603,704,c),
(610,756,l),
(553,745,o),
(475,737,o),
(369,743,c),
(391,646,l),
(406,654,l),
(412,688,l),
(476,688,l),
(446,650,l),
(288,469,l),
(205,381,l),
(205,659,l),
(207,665,o),
(209,669,o),
(211,673,c),
(226,691,o),
(250,705,o),
(275,711,c),
(285,756,l),
(190,735,o),
(98,736,o),
(15,756,c),
(7,721,l)
);
}
);
width = 640;
}
);
unicode = 75;
},
{
glyphname = L;
lastChange = "2024-12-05 21:53:36 +0000";
layers = (
{
background = {
hints = (
{
name = _corner.leftSerif;
origin = (0,0);
type = Corner;
},
{
name = _corner.leftSerif;
options = 1;
origin = (0,4);
scale = (1,-1);
type = Corner;
}
);
shapes = (
{
closed = 1;
nodes = (
(532,0,l),
(632,0,l),
(632,737,l),
(626,740,l),
(532,740,l)
);
},
{
closed = 1;
nodes = (
(598,377,l),
(688,377,o),
(770,380,o),
(775,301,c),
(806,290,l),
(794,367,o),
(795,443,o),
(811,520,c),
(772,519,l),
(771,434,o),
(688,434,o),
(597,434,c)
);
},
{
closed = 1;
nodes = (
(720,692,o),
(798,695,o),
(837,694,c),
(882,695,o),
(921,663,o),
(979,508,c),
(993,554,l),
(971,611,o),
(949,675,o),
(939,756,c),
(899,747,o),
(740,743,o),
(626,740,c),
(612,663,l)
);
},
{
closed = 1;
nodes = (
(532,0,l),
(646,0,o),
(860,0,o),
(974,-16,c),
(1051,211,l),
(1049,261,l),
(1001,195,o),
(968,145,o),
(912,93,c),
(782,44,o),
(676,36,o),
(614,101,c)
);
}
);
};
guides = (
{
angle = 90;
pos = (292,615);
}
);
hints = (
{
name = _corner.rightSerif;
origin = (0,4);
type = Corner;
},
{
name = _corner.leftSerif;
origin = (0,6);
type = Corner;
},
{
name = _corner.leftSerif;
options = 1;
origin = (0,5);
scale = (1,-1);
type = Corner;
}
);
layerId = "A2AECE16-8029-4E4A-A860-6BA7A78BC664";
shapes = (
{
closed = 1;
nodes = (
(173,0,o),
(218,0,o),
(252,0,c),
(252,70,l),
(253,740,l),
(140,740,l),
(140,0,l)
);
},
{
closed = 1;
nodes = (
(632,183,l),
(618,217,l),
(571,143,o),
(532,46,o),
(532,46,c),
(387,31,o),
(281,42,o),
(208,68,c),
(138,0,l),
(252,0,o),
(464,6,o),
(576,-10,c)
);
}
);
width = 673;
},
{
associatedMasterId = "A2AECE16-8029-4E4A-A860-6BA7A78BC664";
guides = (
{
angle = 90;
pos = (224,615);
}
);
hints = (
{
name = _corner.leftSerif;
options = 1;
origin = (0,20);
scale = (1,-1);
type = Corner;
},
{
name = _corner.leftSerif;
origin = (0,21);
type = Corner;
},
{
name = _corner.rightSerif;
origin = (0,17);
type = Corner;
},
{
name = _corner.rightSerif;
origin = (0,20);
type = Corner;
}
);
layerId = "E7B47CF9-EEEF-4ACC-B34C-17E1111A0E4A";
name = "Nov 7, 24 at 19:25";
shapes = (
{
closed = 1;
nodes = (
(267,6,o),
(401,6,o),
(554,0,c),
(554,62,o),
(558,135,o),
(571,227,c),
(530,211,l),
(516,139,o),
(507,108,o),
(492,65,c),
(396,63,o),
(310,63,o),
(219,76,c),
(215,89,o),
(214,102,o),
(214,128,c),
(214,615,l),
(214,738,l),
(182,738,o),
(149,739,o),
(114,740,c),
(114,0,l)
);
}
);
width = 606;
},
{
associatedMasterId = "A2AECE16-8029-4E4A-A860-6BA7A78BC664";
background = {
hints = (
{
name = _corner.leftSerif;
origin = (0,0);
type = Corner;
},
{
name = _corner.leftSerif;
options = 1;
origin = (0,4);
scale = (1,-1);
type = Corner;
}
);
shapes = (
{
closed = 1;
nodes = (
(114,0,l),
(214,0,l),
(214,737,l),
(208,740,l),
(114,740,l)
);
},
{
closed = 1;
nodes = (
(180,377,l),
(270,377,o),
(352,380,o),
(357,301,c),
(388,290,l),
(376,367,o),
(377,443,o),
(393,520,c),
(354,519,l),
(353,434,o),
(270,434,o),
(179,434,c)
);
},
{
closed = 1;
nodes = (
(302,692,o),
(380,695,o),
(419,694,c),
(464,695,o),
(503,663,o),
(561,508,c),
(575,554,l),
(553,611,o),
(531,675,o),
(521,756,c),
(481,747,o),
(322,743,o),
(208,740,c),
(194,663,l)
);
},
{
closed = 1;
nodes = (
(114,0,l),
(228,0,o),
(442,0,o),
(556,-16,c),
(633,211,l),
(631,261,l),
(583,195,o),
(550,145,o),
(494,93,c),
(364,44,o),
(258,36,o),
(196,101,c)
);
}
);
};
guides = (
{
angle = 90;
pos = (224,615);
}
);
hints = (
{
name = _corner.leftSerif;
options = 1;
origin = (0,8);
scale = (1,-1);
type = Corner;
},
{
name = _corner.leftSerif;
origin = (0,9);
type = Corner;
},
{
name = _corner.rightSerif;
origin = (0,5);
type = Corner;
},
{
name = _corner.rightSerif;
origin = (0,8);
type = Corner;
}
);
layerId = "1639C809-20A2-4EFE-9BAF-271076AF07EE";
name = "Nov 22, 24 at 10:42";
shapes = (
{
closed = 1;
nodes = (
(147,0,o),
(180,0,o),
(214,0,c),
(214,70,l),
(214,615,l),
(214,740,l),
(182,740,o),
(149,739,o),
(114,740,c),
(114,0,l)
);
},
{
closed = 1;
nodes = (
(114,0,l),
(228,0,o),
(442,0,o),
(556,-16,c),
(633,211,l),
(631,261,l),
(583,195,o),
(550,145,o),
(494,93,c),
(364,44,o),
(258,36,o),
(196,101,c)
);
}
);
width = 606;
},
{
associatedMasterId = "A2AECE16-8029-4E4A-A860-6BA7A78BC664";
background = {
hints = (
{
name = _corner.leftSerif;
origin = (0,0);
type = Corner;
},
{
name = _corner.leftSerif;
options = 1;
origin = (0,4);
scale = (1,-1);
type = Corner;
}
);
shapes = (
{
closed = 1;
nodes = (
(140,0,l),
(240,0,l),
(240,737,l),
(234,740,l),
(140,740,l)
);
},
{
closed = 1;
nodes = (
(206,377,l),
(296,377,o),
(378,380,o),
(383,301,c),
(414,290,l),
(402,367,o),
(403,443,o),
(419,520,c),
(380,519,l),
(379,434,o),
(296,434,o),
(205,434,c)
);
},
{
closed = 1;
nodes = (
(328,692,o),
(406,695,o),
(445,694,c),
(490,695,o),
(529,663,o),
(587,508,c),
(601,554,l),
(579,611,o),
(557,675,o),
(547,756,c),
(507,747,o),
(348,743,o),
(234,740,c),
(220,663,l)
);
},
{
closed = 1;
nodes = (
(140,0,l),
(254,0,o),
(468,0,o),
(582,-16,c),
(659,211,l),
(657,261,l),
(609,195,o),
(576,145,o),
(520,93,c),
(390,44,o),
(284,36,o),
(222,101,c)
);
}
);
};
guides = (
{
angle = 90;
pos = (250,615);
}
);
hints = (
{
name = _corner.leftSerif;
options = 1;
origin = (0,8);
scale = (1,-1);
type = Corner;
},
{
name = _corner.leftSerif;
origin = (0,9);
type = Corner;
},
{
name = _corner.rightSerif;
origin = (0,5);
type = Corner;
},
{
name = _corner.rightSerif;
origin = (0,8);
type = Corner;
}
);
layerId = "2742CF3F-D3AA-4C5D-8CBD-4EEC8ECA2F51";
name = "Dec 5, 24 at 22:23";
shapes = (
{
closed = 1;
nodes = (
(173,0,o),
(206,0,o),
(240,0,c),
(240,70,l),
(240,615,l),
(240,740,l),
(208,740,o),
(175,739,o),
(140,740,c),
(140,0,l)
);
},
{
closed = 1;
nodes = (
(140,0,l),
(254,0,o),
(468,0,o),
(582,-16,c),
(659,211,l),
(657,261,l),
(609,195,o),
(576,145,o),
(520,93,c),
(390,44,o),
(284,36,o),
(222,101,c)
);
}
);
width = 700;
}
);
unicode = 76;
},
{
glyphname = M;
lastChange = "2024-12-05 22:14:13 +0000";
layers = (
{
hints = (
{
name = _corner.leftSerif;
origin = (0,3);
type = Corner;
},
{
name = _corner.rightSerif;
options = 1;
origin = (0,4);
scale = (-1,1);
type = Corner;
},
{
name = _corner.leftSerif;
origin = (0,23);
type = Corner;
}
);
layerId = "A2AECE16-8029-4E4A-A860-6BA7A78BC664";
shapes = (
{
closed = 1;
nodes = (
(559,177,o),
(626,342,o),
(748,614,c),
(749,2,l),
(855,2,l),
(853,686,l),
(911,704,l),
(922,758,l),
(853,738,o),
(799,732,o),
(744,729,c),
(505,174,l),
(425,341,o),
(341,536,o),
(260,748,c),
(170,751,o),
(144,738,o),
(91,757,c),
(67,702,l),
(95,690,o),
(123,687,o),
(141,670,c),
(143,667,l),
(139,2,l),
(165,1,l),
(198,-1,o),
(230,-11,o),
(263,-21,c),
(275,14,l),
(244,25,o),
(213,39,o),
(191,56,c),
(186,81,o),
(187,94,o),
(186,146,c),
(188,620,l),
(457,-12,l),
(476,-16,l)
);
}
);
width = 997;
},
{
associatedMasterId = "A2AECE16-8029-4E4A-A860-6BA7A78BC664";
hints = (
{
name = _corner.leftSerif;
origin = (0,3);
type = Corner;
},
{
name = _corner.rightSerif;
options = 1;
origin = (0,4);
scale = (-1,1);
type = Corner;
},
{
name = _corner.leftSerif;
origin = (0,23);
type = Corner;
},
{
name = _corner.rightSerif;
options = 1;
origin = (0,24);
scale = (-1,1);
type = Corner;
}
);
layerId = "9BAB34D6-00A3-48A2-9E71-D733D4172EF1";
name = "Dec 5, 24 at 22:24";
shapes = (
{
closed = 1;
nodes = (
(558,166,o),
(637,328,o),
(760,600,c),
(760,2,l),
(866,2,l),
(866,686,l),
(924,704,l),
(934,758,l),
(865,738,o),
(814,730,o),
(759,727,c),
(501,149,l),
(418,316,o),
(350,493,o),
(265,705,c),
(175,708,o),
(140,738,o),
(87,757,c),
(64,702,l),
(92,690,o),
(120,687,o),
(138,670,c),
(140,667,l),
(140,2,l),
(187,0,l),
(192,146,l),
(192,590,l),
(446,5,l),
(496,-27,l)
);
}
);
width = 1008;
}
);
unicode = 77;
},
{
glyphname = N;
lastChange = "2024-12-05 21:53:36 +0000";
layers = (
{
background = {
shapes = (
{
closed = 0;
nodes = (
(673,615,l)
);
},
{
closed = 1;
nodes = (
(1110,710,o),
(1080,701,o),
(1055,683,c),
(1043,668,o),
(1043,647,o),
(1043,628,c),
(1041,428,o),
(1043,226,o),
(1043,26,c),
(1039,21,o),
(1019,1,o),
(1012,0,c),
(991,0,o),
(983,0,o),
(963,0,c),
(963,0,o),
(963,2,o),
(960,8,c),
(770,314,o),
(757,335,o),
(589,626,c),
(590,420,o),
(591,273,o),
(596,69,c),
(600,52,o),
(615,48,o),
(627,40,c),
(647,31,o),
(667,24,o),
(688,16,c),
(683,6,o),
(680,-6,o),
(677,-18,c),
(596,4,o),
(541,4,o),
(461,-17,c),
(460,-15,o),
(468,18,o),
(470,29,c),
(492,36,o),
(516,42,o),
(535,55,c),
(546,68,o),
(545,88,o),
(546,104,c),
(547,223,o),
(545,477,o),
(545,596,c),
(545,615,o),
(545,634,o),
(545,653,c),
(545,660,o),
(542,667,o),
(537,672,c),
(516,693,o),
(494,705,o),
(465,711,c),
(465,726,o),
(465,742,o),
(465,756,c),
(543,745,o),
(579,740,o),
(645,739,c),
(758,555,o),
(887,335,o),
(997,149,c),
(1000,255,o),
(997,383,o),
(998,489,c),
(998,525,o),
(998,562,o),
(998,599,c),
(997,626,o),
(1001,655,o),
(988,681,c),
(970,698,o),
(945,701,o),
(922,709,c),
(921,710,o),
(920,711,o),
(920,712,c),
(918,726,o),
(915,742,o),
(913,755,c),
(989,736,o),
(1052,733,o),
(1129,755,c),
(1132,744,o),
(1137,732,o),
(1139,720,c)
);
}
);
};
layerId = "A2AECE16-8029-4E4A-A860-6BA7A78BC664";
shapes = (
{
closed = 0;
nodes = (
(269,615,l)
);
},
{
closed = 1;
nodes = (
(706,710,o),
(676,701,o),
(651,683,c),
(639,668,o),
(639,647,o),
(639,628,c),
(637,428,o),
(639,226,o),
(639,26,c),
(635,21,o),
(615,1,o),
(608,0,c),
(587,0,o),
(579,0,o),
(559,0,c),
(559,0,o),
(559,2,o),
(556,8,c),
(366,314,o),
(353,335,o),
(185,626,c),
(186,420,o),
(187,273,o),
(192,69,c),
(196,52,o),
(211,48,o),
(223,40,c),
(243,31,o),
(263,24,o),
(284,16,c),
(279,6,o),
(276,-6,o),
(273,-18,c),
(192,4,o),
(137,4,o),
(57,-17,c),
(56,-15,o),
(64,18,o),
(66,29,c),
(88,36,o),
(112,42,o),
(131,55,c),
(142,68,o),
(141,88,o),
(142,104,c),
(143,223,o),
(141,477,o),
(141,596,c),
(141,615,o),
(141,634,o),
(141,653,c),
(141,660,o),
(138,667,o),
(133,672,c),
(112,693,o),
(90,705,o),
(61,711,c),
(61,726,o),
(61,742,o),
(61,756,c),
(139,745,o),
(175,740,o),
(241,739,c),
(354,555,o),
(483,335,o),
(593,149,c),
(596,255,o),
(593,383,o),
(594,489,c),
(594,525,o),
(594,562,o),
(594,599,c),
(593,626,o),
(597,655,o),
(584,681,c),
(566,698,o),
(541,701,o),
(518,709,c),
(517,710,o),
(516,711,o),
(516,712,c),
(514,726,o),
(511,742,o),
(509,755,c),
(585,736,o),
(648,733,o),
(725,755,c),
(728,744,o),
(733,732,o),
(735,720,c)
);
}
);
width = 760;
},
{
associatedMasterId = "A2AECE16-8029-4E4A-A860-6BA7A78BC664";
background = {
hints = (
{
name = _corner.leftSerif;
origin = (0,0);
type = Corner;
},
{
name = _corner.rightSerif;
options = 1;
origin = (0,1);
scale = (-1,1);
type = Corner;
},
{
name = _corner.rightSerif;
origin = (0,2);
type = Corner;
},
{
name = _corner.leftSerif;
options = 1;
origin = (0,3);
scale = (1,-1);
type = Corner;
},
{
name = _corner.leftSerif;
origin = (1,0);
type = Corner;
},
{
name = _corner.rightSerif;
options = 1;
origin = (1,1);
scale = (-1,1);
type = Corner;
},
{
name = _corner.rightSerif;
origin = (1,2);
type = Corner;
},
{
name = _corner.leftSerif;
options = 1;
origin = (1,3);
scale = (1,-1);
type = Corner;
}
);
shapes = (
{
closed = 1;
nodes = (
(88,0,l),
(188,0,l),
(188,740,l),
(88,740,l)
);
},
{
closed = 1;
nodes = (
(551,0,l),
(652,0,l),
(652,740,l),
(551,740,l)
);
},
{
closed = 1;
nodes = (
(130,341,l),
(600,341,l),
(600,381,l),
(130,381,l)
);
}
);
};
hints = (
{
name = _corner.rightSerif;
options = 1;
origin = (1,1);
scale = (-1,1);
type = Corner;
},
{
name = _corner.leftSerif;
origin = (1,0);
type = Corner;
},
{
name = _corner.leftSerif;
options = 1;
origin = (2,2);
scale = (-1,1);
type = Corner;
},
{
name = _corner.rightSerif;
origin = (2,1);
type = Corner;
}
);
layerId = "06C84D5C-2AF4-434B-A419-7688058A14F0";
name = "Nov 22, 24 at 10:42";
shapes = (
{
closed = 1;
nodes = (
(336,651,o),
(287,745,o),
(260,742,cs),
(201,737,o),
(103,742,o),
(29,756,c),
(29,711,l),
(91,705,o),
(180,700,o),
(231,616,c),
(476,121,l),
(527,94,o),
(568,55,o),
(576,-16,c),
(623,-16,l),
(623,125,l),
(582,163,l),
(375,578,l)
);
},
{
closed = 1;
nodes = (
(115,0,l),
(159,0,l),
(159,701,l),
(115,701,l)
);
},
{
closed = 1;
nodes = (
(623,38,l),
(623,739,l),
(579,739,l),
(579,138,l)
);
}
);
width = 759;
}
);
unicode = 78;
},
{
glyphname = O;
lastChange = "2024-12-05 21:53:36 +0000";
layers = (
{
background = {
shapes = (
{
closed = 1;
nodes = (
(749,759,o),
(627,686,o),
(535,572,cs),
(494,521,o),
(471,445,o),
(471,367,cs),
(471,142,o),
(623,-23,o),
(837,-23,cs),
(911,-23,o),
(1027,39,o),
(1132,160,cs),
(1175,209,o),
(1198,304,o),
(1198,396,cs),
(1198,592,o),
(1084,759,o),
(836,759,cs)
);
},
{
closed = 1;
nodes = (
(965,691,o),
(1105,528,o),
(1108,380,cs),
(1111,195,o),
(1030,51,o),
(876,48,cs),
(726,44,o),
(574,208,o),
(571,379,cs),
(568,553,o),
(657,686,o),
(812,690,cs)
);
}
);
};
layerId = "A2AECE16-8029-4E4A-A860-6BA7A78BC664";
shapes = (
{
closed = 1;
nodes = (
(349,756,o),
(222,680,o),
(130,568,cs),
(90,518,o),
(71,449,o),
(71,373,cs),
(71,153,o),
(222,-8,o),
(435,-8,c),
(545,8,o),
(672,104,o),
(731,175,cs),
(764,218,o),
(792,280,o),
(792,382,cs),
(792,574,o),
(682,756,o),
(434,756,cs)
);
},
{
closed = 1;
nodes = (
(550,703,o),
(668,562,o),
(671,421,c),
(694,188,o),
(565,66,o),
(467,65,c),
(293,53,o),
(181,236,o),
(182,383,cs),
(179,547,o),
(277,696,o),
(411,696,c)
);
}
);
width = 863;
},
{
associatedMasterId = "A2AECE16-8029-4E4A-A860-6BA7A78BC664";
background = {
shapes = (
{
closed = 1;
nodes = (
(315,756,o),
(190,684,o),
(95,571,cs),
(52,521,o),
(29,446,o),
(29,369,cs),
(29,147,o),
(186,-16,o),
(406,-16,cs),
(482,-16,o),
(603,45,o),
(710,164,cs),
(755,213,o),
(778,307,o),
(778,398,cs),
(778,591,o),
(661,756,o),
(405,756,cs)
);
},
{
closed = 1;
nodes = (
(523,684,o),
(653,512,o),
(656,366,cs),
(659,183,o),
(605,68,o),
(453,65,cs),
(305,61,o),
(155,223,o),
(152,392,cs),
(149,563,o),
(219,679,o),
(372,683,cs)
);
}
);
};
layerId = "D428A876-8F9D-4EC5-BF0C-56309D1A6C4C";
name = "Nov 22, 24 at 10:42";
shapes = (
{
closed = 1;
nodes = (
(319,756,o),
(199,684,o),
(108,571,cs),
(67,521,o),
(45,446,o),
(45,369,cs),
(45,147,o),
(195,-16,o),
(406,-16,cs),
(479,-16,o),
(594,45,o),
(697,164,cs),
(740,213,o),
(762,307,o),
(762,398,cs),
(762,591,o),
(650,756,o),
(405,756,cs)
);
},
{
closed = 1;
nodes = (
(523,684,o),
(653,512,o),
(656,366,cs),
(659,183,o),
(605,68,o),
(453,65,cs),
(305,61,o),
(155,223,o),
(152,392,cs),
(149,563,o),
(219,679,o),
(372,683,cs)
);
}
);
width = 807;
}
);
unicode = 79;
},
{
glyphname = P;
lastChange = "2024-12-05 21:53:36 +0000";
layers = (
{
hints = (
{
name = _corner.rightSerif;
options = 1;
origin = (0,0);
scale = (-1,1);
type = Corner;
},
{
name = _corner.leftSerif;
origin = (0,28);
type = Corner;
}
);
layerId = "A2AECE16-8029-4E4A-A860-6BA7A78BC664";
shapes = (
{
closed = 1;
nodes = (
(251,-4,l),
(251,308,ls),
(251,318,o),
(253,313,o),
(260,313,c),
(376,296,o),
(481,299,o),
(564,369,cs),
(601,401,o),
(624,448,o),
(630,501,cs),
(642,603,o),
(571,748,o),
(440,742,cs),
(366,739,o),
(302,735,o),
(244,733,c),
(152,733,ls),
(124,733,o),
(83,743,o),
(55,749,c),
(64,704,l),
(86,697,o),
(112,690,o),
(131,677,c),
(137,667,o),
(141,652,o),
(141,612,cs),
(141,-4,l)
);
},
{
closed = 1;
nodes = (
(329,336,o),
(252,353,o),
(252,376,cs),
(251,695,l),
(322,703,o),
(385,703,o),
(402,703,cs),
(490,703,o),
(537,550,o),
(518,457,cs),
(505,394,o),
(468,360,o),
(388,346,cs)
);
}
);
width = 661;
},
{
associatedMasterId = "A2AECE16-8029-4E4A-A860-6BA7A78BC664";
hints = (
{
name = _corner.leftSerif;
origin = (0,0);
type = Corner;
},
{
name = _corner.rightSerif;
options = 1;
origin = (0,1);
scale = (-1,1);
type = Corner;
},
{
name = _corner.leftSerif;
options = 1;
origin = (0,4);
scale = (1,-1);
type = Corner;
}
);
layerId = "EFDA8690-D6D9-41F3-BB08-F6543CAF70FF";
name = "Dec 5, 24 at 22:28";
shapes = (
{
closed = 1;
nodes = (
(140,0,l),
(250,0,l),
(250,737,l),
(244,740,l),
(140,740,l)
);
},
{
closed = 1;
nodes = (
(206,675,l),
(272,701,o),
(339,710,o),
(365,710,cs),
(433,710,o),
(496,624,o),
(496,528,cs),
(496,444,o),
(449,408,o),
(348,408,cs),
(325,408,o),
(268,408,o),
(235,408,c),
(244,391,o),
(248,381,o),
(249,368,c),
(378,368,l),
(462,368,o),
(588,442,o),
(588,557,cs),
(588,660,o),
(504,756,o),
(408,756,cs),
(292,756,o),
(299,742,o),
(244,740,c)
);
}
);
width = 618;
}
);
unicode = 80;
},
{
glyphname = Q;
lastChange = "2024-12-05 21:53:36 +0000";
layers = (
{
layerId = "A2AECE16-8029-4E4A-A860-6BA7A78BC664";
shapes = (
{
closed = 1;
nodes = (
(683,-179,o),
(693,-180,o),
(703,-179,cs),
(717,-179,o),
(731,-175,o),
(744,-169,cs),
(828,-128,ls),
(835,-125,o),
(834,-83,o),
(834,-83,c),
(807,-95,o),
(784,-104,o),
(763,-110,cs),
(746,-113,o),
(727,-109,o),
(681,-91,cs),
(587,-55,o),
(464,2,o),
(406,3,cs),
(388,4,o),
(371,1,o),
(353,-7,cs),
(270,-47,ls),
(263,-51,o),
(265,-92,o),
(265,-92,c),
(276,-87,l),
(277,-87,l),
(284,-83,l),
(311,-72,ls),
(331,-66,o),
(356,-62,o),
(379,-69,cs),
(428,-82,o),
(596,-164,o),
(674,-177,cs)
);
},
{
closed = 1;
nodes = (
(349,756,o),
(222,680,o),
(130,568,cs),
(90,518,o),
(71,449,o),
(71,373,cs),
(71,153,o),
(222,-8,o),
(435,-8,c),
(545,8,o),
(672,104,o),
(731,175,cs),
(764,218,o),
(792,280,o),
(792,382,cs),
(792,574,o),
(682,756,o),
(434,756,cs)
);
},
{
closed = 1;
nodes = (
(550,703,o),
(668,562,o),
(671,421,c),
(694,188,o),
(565,66,o),
(467,65,c),
(293,53,o),
(181,236,o),
(182,383,cs),
(179,547,o),
(277,696,o),
(411,696,c)
);
}
);
width = 905;
},
{
associatedMasterId = "A2AECE16-8029-4E4A-A860-6BA7A78BC664";
layerId = "BAB8EF24-C50D-4CA9-B6D8-38DFFB9E7373";
name = "Dec 5, 24 at 22:29";
shapes = (
{
closed = 1;
nodes = (
(349,759,o),
(227,686,o),
(135,572,cs),
(94,521,o),
(71,445,o),
(71,367,cs),
(71,142,o),
(223,-23,o),
(437,-23,cs),
(511,-23,o),
(627,39,o),
(732,160,cs),
(775,209,o),
(798,304,o),
(798,396,cs),
(798,592,o),
(684,759,o),
(436,759,cs)
);
},
{
closed = 1;
nodes = (
(565,691,o),
(705,528,o),
(708,380,cs),
(711,195,o),
(630,51,o),
(476,48,cs),
(326,44,o),
(174,208,o),
(171,379,cs),
(168,553,o),
(257,686,o),
(412,690,cs)
);
},
{
closed = 1;
nodes = (
(788,-103,l),
(788,-103,o),
(759,-133,o),
(664,-96,c),
(568,-59,o),
(435,-10,o),
(394,-23,c),
(355,-34,o),
(287,-92,o),
(287,-92,c),
(296,-102,l),
(296,-102,o),
(345,-66,o),
(387,-78,c),
(432,-89,o),
(586,-154,o),
(657,-164,c),
(682,-168,o),
(706,-166,o),
(742,-148,c),
(763,-138,o),
(782,-126,o),
(792,-121,c),
(792,-116,o),
(792,-112,o),
(792,-108,c)
);
}
);
width = 869;
}
);
unicode = 81;
},
{
glyphname = R;
lastChange = "2024-12-05 21:53:36 +0000";
layers = (
{
layerId = "A2AECE16-8029-4E4A-A860-6BA7A78BC664";
shapes = (
{
closed = 1;
nodes = (
(103,-7,o),
(148,-2,o),
(191,-2,cs),
(236,-2,o),
(280,-8,o),
(322,-18,c),
(329,17,l),
(293,27,o),
(273,44,o),
(259,64,c),
(255,75,o),
(253,85,o),
(252,95,c),
(252,338,l),
(306,338,ls),
(354,338,o),
(367,316,o),
(367,316,c),
(409,240,o),
(465,114,o),
(495,70,cs),
(536,9,o),
(568,-12,o),
(691,-18,cs),
(741,-18,l),
(759,17,l),
(710,18,o),
(667,38,o),
(640,69,cs),
(614,98,o),
(609,110,o),
(567,177,cs),
(545,211,o),
(509,306,o),
(459,341,c),
(583,393,o),
(622,457,o),
(622,557,cs),
(622,659,o),
(533,754,o),
(438,754,cs),
(376,754,o),
(300,738,o),
(246,738,cs),
(155,738,ls),
(127,738,o),
(86,748,o),
(58,754,c),
(67,709,l),
(89,702,o),
(115,695,o),
(134,682,c),
(140,672,o),
(144,657,o),
(144,617,cs),
(142,128,ls),
(142,88,o),
(135,73,o),
(130,64,c),
(116,46,o),
(92,32,o),
(68,27,c),
(58,-18,l)
);
},
{
closed = 1;
nodes = (
(252,691,l),
(301,705,o),
(362,712,o),
(396,710,cs),
(463,706,o),
(512,625,o),
(512,530,cs),
(512,460,o),
(480,378,o),
(380,378,cs),
(252,378,l)
);
}
);
width = 769;
},
{
associatedMasterId = "A2AECE16-8029-4E4A-A860-6BA7A78BC664";
guides = (
{
pos = (392,341);
}
);
hints = (
{
name = _corner.leftSerif;
origin = (0,0);
type = Corner;
},
{
name = _corner.rightSerif;
options = 1;
origin = (0,1);
scale = (-1,1);
type = Corner;
},
{
name = _corner.leftSerif;
options = 1;
origin = (0,4);
scale = (1,-1);
type = Corner;
}
);
layerId = "CAE556E8-6C5E-4A69-B52A-730E0D800ADD";
name = "Nov 7, 24 at 19:23";
shapes = (
{
closed = 1;
nodes = (
(115,0,l),
(215,0,l),
(215,737,l),
(209,740,l),
(115,740,l)
);
},
{
closed = 1;
nodes = (
(164,662,l),
(243,694,o),
(309,705,o),
(340,705,cs),
(420,705,o),
(486,618,o),
(486,505,cs),
(486,405,o),
(410,363,o),
(360,363,cs),
(283,363,o),
(196,371,o),
(177,388,c),
(140,353,l),
(188,319,o),
(248,316,o),
(346,316,cs),
(425,316,o),
(595,402,o),
(595,539,cs),
(595,661,o),
(504,756,o),
(390,756,cs),
(373,756,o),
(365,746,o),
(209,740,c)
);
},
{
closed = 1;
nodes = (
(390,363,l),
(311,346,l),
(355,235,o),
(459,87,o),
(581,-27,c),
(681,35,l),
(566,122,o),
(454,284,o),
(424,346,c),
(421,353,l)
);
}
);
width = 701;
},
{
associatedMasterId = "A2AECE16-8029-4E4A-A860-6BA7A78BC664";
guides = (
{
pos = (392,341);
}
);
hints = (
{
name = _corner.leftSerif;
options = 1;
origin = (0,4);
scale = (1,-1);
type = Corner;
}
);
layerId = "D76DF32A-9A72-4467-87D3-0DA65CB0BF62";
name = "Nov 22, 24 at 10:42";
shapes = (
{
closed = 1;
nodes = (
(115,0,l),
(215,0,l),
(215,737,l),
(209,740,l),
(115,740,l)
);
},
{
pos = (-311,0);
ref = _dblBotSerif;
},
{
closed = 1;
nodes = (
(171,675,l),
(237,701,o),
(304,710,o),
(330,710,cs),
(398,710,o),
(453,637,o),
(453,541,cs),
(453,457,o),
(406,421,o),
(305,421,cs),
(282,421,o),
(225,421,o),
(192,421,c),
(201,404,o),
(205,394,o),
(206,381,c),
(335,381,l),
(419,381,o),
(545,455,o),
(545,570,cs),
(545,673,o),
(469,756,o),
(373,756,cs),
(358,756,o),
(340,745,o),
(209,740,c)
);
},
{
closed = 1;
nodes = (
(260,384,l),
(345,261,o),
(438,96,o),
(487,-16,c),
(550,7,o),
(618,3,o),
(688,-19,c),
(655,30,l),
(580,47,o),
(495,176,o),
(360,411,c)
);
}
);
width = 701;
},
{
associatedMasterId = "A2AECE16-8029-4E4A-A860-6BA7A78BC664";
guides = (
{
pos = (469,341);
}
);
hints = (
{
name = _corner.leftSerif;
options = 1;
origin = (1,13);
scale = (1,-1);
type = Corner;
}
);
layerId = "088810E4-EB77-4C6B-8C7D-CC7E4ED76792";
name = "Dec 5, 24 at 22:30";
shapes = (
{
pos = (-279,0);
ref = _dblBotSerif;
},
{
closed = 1;
nodes = (
(252,7,l),
(252,371,l),
(380,371,l),
(399,372,l),
(481,382,o),
(588,454,o),
(588,559,cs),
(588,661,o),
(503,756,o),
(408,756,cs),
(293,756,o),
(300,740,o),
(246,740,cs),
(142,740,l),
(142,7,l)
);
},
{
closed = 1;
nodes = (
(497,-3,o),
(536,6,o),
(564,6,cs),
(616,6,ls),
(647,6,o),
(679,-1,o),
(711,-9,c),
(740,37,l),
(665,36,o),
(650,61,o),
(650,61,c),
(649,61,o),
(467,292,o),
(407,371,c),
(407,372,o),
(404,372,o),
(399,372,cs),
(371,374,o),
(276,371,o),
(276,371,c),
(516,54,l),
(516,48,o),
(512,37,o),
(480,34,c),
(471,-9,l)
);
},
{
closed = 1;
nodes = (
(252,691,l),
(301,705,o),
(346,710,o),
(366,710,cs),
(433,710,o),
(497,625,o),
(497,530,cs),
(497,447,o),
(450,411,o),
(350,411,cs),
(252,411,l)
);
}
);
width = 750;
}
);
unicode = 82;
},
{
glyphname = S;
lastChange = "2024-12-05 21:53:36 +0000";
layers = (
{
layerId = "A2AECE16-8029-4E4A-A860-6BA7A78BC664";
shapes = (
{
closed = 1;
nodes = (
(222,-25,o),
(329,-27,o),
(393,-8,c),
(466,30,o),
(522,76,o),
(562,139,c),
(566,158,o),
(568,179,o),
(568,202,cs),
(568,445,o),
(169,374,o),
(186,567,cs),
(191,625,o),
(227,698,o),
(325,704,cs),
(425,711,o),
(443,679,o),
(460,661,cs),
(461,660,ls),
(481,633,o),
(500,589,o),
(521,524,c),
(521,524,o),
(555,549,o),
(552,557,cs),
(536,606,o),
(519,671,o),
(515,741,c),
(500,739,o),
(464,747,o),
(422,751,cs),
(401,753,o),
(300,755,o),
(240,736,c),
(172,698,o),
(119,652,o),
(81,589,c),
(77,570,o),
(75,549,o),
(75,526,cs),
(75,435,o),
(143,374,o),
(245,335,cs),
(336,296,o),
(462,291,o),
(451,161,cs),
(446,103,o),
(407,30,o),
(303,24,cs),
(197,18,o),
(177,63,o),
(159,81,cs),
(158,82,ls),
(137,109,o),
(116,153,o),
(94,218,c),
(94,218,o),
(58,193,o),
(61,185,cs),
(78,136,o),
(96,71,o),
(101,1,c),
(116,3,o),
(156,-19,o),
(200,-23,cs)
);
}
);
width = 639;
},
{
associatedMasterId = "A2AECE16-8029-4E4A-A860-6BA7A78BC664";
layerId = "834F67B1-E868-46BB-B00D-AA2228372324";
name = "Dec 5, 24 at 22:31";
shapes = (
{
closed = 1;
nodes = (
(576,178,l),
(590,200,o),
(593,232,o),
(588,267,cs),
(577,352,o),
(504,379,o),
(350,427,cs),
(273,451,o),
(182,461,o),
(195,595,cs),
(201,653,o),
(232,717,o),
(327,717,cs),
(328,717,ls),
(406,717,o),
(442,685,o),
(462,664,cs),
(479,647,o),
(493,608,o),
(493,608,c),
(478,530,l),
(530,543,l),
(555,658,l),
(563,684,o),
(576,696,o),
(576,696,c),
(549,701,o),
(408,767,o),
(341,767,cs),
(313,767,o),
(266,756,o),
(242,751,c),
(219,737,l),
(98,605,ls),
(92,598,o),
(84,570,o),
(84,554,cs),
(84,383,o),
(181,364,o),
(319,323,cs),
(440,286,o),
(499,278,o),
(456,164,cs),
(430,95,o),
(371,27,o),
(283,27,cs),
(278,27,l),
(278,22,l),
(278,27,l),
(221,38,o),
(197,63,o),
(178,81,cs),
(161,99,o),
(146,140,o),
(146,140,c),
(163,221,l),
(109,207,l),
(81,88,ls),
(74,61,o),
(61,49,o),
(61,49,c),
(85,44,o),
(199,-2,o),
(273,-13,cs),
(274,-13,l),
(275,-13,l),
(276,-13,l),
(277,-14,l),
(278,-14,l),
(279,-14,l),
(280,-14,l),
(284,-14,ls),
(339,-14,o),
(385,-5,o),
(412,9,c)
);
}
);
width = 661;
}
);
unicode = 83;
},
{
glyphname = T;
lastChange = "2024-12-05 21:53:36 +0000";
layers = (
{
background = {
hints = (
{
name = _corner.leftSerif;
origin = (0,0);
type = Corner;
},
{
name = _corner.leftSerif;
options = 1;
origin = (0,4);
scale = (1,-1);
type = Corner;
}
);
shapes = (
{
closed = 1;
nodes = (
(638,0,l),
(738,0,l),
(738,737,l),
(732,740,l),
(638,740,l)
);
},
{
closed = 1;
nodes = (
(704,377,l),
(794,377,o),
(876,380,o),
(881,301,c),
(912,290,l),
(900,367,o),
(901,443,o),
(917,520,c),
(878,519,l),
(877,434,o),
(794,434,o),
(703,434,c)
);
},
{
closed = 1;
nodes = (
(826,692,o),
(904,695,o),
(943,694,c),
(988,695,o),
(1027,663,o),
(1085,508,c),
(1099,554,l),
(1077,611,o),
(1055,675,o),
(1045,756,c),
(1005,747,o),
(846,743,o),
(732,740,c),
(718,663,l)
);
},
{
closed = 1;
nodes = (
(638,0,l),
(752,0,o),
(966,0,o),
(1080,-16,c),
(1157,211,l),
(1155,261,l),
(1107,195,o),
(1074,145,o),
(1018,93,c),
(888,44,o),
(782,36,o),
(720,101,c)
);
}
);
};
layerId = "A2AECE16-8029-4E4A-A860-6BA7A78BC664";
shapes = (
{
closed = 1;
nodes = (
(391,12,l),
(391,733,l),
(279,733,l),
(279,12,l)
);
},
{
closed = 1;
nodes = (
(655,605,l),
(641,647,o),
(629,694,o),
(622,750,c),
(582,740,o),
(413,736,o),
(298,733,c),
(283,668,l),
(393,697,o),
(471,700,o),
(509,699,c),
(556,700,o),
(587,678,o),
(621,612,c)
);
},
{
closed = 1;
nodes = (
(279,129,l),
(279,89,o),
(272,74,o),
(267,65,c),
(253,47,o),
(229,33,o),
(205,28,c),
(195,-17,l),
(288,5,o),
(391,3,o),
(473,-17,c),
(480,18,l),
(444,28,o),
(413,45,o),
(399,65,c),
(391,86,o),
(391,106,o),
(391,129,c)
);
},
{
closed = 1;
nodes = (
(621,607,l),
(621,607,o),
(655,605,o),
(655,605,c)
);
},
{
closed = 1;
nodes = (
(82,678,o),
(113,700,o),
(159,699,c),
(197,700,o),
(276,697,o),
(384,668,c),
(370,733,l),
(256,736,o),
(87,740,o),
(47,750,c),
(40,694,o),
(25,653,o),
(10,610,c),
(48,612,l)
);
}
);
width = 665;
},
{
associatedMasterId = "A2AECE16-8029-4E4A-A860-6BA7A78BC664";
guides = (
{
angle = 82;
pos = (103,659);
}
);
hints = (
{
name = _corner.rightSerif;
options = 1;
origin = (0,0);
scale = (-1,1);
type = Corner;
},
{
name = _corner.rightSerif;
origin = (0,34);
type = Corner;
}
);
layerId = "6EED061D-A282-4C71-9F9E-503B5971130A";
name = "Nov 7, 24 at 19:19";
shapes = (
{
closed = 1;
nodes = (
(425,0,l),
(425,633,l),
(425,652,o),
(425,662,o),
(428,671,c),
(495,674,o),
(543,673,o),
(625,669,c),
(628,634,o),
(629,600,o),
(627,565,c),
(665,567,l),
(670,626,o),
(678,685,o),
(690,745,c),
(573,742,o),
(487,740,o),
(400,739,cs),
(293,738,o),
(167,742,o),
(50,745,c),
(53,686,o),
(52,623,o),
(50,564,c),
(93,574,l),
(96,609,o),
(100,634,o),
(105,669,c),
(187,673,o),
(252,674,o),
(322,671,c),
(325,662,o),
(325,652,o),
(325,633,c),
(325,0,l)
);
}
);
width = 750;
},
{
associatedMasterId = "A2AECE16-8029-4E4A-A860-6BA7A78BC664";
background = {
hints = (
{
name = _corner.leftSerif;
origin = (0,0);
type = Corner;
},
{
name = _corner.leftSerif;
options = 1;
origin = (0,4);
scale = (1,-1);
type = Corner;
}
);
shapes = (
{
closed = 1;
nodes = (
(305,0,l),
(405,0,l),
(405,737,l),
(399,740,l),
(305,740,l)
);
},
{
closed = 1;
nodes = (
(371,377,l),
(461,377,o),
(543,380,o),
(548,301,c),
(579,290,l),
(567,367,o),
(568,443,o),
(584,520,c),
(545,519,l),
(544,434,o),
(461,434,o),
(370,434,c)
);
},
{
closed = 1;
nodes = (
(493,692,o),
(571,695,o),
(610,694,c),
(655,695,o),
(694,663,o),
(752,508,c),
(766,554,l),
(744,611,o),
(722,675,o),
(712,756,c),
(672,747,o),
(513,743,o),
(399,740,c),
(385,663,l)
);
},
{
closed = 1;
nodes = (
(305,0,l),
(419,0,o),
(633,0,o),
(747,-16,c),
(824,211,l),
(822,261,l),
(774,195,o),
(741,145,o),
(685,93,c),
(555,44,o),
(449,36,o),
(387,101,c)
);
}
);
};
layerId = "0D93041B-7F47-4F32-87E3-3071F9190B01";
name = "Nov 22, 24 at 10:42";
shapes = (
{
closed = 1;
nodes = (
(406,20,l),
(406,740,l),
(306,740,l),
(306,20,l)
);
},
{
closed = 1;
nodes = (
(414,672,o),
(492,675,o),
(531,674,c),
(590,675,o),
(626,636,o),
(673,518,c),
(697,554,l),
(675,611,o),
(653,675,o),
(643,756,c),
(603,747,o),
(434,743,o),
(320,740,c),
(306,643,l)
);
},
{
closed = 1;
nodes = (
(392,740,l),
(278,743,o),
(119,747,o),
(69,756,c),
(59,675,o),
(37,611,o),
(15,554,c),
(39,518,l),
(86,636,o),
(122,675,o),
(181,674,c),
(220,675,o),
(298,672,o),
(406,643,c)
);
},
{
pos = (-120,0);
ref = _dblBotSerif;
}
);
width = 712;
},
{
associatedMasterId = "A2AECE16-8029-4E4A-A860-6BA7A78BC664";
background = {
hints = (
{
name = _corner.leftSerif;
origin = (0,0);
type = Corner;
},
{
name = _corner.leftSerif;
options = 1;
origin = (0,4);
scale = (1,-1);
type = Corner;
}
);
shapes = (
{
closed = 1;
nodes = (
(305,0,l),
(405,0,l),
(405,737,l),
(399,740,l),
(305,740,l)
);
},
{
closed = 1;
nodes = (
(371,377,l),
(461,377,o),
(543,380,o),
(548,301,c),
(579,290,l),
(567,367,o),
(568,443,o),
(584,520,c),
(545,519,l),
(544,434,o),
(461,434,o),
(370,434,c)
);
},
{
closed = 1;
nodes = (
(493,692,o),
(571,695,o),
(610,694,c),
(655,695,o),
(694,663,o),
(752,508,c),
(766,554,l),
(744,611,o),
(722,675,o),
(712,756,c),
(672,747,o),
(513,743,o),
(399,740,c),
(385,663,l)
);
},
{
closed = 1;
nodes = (
(305,0,l),
(419,0,o),
(633,0,o),
(747,-16,c),
(824,211,l),
(822,261,l),
(774,195,o),
(741,145,o),
(685,93,c),
(555,44,o),
(449,36,o),
(387,101,c)
);
}
);
};
layerId = "84439721-2515-41EC-8F95-CEC213FC9DE0";
name = "Dec 5, 24 at 22:31";
shapes = (
{
pos = (-141,0);
ref = _dblBotSerif;
},
{
closed = 1;
nodes = (
(391,12,l),
(391,733,l),
(279,733,l),
(279,12,l)
);
},
{
closed = 1;
nodes = (
(655,605,l),
(641,647,o),
(629,694,o),
(622,750,c),
(582,740,o),
(413,736,o),
(298,733,c),
(283,663,l),
(393,692,o),
(471,695,o),
(509,694,c),
(556,695,o),
(587,673,o),
(621,607,c)
);
},
{
closed = 1;
nodes = (
(621,607,l),
(621,607,o),
(655,605,o),
(655,605,c)
);
},
{
closed = 1;
nodes = (
(82,673,o),
(113,695,o),
(159,694,c),
(197,695,o),
(276,692,o),
(384,663,c),
(370,733,l),
(256,736,o),
(87,740,o),
(47,750,c),
(40,694,o),
(25,653,o),
(10,610,c),
(48,607,l)
);
}
);
width = 665;
}
);
unicode = 84;
},
{
glyphname = U;
lastChange = "2024-12-05 21:53:36 +0000";
layers = (
{
hints = (
{
name = _corner.leftSerif;
options = 1;
origin = (0,2);
scale = (-1,1);
type = Corner;
},
{
name = _corner.rightSerif;
origin = (0,20);
type = Corner;
},
{
name = _corner.leftSerif;
options = 1;
origin = (0,23);
scale = (-1,1);
type = Corner;
},
{
name = _corner.rightSerif;
origin = (0,44);
type = Corner;
}
);
layerId = "A2AECE16-8029-4E4A-A860-6BA7A78BC664";
shapes = (
{
closed = 1;
nodes = (
(639,740,o),
(613,740,o),
(603,740,c),
(603,724,o),
(603,541,o),
(603,495,c),
(603,418,o),
(612,225,o),
(582,152,c),
(561,107,o),
(527,85,o),
(480,71,c),
(405,49,o),
(331,60,o),
(282,96,c),
(221,142,o),
(222,224,o),
(222,301,cs),
(223,466,o),
(221,656,o),
(224,740,c),
(199,740,o),
(137,740,o),
(112,741,c),
(112,718,o),
(112,541,o),
(112,265,c),
(112,198,o),
(117,150,o),
(127,122,c),
(146,63,o),
(204,28,o),
(265,8,c),
(336,-9,o),
(398,-13,o),
(471,6,c),
(543,25,o),
(603,70,o),
(630,141,c),
(641,174,o),
(647,234,o),
(647,320,c),
(648,660,o),
(648,595,o),
(651,740,c)
);
}
);
width = 757;
},
{
associatedMasterId = "A2AECE16-8029-4E4A-A860-6BA7A78BC664";
hints = (
{
name = _corner.leftSerif;
options = 1;
origin = (0,5);
scale = (-1,1);
type = Corner;
},
{
name = _corner.rightSerif;
origin = (0,34);
type = Corner;
},
{
name = _corner.leftSerif;
options = 1;
origin = (0,40);
scale = (-1,1);
type = Corner;
},
{
name = _corner.rightSerif;
origin = (0,68);
type = Corner;
},
{
name = _corner.rightSerif;
origin = (0,69);
type = Corner;
}
);
layerId = "E8595C0A-C259-460B-B417-01D592EFBA35";
name = "Dec 5, 24 at 22:32";
shapes = (
{
closed = 1;
nodes = (
(647,739,o),
(638,739,o),
(630,739,c),
(620,739,o),
(610,739,o),
(600,739,c),
(600,723,o),
(600,541,o),
(600,495,c),
(600,334,l),
(600,289,o),
(598,251,o),
(595,222,c),
(592,193,o),
(586,169,o),
(579,152,c),
(571,135,o),
(561,120,o),
(545,106,c),
(530,92,o),
(507,80,o),
(477,71,c),
(402,49,o),
(328,60,o),
(279,96,c),
(259,111,o),
(243,131,o),
(235,155,c),
(224,179,o),
(219,228,o),
(219,301,cs),
(219,495,l),
(220,586,o),
(220,710,o),
(221,739,c),
(205,739,o),
(179,739,o),
(163,739,c),
(144,739,o),
(129,739,o),
(109,740,c),
(109,717,o),
(109,541,o),
(109,495,c),
(109,265,l),
(109,198,o),
(114,150,o),
(124,122,c),
(131,100,o),
(146,79,o),
(166,59,c),
(187,39,o),
(223,21,o),
(262,8,c),
(333,-14,o),
(399,-18,o),
(479,6,c),
(516,16,o),
(547,33,o),
(572,51,c),
(603,77,o),
(625,107,o),
(638,141,c),
(649,174,o),
(655,234,o),
(655,320,c),
(655,495,l),
(656,586,o),
(659,739,o),
(659,739,c)
);
}
);
width = 760;
}
);
unicode = 85;
},
{
glyphname = V;
lastChange = "2024-12-05 21:53:36 +0000";
layers = (
{
background = {
shapes = (
{
closed = 1;
nodes = (
(809,-12,l),
(860,127,l),
(687,578,l),
(657,651,o),
(637,684,o),
(670,704,c),
(686,711,o),
(701,717,o),
(717,721,c),
(706,756,l),
(626,734,o),
(514,736,o),
(410,756,c),
(403,711,l),
(464,705,o),
(519,680,o),
(557,596,c),
(673,296,o),
(788,0,o),
(788,0,cs)
);
},
{
closed = 1;
nodes = (
(1066,733,o),
(996,735,o),
(918,756,c),
(927,711,l),
(966,707,o),
(1003,685,o),
(1008,667,c),
(1008,667,o),
(798,84,o),
(798,84,c),
(858,121,l),
(860,127,o),
(1058,675,o),
(1058,675,c),
(1080,689,o),
(1116,714,o),
(1151,722,c),
(1142,756,l)
);
}
);
};
guides = (
{
angle = 90;
pos = (378,5);
}
);
layerId = "A2AECE16-8029-4E4A-A860-6BA7A78BC664";
shapes = (
{
closed = 1;
nodes = (
(416,-12,l),
(467,127,l),
(294,578,l),
(264,651,o),
(244,684,o),
(277,704,c),
(293,711,o),
(308,717,o),
(324,721,c),
(313,756,l),
(233,734,o),
(121,736,o),
(17,756,c),
(10,711,l),
(71,705,o),
(126,680,o),
(164,596,c),
(280,296,o),
(395,0,o),
(395,0,cs)
);
},
{
closed = 1;
nodes = (
(673,733,o),
(603,735,o),
(525,756,c),
(534,711,l),
(573,707,o),
(610,685,o),
(615,667,c),
(615,667,o),
(405,84,o),
(405,84,c),
(465,121,l),
(467,127,o),
(665,675,o),
(665,675,c),
(687,689,o),
(723,714,o),
(758,722,c),
(749,756,l)
);
}
);
width = 768;
},
{
associatedMasterId = "A2AECE16-8029-4E4A-A860-6BA7A78BC664";
guides = (
{
angle = 90;
pos = (379,5);
}
);
layerId = "C62EFF58-6F1D-438C-A64C-FDF1AC1368E6";
name = "Nov 22, 24 at 10:42";
shapes = (
{
closed = 1;
nodes = (
(224,734,o),
(131,736,o),
(27,756,c),
(20,711,l),
(81,705,o),
(126,680,o),
(164,596,c),
(315,182,l),
(365,137,o),
(389,69,o),
(391,-16,c),
(443,125,l),
(285,578,l),
(257,651,o),
(235,684,o),
(268,704,c),
(284,711,o),
(299,717,o),
(315,721,c),
(304,756,l)
);
},
{
closed = 1;
nodes = (
(666,733,o),
(589,735,o),
(511,756,c),
(520,711,l),
(559,707,o),
(588,685,o),
(593,667,c),
(570,586,o),
(552,548,o),
(525,472,c),
(385,84,l),
(417,57,l),
(571,469,l),
(610,566,o),
(645,651,o),
(658,675,c),
(680,689,o),
(716,714,o),
(751,722,c),
(742,756,l)
);
}
);
width = 779;
},
{
associatedMasterId = "A2AECE16-8029-4E4A-A860-6BA7A78BC664";
guides = (
{
angle = 90;
pos = (374,5);
}
);
layerId = "0CBD1306-A8A2-429E-8183-8200B6EE57F7";
name = "Dec 5, 24 at 22:34";
shapes = (
{
closed = 1;
nodes = (
(420,-12,l),
(471,127,l),
(281,578,l),
(251,651,o),
(231,684,o),
(264,704,c),
(280,711,o),
(295,717,o),
(311,721,c),
(300,756,l),
(220,734,o),
(121,736,o),
(17,756,c),
(10,711,l),
(71,705,o),
(126,680,o),
(164,596,c),
(274,296,o),
(364,109,o),
(395,0,c)
);
},
{
closed = 1;
nodes = (
(691,733,o),
(603,735,o),
(525,756,c),
(534,711,l),
(573,707,o),
(602,685,o),
(607,667,c),
(576,586,o),
(530,472,o),
(530,472,c),
(391,84,l),
(469,121,l),
(587,469,l),
(661,655,o),
(664,651,o),
(683,675,c),
(705,689,o),
(741,714,o),
(776,722,c),
(767,756,l)
);
},
{
closed = 1;
nodes = (
(385,0,l),
(385,0,o),
(411,-8,o),
(411,-8,c)
);
}
);
width = 786;
}
);
unicode = 86;
},
{
glyphname = W;
lastChange = "2024-12-05 21:53:36 +0000";
layers = (
{
hints = (
{
name = _corner.rightSerif;
origin = (0,16);
type = Corner;
},
{
name = _corner.leftSerif;
options = 1;
origin = (0,22);
scale = (-1,1);
type = Corner;
},
{
name = _corner.rightSerif;
origin = (0,36);
type = Corner;
}
);
layerId = "A2AECE16-8029-4E4A-A860-6BA7A78BC664";
shapes = (
{
closed = 1;
nodes = (
(912,748,ls),
(874,753,o),
(857,748,o),
(829,751,c),
(834,723,l),
(856,716,o),
(901,709,o),
(916,701,c),
(772,166,l),
(772,166,o),
(568,740,o),
(568,740,c),
(533,755,l),
(316,175,l),
(316,175,o),
(209,717,o),
(206,739,c),
(189,738,o),
(163,736,o),
(152,736,cs),
(131,736,o),
(121,737,o),
(85,739,c),
(89,731,o),
(255,-11,o),
(255,-11,c),
(312,0,l),
(325,41,o),
(521,567,o),
(521,567,c),
(519,567,o),
(731,-15,o),
(731,-15,c),
(792,0,l),
(792,0,o),
(985,731,o),
(988,738,c)
);
}
);
width = 1080;
},
{
associatedMasterId = "A2AECE16-8029-4E4A-A860-6BA7A78BC664";
hints = (
{
name = _corner.rightSerif;
origin = (0,16);
type = Corner;
},
{
name = _corner.leftSerif;
options = 1;
origin = (0,22);
scale = (-1,1);
type = Corner;
},
{
name = _corner.rightSerif;
origin = (0,36);
type = Corner;
}
);
layerId = "F39EC475-F6F6-414A-92FA-487A7452C004";
name = "Dec 5, 24 at 22:36";
shapes = (
{
closed = 1;
nodes = (
(912,748,ls),
(874,753,o),
(857,748,o),
(829,751,c),
(834,723,l),
(856,716,o),
(901,709,o),
(916,701,c),
(772,166,l),
(772,166,o),
(568,740,o),
(568,740,c),
(533,755,l),
(316,175,l),
(316,175,o),
(209,717,o),
(206,739,c),
(189,738,o),
(163,736,o),
(152,736,cs),
(131,736,o),
(121,737,o),
(85,739,c),
(89,731,o),
(255,-11,o),
(255,-11,c),
(312,0,l),
(325,41,o),
(521,567,o),
(521,567,c),
(519,567,o),
(731,-15,o),
(731,-15,c),
(792,0,l),
(792,0,o),
(985,731,o),
(988,738,c)
);
}
);
width = 1080;
}
);
unicode = 87;
},
{
glyphname = X;
lastChange = "2024-12-05 21:53:36 +0000";
layers = (
{
hints = (
{
name = _corner.rightSerif;
origin = (0,16);
type = Corner;
},
{
name = _corner.rightSerif;
options = 1;
origin = (0,38);
scale = (-1,1);
type = Corner;
}
);
layerId = "A2AECE16-8029-4E4A-A860-6BA7A78BC664";
shapes = (
{
closed = 1;
nodes = (
(516,0,l),
(488,0,o),
(447,-10,o),
(419,-15,c),
(428,30,l),
(450,36,o),
(460,39,o),
(480,52,c),
(486,62,o),
(478,75,o),
(459,110,c),
(423,170,o),
(384,240,o),
(343,311,c),
(280,219,o),
(186,67,o),
(148,0,c),
(117,0,l),
(89,0,o),
(48,-10,o),
(20,-16,c),
(29,29,l),
(71,42,o),
(135,68,o),
(159,103,c),
(206,179,o),
(270,282,o),
(317,354,c),
(301,378,o),
(213,535,o),
(155,638,c),
(127,683,o),
(73,701,o),
(29,715,c),
(20,760,l),
(48,754,o),
(89,744,o),
(117,744,c),
(227,744,l),
(228,742,o),
(342,540,o),
(391,454,c),
(407,478,o),
(461,566,o),
(502,634,c),
(521,669,o),
(533,678,o),
(527,688,c),
(508,701,o),
(493,708,o),
(471,715,c),
(462,760,l),
(490,754,o),
(531,744,o),
(559,744,c),
(550,744,l),
(583,744,o),
(616,752,o),
(649,760,c),
(659,725,l),
(628,715,o),
(612,703,o),
(589,687,c),
(575,665,o),
(563,647,o),
(551,629,c),
(501,553,o),
(416,413,o),
(417,414,c),
(403,437,o),
(617,80,o),
(631,56,c),
(654,40,o),
(679,28,o),
(710,18,c),
(700,-17,l),
(667,-9,o),
(634,-1,o),
(601,-1,c)
);
}
);
width = 730;
}
);
unicode = 88;
},
{
glyphname = Y;
lastChange = "2024-12-05 21:53:36 +0000";
layers = (
{
hints = (
{
name = _corner.rightSerif;
options = 1;
origin = (0,0);
scale = (-1,1);
type = Corner;
},
{
name = _corner.rightSerif;
origin = (0,4);
type = Corner;
},
{
name = _corner.rightSerif;
origin = (0,21);
type = Corner;
},
{
name = _corner.leftSerif;
options = 1;
origin = (0,22);
scale = (-1,1);
type = Corner;
},
{
name = _corner.leftSerif;
origin = (0,28);
type = Corner;
}
);
layerId = "A2AECE16-8029-4E4A-A860-6BA7A78BC664";
shapes = (
{
closed = 1;
nodes = (
(418,0,l),
(413,243,ls),
(413,243,o),
(648,740,o),
(648,740,cs),
(585,740,l),
(560,739,o),
(519,749,o),
(491,755,c),
(500,710,l),
(522,703,o),
(537,700,o),
(556,687,c),
(562,677,o),
(552,663,o),
(535,627,c),
(477,509,o),
(391,327,o),
(391,327,c),
(385,331,o),
(202,740,o),
(198,740,cs),
(82,740,l),
(315,240,l),
(314,239,l),
(315,239,l),
(315,206,o),
(316,168,o),
(315,0,c)
);
}
);
width = 717;
},
{
associatedMasterId = "A2AECE16-8029-4E4A-A860-6BA7A78BC664";
hints = (
{
name = _corner.rightSerif;
options = 1;
origin = (0,0);
scale = (-1,1);
type = Corner;
},
{
name = _corner.rightSerif;
origin = (0,4);
type = Corner;
},
{
name = _corner.rightSerif;
origin = (0,21);
type = Corner;
},
{
name = _corner.leftSerif;
options = 1;
origin = (0,22);
scale = (-1,1);
type = Corner;
},
{
name = _corner.leftSerif;
origin = (0,28);
type = Corner;
}
);
layerId = "79552496-CBD6-4153-A071-7B8B1F2D8852";
name = "Dec 5, 24 at 22:37";
shapes = (
{
closed = 1;
nodes = (
(418,0,l),
(413,243,ls),
(413,243,o),
(648,740,o),
(648,740,cs),
(585,740,l),
(560,739,o),
(519,749,o),
(491,755,c),
(500,710,l),
(522,703,o),
(537,700,o),
(556,687,c),
(562,677,o),
(552,663,o),
(535,627,c),
(477,509,o),
(391,327,o),
(391,327,c),
(385,331,o),
(202,740,o),
(198,740,cs),
(82,740,l),
(315,240,l),
(314,239,l),
(315,239,l),
(315,206,o),
(316,168,o),
(315,0,c)
);
}
);
width = 717;
}
);
unicode = 89;
},
{
glyphname = Z;
lastChange = "2024-12-05 21:53:36 +0000";
layers = (
{
layerId = "A2AECE16-8029-4E4A-A860-6BA7A78BC664";
shapes = (
{
closed = 1;
nodes = (
(68,1,o),
(81,2,o),
(103,2,cs),
(207,4,l),
(607,3,l),
(646,1,o),
(688,9,o),
(702,5,c),
(711,74,o),
(732,124,o),
(752,172,cs),
(755,180,o),
(723,207,o),
(723,207,c),
(674,84,o),
(629,45,o),
(588,45,cs),
(217,43,l),
(387,262,o),
(560,496,o),
(734,707,c),
(710,738,l),
(664,736,o),
(626,735,o),
(598,735,cs),
(456,738,l),
(195,740,ls),
(156,742,o),
(115,728,o),
(101,732,c),
(99,716,o),
(96,702,o),
(93,688,cs),
(83,641,o),
(66,602,o),
(51,565,cs),
(48,557,o),
(80,530,o),
(80,530,c),
(124,641,o),
(167,691,o),
(204,697,c),
(245,698,l),
(579,699,l),
(579,699,o),
(61,30,o),
(61,30,c),
(58,0,l)
);
}
);
width = 813;
}
);
unicode = 90;
},
{
glyphname = a;
lastChange = "2024-12-12 21:49:05 +0000";
layers = (
{
associatedMasterId = "A2AECE16-8029-4E4A-A860-6BA7A78BC664";
guides = (
{
angle = -22.5;
pos = (76,219);
}
);
layerId = "2700C93C-9640-4618-8DF5-1D1641C5F3B6";
name = "Sep 27, 24 at 16:41";
shapes = (
{
closed = 1;
nodes = (
(80,354,l),
(121,360,l),
(125,400,l),
(212,436,o),
(271,444,o),
(303,443,cs),
(347,441,o),
(364,427,o),
(364,307,c),
(86,219,l),
(63,209,o),
(35,153,o),
(35,107,cs),
(35,43,o),
(92,-15,o),
(180,-15,cs),
(243,-15,o),
(279,7,o),
(364,68,c),
(371,68,l),
(395,1,l),
(545,1,l),
(545,35,l),
(464,35,l),
(464,395,l),
(464,472,o),
(429,516,o),
(358,516,cs),
(292,516,o),
(248,500,o),
(85,419,c)
);
},
{
closed = 1;
nodes = (
(364,101,l),
(322,78,o),
(265,60,o),
(234,60,cs),
(187,60,o),
(145,83,o),
(128,125,cs),
(118,149,o),
(122,177,o),
(132,192,c),
(364,264,l)
);
}
);
width = 570;
},
{
associatedMasterId = "A2AECE16-8029-4E4A-A860-6BA7A78BC664";
guides = (
{
angle = -22.5;
pos = (76,219);
}
);
layerId = "561743C8-F669-4BA2-8C69-99E82FEB28B8";
name = "Sep 30, 24 at 17:08";
shapes = (
{
closed = 1;
nodes = (
(80,354,l),
(121,360,l),
(125,400,l),
(212,436,o),
(271,444,o),
(303,443,cs),
(347,441,o),
(364,427,o),
(364,307,c),
(86,219,l),
(63,209,o),
(35,153,o),
(35,107,cs),
(35,43,o),
(92,-15,o),
(180,-15,cs),
(243,-15,o),
(279,7,o),
(364,68,c),
(371,68,l),
(395,1,l),
(545,1,l),
(545,35,l),
(464,35,l),
(464,395,l),
(464,472,o),
(429,516,o),
(358,516,cs),
(292,516,o),
(248,500,o),
(85,419,c)
);
},
{
closed = 1;
nodes = (
(364,101,l),
(322,78,o),
(265,60,o),
(234,60,cs),
(187,60,o),
(145,83,o),
(128,125,cs),
(118,149,o),
(122,177,o),
(132,192,c),
(364,264,l)
);
}
);
width = 570;
},
{
associatedMasterId = "A2AECE16-8029-4E4A-A860-6BA7A78BC664";
background = {
shapes = (
{
closed = 0;
nodes = (
(335,-11,l),
(507,24,l),
(507,35,l),
(435,56,l)
);
}
);
};
layerId = "32CC71C0-3E47-4F62-87CB-146CD1BF22F3";
name = "Sep 30, 24 at 17:08";
shapes = (
{
closed = 1;
nodes = (
(245,-16,o),
(278,-4,o),
(336,57,c),
(343,57,l),
(367,-5,l),
(507,24,l),
(507,35,l),
(436,57,l),
(436,394,l),
(436,471,o),
(401,515,o),
(330,515,cs),
(264,515,o),
(217,487,o),
(71,406,c),
(71,318,l),
(148,338,l),
(148,399,l),
(167,415,o),
(243,434,o),
(275,433,cs),
(322,431,o),
(336,429,o),
(336,306,c),
(88,218,l),
(54,202,o),
(35,165,o),
(35,106,cs),
(35,42,o),
(94,-16,o),
(182,-16,cs)
);
},
{
closed = 1;
nodes = (
(186,60,o),
(150,76,o),
(130,125,cs),
(120,149,o),
(117,183,o),
(134,192,c),
(336,264,l),
(330,133,ls),
(328,85,o),
(267,60,o),
(236,60,cs)
);
}
);
width = 532;
},
{
associatedMasterId = "A2AECE16-8029-4E4A-A860-6BA7A78BC664";
background = {
shapes = (
{
closed = 0;
nodes = (
(335,-11,l),
(507,24,l),
(507,35,l),
(435,56,l)
);
}
);
};
layerId = "1D83F26A-B114-48BE-B5E8-40F462A1A670";
name = "Oct 1, 24 at 00:49";
shapes = (
{
closed = 1;
nodes = (
(245,-16,o),
(278,-4,o),
(336,57,c),
(343,57,l),
(367,-5,l),
(507,24,l),
(507,35,l),
(436,57,l),
(436,394,l),
(436,471,o),
(401,515,o),
(330,515,cs),
(264,515,o),
(217,487,o),
(71,406,c),
(71,318,l),
(148,338,l),
(148,399,l),
(167,415,o),
(243,434,o),
(275,433,cs),
(322,431,o),
(336,429,o),
(336,306,c),
(88,218,l),
(54,202,o),
(35,165,o),
(35,106,cs),
(35,42,o),
(94,-16,o),
(182,-16,cs)
);
},
{
closed = 1;
nodes = (
(186,60,o),
(150,76,o),
(130,125,cs),
(120,149,o),
(117,183,o),
(134,192,c),
(336,264,l),
(330,133,ls),
(328,85,o),
(267,60,o),
(236,60,cs)
);
}
);
width = 532;
},
{
associatedMasterId = "A2AECE16-8029-4E4A-A860-6BA7A78BC664";
background = {
shapes = (
{
angle = 180;
pos = (512,500);
ref = _expStem;
}
);
};
layerId = "B1BC22A1-CFD5-487F-86B9-2528C77A0BA1";
name = "Oct 1, 24 at 02:47";
shapes = (
{
closed = 1;
nodes = (
(185,-16,o),
(258,16,o),
(316,57,c),
(317,31,o),
(322,6,o),
(329,-16,c),
(482,56,l),
(482,81,l),
(416,104,l),
(416,394,l),
(416,490,o),
(337,515,o),
(270,515,cs),
(254,515,o),
(197,491,o),
(51,410,c),
(51,318,l),
(128,338,l),
(128,400,l),
(157,415,o),
(203,434,o),
(225,433,cs),
(273,431,o),
(316,396,o),
(316,353,c),
(316,300,l),
(68,218,l),
(34,202,o),
(15,165,o),
(15,106,cs),
(15,42,o),
(74,-16,o),
(162,-16,cs)
);
},
{
closed = 1;
nodes = (
(161,60,o),
(118,95,o),
(105,125,cs),
(95,149,o),
(97,183,o),
(114,192,c),
(316,264,l),
(316,133,l),
(316,101,o),
(309,76,o),
(216,66,cs)
);
}
);
width = 517;
},
{
associatedMasterId = "A2AECE16-8029-4E4A-A860-6BA7A78BC664";
background = {
shapes = (
{
angle = 180;
pos = (522,500);
ref = _expStem;
}
);
};
layerId = "3B89C6A2-0C34-4710-A1DB-FB55BD2B87A8";
name = "Oct 1, 24 at 21:47";
shapes = (
{
closed = 1;
nodes = (
(195,-16,o),
(268,16,o),
(326,57,c),
(333,57,l),
(338,34,o),
(395,-16,o),
(425,-16,cs),
(449,-16,o),
(478,23,o),
(551,67,c),
(551,112,l),
(415,53,o),
(426,60,o),
(426,160,c),
(426,394,l),
(426,490,o),
(347,515,o),
(280,515,cs),
(264,515,o),
(207,491,o),
(61,410,c),
(61,318,l),
(138,338,l),
(138,400,l),
(167,415,o),
(213,434,o),
(235,433,cs),
(283,431,o),
(326,396,o),
(326,353,c),
(326,300,l),
(78,218,l),
(44,202,o),
(25,165,o),
(25,106,cs),
(25,42,o),
(84,-16,o),
(172,-16,cs)
);
},
{
closed = 1;
nodes = (
(171,60,o),
(128,95,o),
(115,125,cs),
(105,149,o),
(107,183,o),
(124,192,c),
(326,264,l),
(326,133,l),
(326,101,o),
(319,76,o),
(226,66,cs)
);
}
);
width = 576;
},
{
background = {
shapes = (
{
angle = 180;
pos = (812,500);
ref = _expStem;
}
);
};
guides = (
{
pos = (196,420);
}
);
layerId = "A2AECE16-8029-4E4A-A860-6BA7A78BC664";
name = "Le Expansion";
shapes = (
{
closed = 1;
nodes = (
(207,-16,o),
(262,23,o),
(344,57,c),
(351,57,l),
(356,34,o),
(411,-16,o),
(440,-16,cs),
(464,-16,o),
(492,33,o),
(563,67,c),
(563,122,l),
(431,63,o),
(441,70,o),
(441,170,c),
(441,394,l),
(441,490,o),
(364,515,o),
(299,515,cs),
(284,515,o),
(232,487,o),
(86,424,c),
(86,361,l),
(131,386,o),
(216,434,o),
(255,433,cs),
(322,431,o),
(344,396,o),
(344,353,c),
(344,316,l),
(103,219,l),
(70,203,o),
(51,165,o),
(51,106,cs),
(51,38,o),
(109,-16,o),
(194,-16,cs)
);
},
{
closed = 1;
nodes = (
(183,59,o),
(153,80,o),
(139,125,cs),
(131,149,o),
(131,183,o),
(147,192,c),
(344,274,l),
(344,133,l),
(344,101,o),
(337,76,o),
(247,66,cs)
);
}
);
width = 543;
}
);
unicode = 97;
},
{
glyphname = b;
lastChange = "2024-12-05 21:53:36 +0000";
layers = (
{
layerId = "A2AECE16-8029-4E4A-A860-6BA7A78BC664";
shapes = (
{
pos = (-5,0);
ref = _expLongStem;
},
{
closed = 1;
nodes = (
(140,366,l),
(219,405,o),
(284,433,o),
(315,433,cs),
(395,433,o),
(463,349,o),
(463,263,cs),
(463,90,o),
(368,42,o),
(322,42,cs),
(275,42,o),
(202,66,o),
(168,120,c),
(91,19,l),
(141,-1,o),
(178,-16,o),
(302,-16,cs),
(319,-16,o),
(571,51,o),
(571,274,cs),
(571,401,o),
(480,516,o),
(366,516,cs),
(342,516,o),
(269,456,o),
(191,433,c),
(140,433,l)
);
},
{
closed = 1;
nodes = (
(191,353,l),
(91,353,l),
(91,19,l),
(191,83,l)
);
}
);
width = 612;
},
{
associatedMasterId = "A2AECE16-8029-4E4A-A860-6BA7A78BC664";
layerId = "9E3097B9-5184-4CBF-A3E4-6839017F2914";
name = "Nov 7, 24 at 18:12";
shapes = (
{
closed = 1;
nodes = (
(170,366,l),
(249,405,o),
(314,433,o),
(345,433,cs),
(425,433,o),
(493,349,o),
(493,243,cs),
(493,90,o),
(398,42,o),
(342,42,cs),
(265,42,o),
(221,103,o),
(198,180,c),
(121,43,l),
(174,5,o),
(243,-16,o),
(312,-16,cs),
(411,-16,o),
(601,88,o),
(601,254,cs),
(601,401,o),
(510,516,o),
(396,516,cs),
(352,516,o),
(261,456,o),
(221,433,c),
(170,433,l)
);
},
{
pos = (25,0);
ref = _expLongStem;
},
{
closed = 1;
nodes = (
(221,353,l),
(121,353,l),
(121,43,l),
(221,103,l)
);
}
);
width = 646;
},
{
associatedMasterId = "A2AECE16-8029-4E4A-A860-6BA7A78BC664";
layerId = "73372EDE-19DA-4C62-B6C7-F7736D603605";
name = "Nov 20, 24 at 19:28";
shapes = (
{
pos = (11,0);
ref = _expLongStem;
},
{
closed = 1;
nodes = (
(156,366,l),
(235,405,o),
(300,433,o),
(331,433,cs),
(411,433,o),
(479,349,o),
(479,243,cs),
(479,90,o),
(384,42,o),
(328,42,cs),
(251,42,o),
(207,103,o),
(184,180,c),
(107,43,l),
(160,5,o),
(229,-16,o),
(298,-16,cs),
(397,-16,o),
(587,88,o),
(587,254,cs),
(587,401,o),
(496,516,o),
(382,516,cs),
(358,516,o),
(285,456,o),
(207,433,c),
(156,433,l)
);
},
{
closed = 1;
nodes = (
(207,353,l),
(107,353,l),
(107,43,l),
(207,103,l)
);
}
);
width = 632;
},
{
associatedMasterId = "A2AECE16-8029-4E4A-A860-6BA7A78BC664";
layerId = "FC7573B8-A7BB-46BD-BB33-AEC22E772F05";
name = "Nov 28, 24 at 19:28";
shapes = (
{
pos = (-5,0);
ref = _expLongStem;
},
{
closed = 1;
nodes = (
(140,366,l),
(219,405,o),
(284,433,o),
(315,433,cs),
(395,433,o),
(463,349,o),
(463,243,cs),
(463,70,o),
(368,22,o),
(322,22,cs),
(275,22,o),
(202,46,o),
(168,100,c),
(91,-1,l),
(141,-21,o),
(178,-36,o),
(302,-36,cs),
(319,-36,o),
(571,31,o),
(571,254,cs),
(571,401,o),
(480,516,o),
(366,516,cs),
(342,516,o),
(269,456,o),
(191,433,c),
(140,433,l)
);
},
{
closed = 1;
nodes = (
(191,353,l),
(91,353,l),
(91,-1,l),
(191,63,l)
);
}
);
width = 612;
}
);
metricRight = o;
unicode = 98;
},
{
glyphname = c;
lastChange = "2024-12-05 21:53:36 +0000";
layers = (
{
background = {
shapes = (
{
closed = 1;
nodes = (
(753,164,l),
(716,130,o),
(616,66,o),
(564,66,cs),
(477,66,o),
(410,158,o),
(410,279,cs),
(410,395,o),
(464,460,o),
(525,460,cs),
(612,460,o),
(643,407,o),
(653,339,c),
(522,322,o),
(451,318,o),
(371,321,c),
(385,288,l),
(669,299,l),
(764,357,l),
(753,468,o),
(657,517,o),
(554,517,cs),
(511,517,o),
(402,451,o),
(370,416,cs),
(330,372,o),
(300,314,o),
(300,247,cs),
(300,104,o),
(388,-15,o),
(517,-15,cs),
(597,-15,o),
(703,49,o),
(768,133,c)
);
}
);
};
layerId = "A2AECE16-8029-4E4A-A860-6BA7A78BC664";
shapes = (
{
closed = 1;
nodes = (
(483,428,l),
(435,499,o),
(371,515,o),
(290,517,cs),
(254,518,o),
(143,453,o),
(108,415,cs),
(70,372,o),
(41,317,o),
(41,247,cs),
(41,100,o),
(127,-15,o),
(263,-15,cs),
(360,-15,o),
(478,84,o),
(509,133,c),
(494,164,l),
(445,124,o),
(363,66,o),
(300,66,cs),
(216,66,o),
(151,165,o),
(151,279,cs),
(151,395,o),
(202,460,o),
(273,460,cs),
(321,460,o),
(370,438,o),
(385,374,c)
);
}
);
width = 519;
}
);
metricLeft = o;
unicode = 99;
},
{
glyphname = d;
lastChange = "2024-12-05 21:53:36 +0000";
layers = (
{
layerId = "A2AECE16-8029-4E4A-A860-6BA7A78BC664";
shapes = (
{
pos = (324,0);
ref = _expLongStem;
},
{
closed = 1;
nodes = (
(472,133,l),
(393,94,o),
(328,66,o),
(307,66,cs),
(217,66,o),
(149,150,o),
(149,256,cs),
(149,399,o),
(223,463,o),
(277,463,cs),
(354,463,o),
(444,390,o),
(444,251,c),
(511,388,l),
(481,477,o),
(378,515,o),
(320,515,cs),
(219,515,o),
(41,411,o),
(41,245,cs),
(41,98,o),
(152,-17,o),
(246,-17,cs),
(270,-17,o),
(381,43,o),
(421,66,c),
(472,66,l)
);
},
{
pos = (1,0);
ref = _serif.lowOutro;
}
);
width = 622;
}
);
metricLeft = o;
unicode = 100;
},
{
glyphname = e;
lastChange = "2024-12-05 21:53:36 +0000";
layers = (
{
background = {
shapes = (
{
closed = 1;
nodes = (
(763,164,l),
(726,130,o),
(626,66,o),
(574,66,cs),
(487,66,o),
(420,158,o),
(420,279,cs),
(420,395,o),
(474,460,o),
(535,460,cs),
(622,460,o),
(653,407,o),
(663,339,c),
(381,321,l),
(395,288,l),
(679,299,l),
(774,357,l),
(763,468,o),
(667,517,o),
(564,517,cs),
(491,517,o),
(310,413,o),
(310,247,cs),
(310,104,o),
(398,-15,o),
(527,-15,cs),
(607,-15,o),
(713,49,o),
(778,133,c)
);
},
{
closed = 1;
nodes = (
(763,164,l),
(726,130,o),
(626,66,o),
(574,66,cs),
(487,66,o),
(420,158,o),
(420,279,cs),
(420,395,o),
(474,460,o),
(535,460,cs),
(622,460,o),
(653,407,o),
(663,339,c),
(381,321,l),
(395,288,l),
(679,299,l),
(774,357,l),
(763,468,o),
(667,517,o),
(564,517,cs),
(491,517,o),
(310,413,o),
(310,247,cs),
(310,104,o),
(398,-15,o),
(527,-15,cs),
(607,-15,o),
(713,49,o),
(778,133,c)
);
},
{
closed = 1;
nodes = (
(763,164,l),
(726,130,o),
(626,66,o),
(574,66,cs),
(487,66,o),
(420,158,o),
(420,279,cs),
(420,395,o),
(474,460,o),
(535,460,cs),
(622,460,o),
(653,407,o),
(663,339,c),
(381,321,l),
(395,288,l),
(679,299,l),
(774,357,l),
(763,468,o),
(667,517,o),
(564,517,cs),
(491,517,o),
(310,413,o),
(310,247,cs),
(310,104,o),
(398,-15,o),
(527,-15,cs),
(607,-15,o),
(713,49,o),
(778,133,c)
);
}
);
};
layerId = "A2AECE16-8029-4E4A-A860-6BA7A78BC664";
shapes = (
{
closed = 1;
nodes = (
(494,164,l),
(457,130,o),
(357,66,o),
(305,66,cs),
(202,66,o),
(151,143,o),
(151,279,cs),
(151,395,o),
(205,460,o),
(266,460,cs),
(353,460,o),
(384,407,o),
(394,319,c),
(263,302,o),
(192,298,o),
(112,301,c),
(126,258,l),
(410,269,l),
(505,327,l),
(494,458,o),
(398,517,o),
(295,517,cs),
(262,517,o),
(143,451,o),
(111,416,cs),
(71,372,o),
(41,314,o),
(41,247,cs),
(41,104,o),
(129,-15,o),
(258,-15,cs),
(298,-15,o),
(388,10,o),
(509,133,c)
);
}
);
width = 539;
},
{
associatedMasterId = "A2AECE16-8029-4E4A-A860-6BA7A78BC664";
background = {
shapes = (
{
closed = 0;
nodes = (
(468,152,l),
(468,137,l),
(410,112,l)
);
}
);
};
layerId = "D8F519E7-2E4F-42CB-BBE2-AABD4F0825E8";
name = "Oct 1, 24 at 22:27";
shapes = (
{
closed = 1;
nodes = (
(414,114,l),
(377,80,o),
(331,66,o),
(279,66,cs),
(192,66,o),
(115,148,o),
(115,279,cs),
(115,395,o),
(169,469,o),
(230,469,cs),
(307,469,o),
(358,407,o),
(368,359,c),
(86,341,l),
(100,308,l),
(384,319,l),
(479,377,l),
(463,431,o),
(372,517,o),
(269,517,cs),
(166,517,o),
(15,393,o),
(15,237,cs),
(15,94,o),
(123,-15,o),
(252,-15,cs),
(342,-15,o),
(423,43,o),
(468,137,c),
(468,137,l)
);
}
);
width = 480;
},
{
associatedMasterId = "A2AECE16-8029-4E4A-A860-6BA7A78BC664";
background = {
shapes = (
{
closed = 1;
nodes = (
(498,164,l),
(461,130,o),
(361,66,o),
(309,66,cs),
(222,66,o),
(155,158,o),
(155,279,cs),
(155,395,o),
(209,460,o),
(270,460,cs),
(357,460,o),
(388,407,o),
(398,339,c),
(116,321,l),
(130,288,l),
(414,299,l),
(509,357,l),
(498,468,o),
(402,517,o),
(299,517,cs),
(226,517,o),
(45,413,o),
(45,247,cs),
(45,104,o),
(133,-15,o),
(262,-15,cs),
(342,-15,o),
(448,49,o),
(513,133,c)
);
},
{
closed = 1;
nodes = (
(498,164,l),
(461,130,o),
(361,66,o),
(309,66,cs),
(222,66,o),
(155,158,o),
(155,279,cs),
(155,395,o),
(209,460,o),
(270,460,cs),
(357,460,o),
(388,407,o),
(398,339,c),
(116,321,l),
(130,288,l),
(414,299,l),
(509,357,l),
(498,468,o),
(402,517,o),
(299,517,cs),
(226,517,o),
(45,413,o),
(45,247,cs),
(45,104,o),
(133,-15,o),
(262,-15,cs),
(342,-15,o),
(448,49,o),
(513,133,c)
);
},
{
closed = 1;
nodes = (
(498,164,l),
(461,130,o),
(361,66,o),
(309,66,cs),
(222,66,o),
(155,158,o),
(155,279,cs),
(155,395,o),
(209,460,o),
(270,460,cs),
(357,460,o),
(388,407,o),
(398,339,c),
(116,321,l),
(130,288,l),
(414,299,l),
(509,357,l),
(498,468,o),
(402,517,o),
(299,517,cs),
(226,517,o),
(45,413,o),
(45,247,cs),
(45,104,o),
(133,-15,o),
(262,-15,cs),
(342,-15,o),
(448,49,o),
(513,133,c)
);
}
);
};
layerId = "1BA93D34-D1ED-48BD-AA0D-153E2D391120";
name = "Nov 13, 24 at 18:07";
shapes = (
{
closed = 1;
nodes = (
(498,164,l),
(461,130,o),
(361,66,o),
(309,66,cs),
(222,66,o),
(155,158,o),
(155,279,cs),
(155,395,o),
(209,460,o),
(270,460,cs),
(357,460,o),
(388,407,o),
(398,339,c),
(267,322,o),
(196,318,o),
(116,321,c),
(130,288,l),
(414,299,l),
(509,357,l),
(498,468,o),
(402,517,o),
(299,517,cs),
(256,517,o),
(147,451,o),
(115,416,cs),
(75,372,o),
(45,314,o),
(45,247,cs),
(45,104,o),
(133,-15,o),
(262,-15,cs),
(342,-15,o),
(448,49,o),
(513,133,c)
);
}
);
width = 556;
}
);
unicode = 101;
},
{
glyphname = f;
lastChange = "2024-12-05 21:53:36 +0000";
layers = (
{
associatedMasterId = "A2AECE16-8029-4E4A-A860-6BA7A78BC664";
background = {
shapes = (
{
closed = 1;
nodes = (
(147,709,o),
(116,646,o),
(116,614,c),
(116,150,l),
(216,150,l),
(216,594,l),
(216,688,o),
(222,714,o),
(306,769,c),
(297,795,l)
);
},
{
closed = 1;
nodes = (
(263,284,o),
(336,316,o),
(394,357,c),
(401,357,l),
(406,334,o),
(463,284,o),
(493,284,cs),
(517,284,o),
(546,323,o),
(619,367,c),
(619,412,l),
(483,353,o),
(494,360,o),
(494,460,c),
(494,694,l),
(494,790,o),
(415,815,o),
(348,815,cs),
(332,815,o),
(279,780,o),
(129,707,c),
(129,671,l),
(175,696,o),
(262,735,o),
(303,733,cs),
(351,731,o),
(394,696,o),
(394,653,c),
(394,610,l),
(146,518,l),
(112,502,o),
(93,465,o),
(93,406,cs),
(93,342,o),
(152,284,o),
(240,284,cs)
);
},
{
closed = 1;
nodes = (
(239,360,o),
(196,395,o),
(183,425,cs),
(173,449,o),
(175,483,o),
(192,492,c),
(394,574,l),
(394,433,l),
(394,401,o),
(387,376,o),
(294,366,cs)
);
}
);
};
hints = (
{
name = _corner.leftSerif;
options = 1;
origin = (0,3);
scale = (-1,1);
type = Corner;
},
{
name = _corner.leftSerif;
options = 2;
origin = (0,2);
type = Corner;
}
);
layerId = "F287F741-AC56-4206-BE3E-8B5695B38B62";
name = "Oct 1, 24 at 21:55";
shapes = (
{
closed = 1;
nodes = (
(301,460,l),
(216,460,l),
(216,0,l),
(116,0,l),
(116,460,l),
(36,460,l),
(36,477,l),
(116,500,l),
(116,684,l),
(145,736,o),
(250,816,o),
(317,816,cs),
(416,816,o),
(460,769,o),
(493,710,c),
(397,660,l),
(370,712,o),
(357,772,o),
(290,772,cs),
(264,772,o),
(216,720,o),
(216,684,cs),
(216,500,l),
(359,500,l),
(359,485,l)
);
}
);
width = 443;
},
{
layerId = "A2AECE16-8029-4E4A-A860-6BA7A78BC664";
name = "Le Expansion";
shapes = (
{
closed = 1;
nodes = (
(363,814,o),
(323,816,o),
(303,816,c),
(278,816,o),
(112,711,o),
(112,604,c),
(112,500,l),
(32,477,l),
(32,440,l),
(112,440,l),
(112,0,l),
(212,0,l),
(212,440,l),
(304,440,l),
(355,485,l),
(355,500,l),
(212,500,l),
(212,644,ls),
(212,719,o),
(253,752,o),
(276,753,cs),
(345,757,o),
(333,740,o),
(333,680,c),
(391,670,l),
(382,718,o),
(388,773,o),
(407,812,c)
);
},
{
pos = (-314,0);
ref = _dblBotSerif;
}
);
width = 365;
},
{
associatedMasterId = "A2AECE16-8029-4E4A-A860-6BA7A78BC664";
hints = (
{
name = _corner.leftSerif;
options = 1;
origin = (0,13);
scale = (-1,1);
type = Corner;
},
{
name = _corner.rightSerif;
origin = (0,12);
type = Corner;
}
);
layerId = "962168A6-F51F-42A7-A9E4-C9B58A19F475";
name = "Nov 7, 24 at 22:05";
shapes = (
{
closed = 1;
nodes = (
(387,730,l),
(377,755,o),
(357,772,o),
(319,772,cs),
(292,772,o),
(215,703,o),
(215,604,cs),
(215,500,l),
(358,500,l),
(358,485,l),
(307,450,l),
(215,450,l),
(215,0,l),
(115,0,l),
(115,450,l),
(35,450,l),
(35,477,l),
(115,500,l),
(115,604,l),
(115,701,o),
(291,816,o),
(346,816,cs),
(422,816,o),
(461,802,o),
(479,777,c)
);
}
);
width = 329;
},
{
associatedMasterId = "A2AECE16-8029-4E4A-A860-6BA7A78BC664";
background = {
shapes = (
{
closed = 1;
nodes = (
(146,710,o),
(115,647,o),
(115,615,c),
(115,151,l),
(215,151,l),
(215,595,l),
(215,689,o),
(221,715,o),
(305,770,c),
(296,796,l)
);
},
{
closed = 1;
nodes = (
(115,331,l),
(115,44,l),
(115,1,o),
(120,-20,o),
(121,-39,c),
(182,-9,o),
(230,14,o),
(281,33,c),
(276,58,l),
(256,63,o),
(235,71,o),
(218,79,c),
(213,97,o),
(215,114,o),
(215,130,c),
(215,331,l)
);
}
);
};
hints = (
{
name = _corner.rightSerif;
origin = (1,12);
type = Corner;
},
{
name = _corner.leftSerif;
options = 1;
origin = (1,13);
scale = (-1,1);
type = Corner;
}
);
layerId = "2ADF372E-844F-4756-8867-10B016C38CEF";
name = "Nov 7, 24 at 23:16";
shapes = (
{
closed = 1;
nodes = (
(379,704,l),
(371,700,l)
);
},
{
closed = 1;
nodes = (
(371,700,l),
(343,737,o),
(314,749,o),
(297,749,cs),
(274,749,o),
(215,719,o),
(215,644,cs),
(215,500,l),
(358,500,l),
(358,485,l),
(307,440,l),
(215,440,l),
(215,0,l),
(115,0,l),
(115,440,l),
(35,440,l),
(35,477,l),
(115,500,l),
(115,604,l),
(115,711,o),
(281,816,o),
(306,816,c),
(326,816,o),
(360,808,o),
(379,788,c),
(379,704,l)
);
}
);
width = 379;
}
);
unicode = 102;
},
{
glyphname = g;
lastChange = "2024-12-05 21:53:36 +0000";
layers = (
{
associatedMasterId = "A2AECE16-8029-4E4A-A860-6BA7A78BC664";
layerId = "74108974-C32A-4897-9B92-838195F0180D";
name = "Sep 30, 24 at 20:10";
shapes = (
{
closed = 1;
nodes = (
(286,-314,o),
(365,-284,o),
(415,-240,cs),
(483,-180,o),
(503,-121,o),
(503,-78,cs),
(503,3,o),
(447,66,o),
(376,66,cs),
(292,66,o),
(259,44,o),
(212,44,cs),
(178,44,o),
(161,57,o),
(159,95,cs),
(157,133,o),
(202,160,o),
(224,192,c),
(181,198,l),
(104,143,o),
(73,129,o),
(73,61,cs),
(73,25,o),
(100,-8,o),
(128,-22,cs),
(156,-36,o),
(182,-47,o),
(221,-47,cs),
(260,-47,o),
(323,-25,o),
(368,-25,cs),
(413,-25,o),
(441,-30,o),
(441,-61,cs),
(441,-101,o),
(421,-153,o),
(395,-178,cs),
(352,-220,o),
(283,-241,o),
(203,-219,cs),
(159,-207,o),
(141,-174,o),
(141,-128,cs),
(141,-101,o),
(160,-59,o),
(187,-39,c),
(152,-9,l),
(110,-37,o),
(41,-115,o),
(41,-190,cs),
(41,-259,o),
(114,-314,o),
(206,-314,cs)
);
},
{
closed = 1;
nodes = (
(459,228,o),
(482,347,o),
(426,432,cs),
(366,524,o),
(252,547,o),
(163,489,cs),
(71,429,o),
(48,310,o),
(104,223,cs),
(164,132,o),
(279,111,o),
(370,171,cs)
);
},
{
closed = 1;
nodes = (
(285,171,o),
(212,205,o),
(172,277,cs),
(132,350,o),
(142,429,o),
(194,458,cs),
(245,487,o),
(317,453,o),
(357,380,cs),
(397,308,o),
(389,229,o),
(336,200,cs)
);
},
{
closed = 1;
nodes = (
(574,475,l),
(539,558,l),
(381,465,l),
(395,438,l)
);
}
);
width = 600;
},
{
associatedMasterId = "A2AECE16-8029-4E4A-A860-6BA7A78BC664";
layerId = "298DD042-ACC2-45D1-BF97-95CA5E1CBA14";
name = "Sep 30, 24 at 22:56";
shapes = (
{
closed = 1;
nodes = (
(286,-314,o),
(365,-286,o),
(415,-242,cs),
(483,-182,o),
(503,-121,o),
(503,-78,cs),
(503,3,o),
(447,66,o),
(376,66,cs),
(292,66,o),
(259,44,o),
(212,44,cs),
(178,44,o),
(161,57,o),
(159,95,cs),
(157,133,o),
(202,160,o),
(224,192,c),
(181,198,l),
(104,143,o),
(73,129,o),
(73,61,cs),
(73,25,o),
(100,-8,o),
(128,-22,cs),
(156,-36,o),
(182,-47,o),
(221,-47,cs),
(260,-47,o),
(323,-25,o),
(368,-25,cs),
(413,-25,o),
(441,-60,o),
(441,-91,cs),
(441,-131,o),
(440,-161,o),
(400,-194,cs),
(359,-228,o),
(283,-241,o),
(203,-219,cs),
(159,-207,o),
(140,-174,o),
(140,-128,cs),
(140,-101,o),
(159,-59,o),
(186,-39,c),
(152,-9,l),
(110,-37,o),
(41,-115,o),
(41,-190,cs),
(41,-259,o),
(114,-314,o),
(206,-314,cs)
);
},
{
closed = 1;
nodes = (
(459,228,o),
(482,347,o),
(426,432,cs),
(366,524,o),
(252,547,o),
(163,489,cs),
(71,429,o),
(48,310,o),
(104,223,cs),
(164,132,o),
(279,111,o),
(370,171,cs)
);
},
{
closed = 1;
nodes = (
(285,171,o),
(211,205,o),
(171,277,cs),
(131,350,o),
(141,429,o),
(194,458,cs),
(245,487,o),
(317,452,o),
(357,380,cs),
(397,308,o),
(388,229,o),
(336,200,cs)
);
},
{
closed = 1;
nodes = (
(544,475,l),
(509,558,l),
(351,465,l),
(365,438,l)
);
}
);
width = 600;
},
{
background = {
shapes = (
{
closed = 1;
nodes = (
(496,506,o),
(431,470,o),
(383,412,cs),
(361,386,o),
(349,348,o),
(349,308,cs),
(349,196,o),
(429,112,o),
(542,112,cs),
(581,112,o),
(642,143,o),
(698,204,cs),
(720,229,o),
(732,277,o),
(732,323,cs),
(732,423,o),
(672,506,o),
(542,506,cs)
);
},
{
closed = 1;
nodes = (
(586,465,o),
(650,383,o),
(652,308,cs),
(653,215,o),
(627,159,o),
(566,158,cs),
(504,157,o),
(431,234,o),
(430,321,cs),
(429,408,o),
(461,463,o),
(525,464,cs)
);
}
);
};
layerId = "A2AECE16-8029-4E4A-A860-6BA7A78BC664";
name = "Le Expansion";
shapes = (
{
closed = 1;
nodes = (
(298,-314,o),
(386,-284,o),
(461,-225,cs),
(498,-195,o),
(527,-128,o),
(527,-58,cs),
(527,-15,o),
(503,46,o),
(386,46,cs),
(339,46,o),
(143,20,o),
(140,79,cs),
(131,94,o),
(192,128,o),
(227,162,c),
(169,169,l),
(110,110,o),
(50,84,o),
(51,61,cs),
(53,26,o),
(93,-8,o),
(124,-22,cs),
(186,-51,o),
(269,-45,o),
(333,-45,cs),
(405,-45,o),
(459,-71,o),
(459,-102,cs),
(459,-142,o),
(449,-169,o),
(419,-194,cs),
(372,-236,o),
(284,-251,o),
(207,-229,cs),
(150,-213,o),
(133,-167,o),
(133,-127,cs),
(133,-100,o),
(159,-53,o),
(189,-33,c),
(150,-9,l),
(104,-37,o),
(28,-115,o),
(28,-140,cs),
(28,-259,o),
(109,-314,o),
(210,-314,cs)
);
},
{
closed = 1;
nodes = (
(554,478,l),
(515,560,l),
(371,484,l),
(355,428,l)
);
},
{
closed = 1;
nodes = (
(214,511,o),
(147,475,o),
(102,423,cs),
(65,380,o),
(53,350,o),
(53,310,cs),
(53,195,o),
(146,110,o),
(263,110,cs),
(304,110,o),
(377,155,o),
(412,189,cs),
(452,228,o),
(470,279,o),
(470,326,cs),
(470,441,o),
(379,511,o),
(263,511,cs)
);
},
{
closed = 1;
nodes = (
(301,466,o),
(370,385,o),
(373,310,cs),
(376,217,o),
(350,161,o),
(287,158,cs),
(223,156,o),
(145,232,o),
(143,319,cs),
(140,406,o),
(172,462,o),
(238,464,cs)
);
}
);
width = 564;
},
{
associatedMasterId = "A2AECE16-8029-4E4A-A860-6BA7A78BC664";
background = {
shapes = (
{
closed = 1;
nodes = (
(231,506,o),
(166,470,o),
(118,412,cs),
(96,386,o),
(84,348,o),
(84,308,cs),
(84,196,o),
(164,112,o),
(277,112,cs),
(316,112,o),
(377,143,o),
(433,204,cs),
(455,229,o),
(467,277,o),
(467,323,cs),
(467,423,o),
(407,506,o),
(277,506,cs)
);
},
{
closed = 1;
nodes = (
(321,465,o),
(385,383,o),
(387,308,cs),
(388,215,o),
(362,159,o),
(301,158,cs),
(239,157,o),
(166,234,o),
(165,321,cs),
(164,408,o),
(196,463,o),
(260,464,cs)
);
}
);
};
layerId = "9422E44E-8641-4D75-90F5-21DE90F5869A";
name = "Nov 7, 24 at 22:06";
shapes = (
{
closed = 1;
nodes = (
(315,-314,o),
(403,-284,o),
(478,-225,cs),
(515,-195,o),
(544,-138,o),
(544,-68,cs),
(544,-25,o),
(520,26,o),
(403,26,cs),
(356,26,o),
(170,20,o),
(167,79,cs),
(158,94,o),
(219,128,o),
(254,162,c),
(196,169,l),
(137,110,o),
(77,84,o),
(78,61,cs),
(80,26,o),
(110,-8,o),
(141,-22,cs),
(203,-51,o),
(286,-55,o),
(350,-55,cs),
(422,-55,o),
(476,-81,o),
(476,-112,cs),
(476,-152,o),
(466,-169,o),
(436,-194,cs),
(389,-236,o),
(301,-251,o),
(224,-229,cs),
(167,-213,o),
(150,-167,o),
(150,-127,cs),
(150,-100,o),
(176,-53,o),
(206,-33,c),
(167,-9,l),
(121,-37,o),
(45,-115,o),
(45,-140,cs),
(45,-259,o),
(126,-314,o),
(227,-314,cs)
);
},
{
closed = 1;
nodes = (
(571,478,l),
(532,560,l),
(388,484,l),
(372,428,l)
);
},
{
closed = 1;
nodes = (
(231,511,o),
(164,475,o),
(119,423,cs),
(90,390,o),
(70,350,o),
(70,310,cs),
(70,195,o),
(163,110,o),
(280,110,cs),
(321,110,o),
(386,142,o),
(429,189,cs),
(469,228,o),
(487,279,o),
(487,326,cs),
(487,441,o),
(396,511,o),
(280,511,cs)
);
},
{
closed = 1;
nodes = (
(321,465,o),
(388,383,o),
(390,308,cs),
(391,215,o),
(364,159,o),
(301,158,cs),
(237,157,o),
(161,234,o),
(160,321,cs),
(159,408,o),
(192,463,o),
(258,464,cs)
);
}
);
width = 587;
}
);
unicode = 103;
},
{
glyphname = h;
lastChange = "2024-12-05 21:53:36 +0000";
layers = (
{
layerId = "A2AECE16-8029-4E4A-A860-6BA7A78BC664";
shapes = (
{
closed = 1;
nodes = (
(102,504,l),
(102,0,l),
(202,0,l),
(202,504,l)
);
},
{
pos = (6,0);
ref = _expLongStem;
},
{
pos = (3,0);
ref = _shoulder;
},
{
pos = (-324,0);
ref = _dblBotSerif;
}
);
width = 629;
}
);
metricLeft = n;
metricRight = n;
unicode = 104;
},
{
glyphname = i;
lastChange = "2024-12-05 21:53:36 +0000";
layers = (
{
background = {
shapes = (
{
closed = 0;
nodes = (
(240,692,l),
(340,741,l)
);
}
);
};
layerId = "A2AECE16-8029-4E4A-A860-6BA7A78BC664";
shapes = (
{
closed = 1;
nodes = (
(112,224,l),
(112,10,l),
(212,10,l),
(212,224,l)
);
},
{
angle = -4.1;
pos = (-44,14);
ref = dotaccentcomb;
},
{
pos = (16,-300);
ref = _expLongStem;
},
{
pos = (-314,0);
ref = _dblBotSerif;
}
);
width = 314;
}
);
unicode = 105;
},
{
glyphname = j;
lastChange = "2024-12-05 21:53:36 +0000";
layers = (
{
guides = (
{
angle = -72.5;
pos = (19,-196);
},
{
angle = 90;
pos = (46,444);
}
);
layerId = "A2AECE16-8029-4E4A-A860-6BA7A78BC664";
shapes = (
{
closed = 1;
nodes = (
(181,-233,o),
(212,-170,o),
(212,-138,c),
(212,326,l),
(112,326,l),
(112,-118,l),
(112,-212,o),
(106,-238,o),
(22,-293,c),
(31,-319,l)
);
},
{
pos = (14,0);
ref = dotaccentcomb;
},
{
pos = (16,-300);
ref = _expLongStem;
}
);
width = 303;
}
);
unicode = 106;
},
{
glyphname = k;
lastChange = "2024-12-05 21:53:36 +0000";
layers = (
{
associatedMasterId = "A2AECE16-8029-4E4A-A860-6BA7A78BC664";
hints = (
{
name = _corner.leftSerif;
origin = (1,1);
type = Corner;
},
{
name = _corner.rightSerif;
options = 1;
origin = (1,2);
scale = (-1,1);
type = Corner;
}
);
layerId = "F5FFF43A-78BC-476C-AA03-AE606E04B755";
name = "Sep 30, 24 at 23:24";
shapes = (
{
pos = (20,0);
ref = _expLongStem;
},
{
closed = 1;
nodes = (
(116,504,l),
(116,0,l),
(216,0,l),
(216,504,l)
);
},
{
closed = 1;
nodes = (
(555,500,l),
(317,303,l),
(330,272,o),
(379,209,o),
(428,164,cs),
(474,121,o),
(564,74,o),
(628,56,c),
(558,-13,l),
(487,4,o),
(391,60,o),
(324,130,cs),
(278,179,o),
(233,253,o),
(231,284,c),
(435,452,l),
(384,491,l),
(384,500,l)
);
}
);
width = 633;
},
{
associatedMasterId = "A2AECE16-8029-4E4A-A860-6BA7A78BC664";
hints = (
{
name = _corner.leftSerif;
origin = (1,1);
type = Corner;
},
{
name = _corner.leftSerif;
options = 1;
origin = (1,2);
scale = (-1,1);
type = Corner;
}
);
layerId = "41CE96CF-D8ED-4FA1-8A5A-1CD9A59A1AD7";
name = "Oct 2, 24 at 00:23";
shapes = (
{
ref = _expLongStem;
},
{
closed = 1;
nodes = (
(96,504,l),
(96,0,l),
(196,0,l),
(196,504,l)
);
},
{
closed = 1;
nodes = (
(535,500,l),
(305,311,l),
(318,280,o),
(367,217,o),
(416,172,cs),
(462,129,o),
(552,82,o),
(616,54,c),
(538,-13,l),
(467,4,o),
(371,60,o),
(304,130,cs),
(258,179,o),
(213,253,o),
(211,284,c),
(415,452,l),
(364,491,l),
(364,500,l)
);
}
);
width = 613;
},
{
associatedMasterId = "A2AECE16-8029-4E4A-A860-6BA7A78BC664";
hints = (
{
name = _corner.leftSerif;
origin = (1,3);
type = Corner;
},
{
name = _corner.rightSerif;
options = 1;
origin = (1,0);
scale = (-1,1);
type = Corner;
}
);
layerId = "CE05F781-F49C-4D2B-8B38-08099EF74CFD";
name = "Nov 8, 24 at 10:07";
shapes = (
{
closed = 1;
nodes = (
(645,54,l),
(516,118,o),
(375,256,o),
(334,311,c),
(564,500,l),
(499,500,l),
(240,284,l),
(305,183,o),
(425,75,o),
(567,-13,c)
);
},
{
closed = 1;
nodes = (
(225,0,l),
(225,504,l),
(125,504,l),
(125,0,l)
);
},
{
pos = (29,0);
ref = _expLongStem;
},
{
closed = 1;
nodes = (
(571,485,l),
(568,500,l),
(391,500,l),
(393,480,l),
(486,450,l),
(499,449,l)
);
}
);
width = 655;
},
{
background = {
shapes = (
{
closed = 1;
nodes = (
(965,29,l),
(911,43,o),
(873,79,o),
(827,129,c),
(735,254,o),
(592,403,o),
(535,518,c),
(503,493,o),
(427,494,o),
(363,518,c),
(353,481,l),
(449,451,o),
(469,425,o),
(525,346,cs),
(616,223,o),
(747,81,o),
(801,-16,c),
(825,4,o),
(914,7,o),
(944,-16,c)
);
}
);
};
layerId = "A2AECE16-8029-4E4A-A860-6BA7A78BC664";
name = "Le display";
shapes = (
{
pos = (16,0);
ref = _expLongStem;
},
{
closed = 1;
nodes = (
(547,-3,o),
(589,-4,o),
(629,-16,c),
(652,30,l),
(580,56,o),
(518,105,o),
(343,293,c),
(536,478,l),
(472,478,l),
(227,264,l),
(345,166,o),
(401,104,o),
(484,-16,c)
);
},
{
closed = 1;
nodes = (
(212,10,l),
(212,504,l),
(112,504,l),
(112,10,l)
);
},
{
closed = 1;
nodes = (
(501,450,o),
(530,466,o),
(558,474,c),
(565,516,l),
(499,504,o),
(437,504,o),
(378,516,c),
(370,474,l),
(412,463,o),
(435,447,o),
(453,429,c),
(468,428,l)
);
},
{
closed = 1;
nodes = (
(112,132,l),
(112,92,o),
(105,77,o),
(100,67,c),
(85,49,o),
(61,35,o),
(36,29,c),
(26,-16,l),
(121,5,o),
(203,4,o),
(286,-16,c),
(294,19,l),
(256,29,o),
(225,47,o),
(211,67,c),
(213,89,o),
(212,110,o),
(212,132,c)
);
}
);
width = 652;
},
{
associatedMasterId = "A2AECE16-8029-4E4A-A860-6BA7A78BC664";
hints = (
{
name = _corner.leftSerif;
origin = (1,3);
type = Corner;
},
{
name = _corner.rightSerif;
options = 1;
origin = (1,0);
scale = (-1,1);
type = Corner;
}
);
layerId = "3E8FEDA7-A44E-41D8-A174-A4DDE209E82E";
name = "Nov 8, 24 at 10:30";
shapes = (
{
closed = 1;
nodes = (
(595,54,l),
(491,145,o),
(420,216,o),
(340,311,c),
(559,478,l),
(495,478,l),
(240,284,l),
(334,175,o),
(404,100,o),
(517,-13,c)
);
},
{
closed = 1;
nodes = (
(225,0,l),
(225,504,l),
(125,504,l),
(125,0,l)
);
},
{
pos = (29,0);
ref = _expLongStem;
},
{
closed = 1;
nodes = (
(524,450,o),
(553,466,o),
(581,474,c),
(588,500,l),
(526,496,o),
(463,496,o),
(401,500,c),
(393,474,l),
(435,463,o),
(458,447,o),
(476,429,c),
(491,428,l)
);
}
);
width = 630;
},
{
associatedMasterId = "A2AECE16-8029-4E4A-A860-6BA7A78BC664";
layerId = "CCD373CB-9D72-4154-B0AC-9B1AED8B9E76";
name = "Nov 20, 24 at 20:02";
shapes = (
{
pos = (29,0);
ref = _expLongStem;
},
{
closed = 1;
nodes = (
(550,7,o),
(618,3,o),
(688,-19,c),
(655,30,l),
(580,47,o),
(501,117,o),
(340,311,c),
(559,478,l),
(495,478,l),
(240,284,l),
(346,180,o),
(414,104,o),
(487,-16,c)
);
},
{
closed = 1;
nodes = (
(225,10,l),
(225,504,l),
(125,504,l),
(125,10,l)
);
},
{
closed = 1;
nodes = (
(524,450,o),
(553,466,o),
(581,474,c),
(588,516,l),
(522,494,o),
(460,494,o),
(401,516,c),
(393,474,l),
(435,463,o),
(458,447,o),
(476,429,c),
(491,428,l)
);
},
{
pos = (-301,0);
ref = _dblBotSerif;
}
);
width = 693;
}
);
metricLeft = h;
unicode = 107;
},
{
glyphname = l;
lastChange = "2024-12-05 21:53:36 +0000";
layers = (
{
layerId = "A2AECE16-8029-4E4A-A860-6BA7A78BC664";
shapes = (
{
pos = (6,0);
ref = _expLongStem;
},
{
closed = 1;
nodes = (
(102,504,l),
(102,0,l),
(202,0,l),
(202,504,l)
);
},
{
pos = (-324,0);
ref = _dblBotSerif;
}
);
width = 304;
}
);
metricLeft = i;
metricRight = i;
unicode = 108;
},
{
glyphname = m;
lastChange = "2024-12-05 21:53:36 +0000";
layers = (
{
guides = (
{
angle = 90;
pos = (540,205);
}
);
layerId = "A2AECE16-8029-4E4A-A860-6BA7A78BC664";
shapes = (
{
closed = 1;
nodes = (
(112,224,l),
(112,20,l),
(145,21,o),
(179,21,o),
(212,20,c),
(212,224,l)
);
},
{
pos = (16,0);
ref = _expStem;
},
{
pos = (8,0);
ref = _shoulder;
},
{
pos = (323,0);
ref = _shoulder;
},
{
pos = (-314,0);
ref = _dblBotSerif;
}
);
width = 949;
}
);
metricLeft = n;
metricRight = n;
unicode = 109;
},
{
glyphname = n;
lastChange = "2024-12-05 21:53:36 +0000";
layers = (
{
guides = (
{
pos = (212,0);
}
);
layerId = "A2AECE16-8029-4E4A-A860-6BA7A78BC664";
shapes = (
{
closed = 1;
nodes = (
(112,224,l),
(112,20,l),
(212,20,l),
(212,224,l)
);
},
{
pos = (16,0);
ref = _expStem;
},
{
pos = (13,0);
ref = _shoulder;
},
{
pos = (-314,0);
ref = _dblBotSerif;
}
);
width = 639;
},
{
associatedMasterId = "A2AECE16-8029-4E4A-A860-6BA7A78BC664";
hints = (
{
name = _corner.leftSerif;
origin = (0,6);
type = Corner;
},
{
name = _corner.leftSerif;
options = 2;
origin = (0,7);
scale = (-1,1);
type = Corner;
},
{
name = _corner.leftSerif;
origin = (1,1);
type = Corner;
},
{
name = _corner.leftSerif;
options = 2;
origin = (1,2);
scale = (-1,1);
type = Corner;
}
);
layerId = "11D45582-0FC8-4B92-9017-934D6F2C0597";
name = "Sep 27, 24 at 23:51";
shapes = (
{
closed = 1;
nodes = (
(241,391,o),
(318,433,o),
(376,433,cs),
(424,433,o),
(444,400,o),
(444,354,c),
(444,0,l),
(544,0,l),
(544,409,ls),
(544,458,o),
(517,516,o),
(435,516,cs),
(372,516,o),
(298,483,o),
(229,433,c),
(178,433,l),
(178,366,l)
);
},
{
closed = 1;
nodes = (
(116,224,l),
(116,0,l),
(216,0,l),
(216,224,l)
);
},
{
pos = (20,0);
ref = _expStem;
}
);
width = 650;
},
{
associatedMasterId = "A2AECE16-8029-4E4A-A860-6BA7A78BC664";
hints = (
{
name = _corner.leftSerif;
origin = (0,6);
type = Corner;
},
{
name = _corner.leftSerif;
origin = (1,1);
type = Corner;
},
{
name = _corner.rightSerif;
options = 1;
origin = (1,2);
scale = (-1,1);
type = Corner;
},
{
name = _corner.rightSerif;
options = 1;
origin = (0,7);
scale = (-1,1);
type = Corner;
}
);
layerId = "A1CE70E2-016F-480B-BAE9-DA2F10DD1A32";
name = "Sep 30, 24 at 20:14";
shapes = (
{
closed = 1;
nodes = (
(241,391,o),
(288,433,o),
(346,433,cs),
(394,433,o),
(444,400,o),
(444,294,c),
(444,0,l),
(544,0,l),
(544,349,ls),
(544,458,o),
(487,516,o),
(405,516,cs),
(342,516,o),
(298,483,o),
(229,433,c),
(178,433,l),
(178,366,l)
);
},
{
closed = 1;
nodes = (
(116,224,l),
(116,0,l),
(216,0,l),
(216,224,l)
);
},
{
pos = (20,0);
ref = _expStem;
}
);
width = 650;
}
);
unicode = 110;
},
{
glyphname = o;
lastChange = "2024-12-05 21:53:36 +0000";
layers = (
{
associatedMasterId = "A2AECE16-8029-4E4A-A860-6BA7A78BC664";
layerId = "40FBC14E-C810-4C24-A5A3-9C418CD0B116";
name = "Nov 7, 24 at 23:36";
shapes = (
{
closed = 1;
nodes = (
(245,507,o),
(161,452,o),
(90,389,c),
(61,355,o),
(45,303,o),
(45,250,cs),
(45,98,o),
(153,-14,o),
(304,-14,c),
(350,-8,o),
(431,36,o),
(513,110,c),
(543,143,o),
(559,208,o),
(559,270,cs),
(559,403,o),
(479,516,o),
(303,516,c)
);
},
{
closed = 1;
nodes = (
(363,461,o),
(449,350,o),
(451,249,cs),
(453,124,o),
(419,50,o),
(336,49,cs),
(253,47,o),
(156,151,o),
(154,267,cs),
(152,383,o),
(196,458,o),
(281,460,cs)
);
}
);
width = 604;
},
{
associatedMasterId = "A2AECE16-8029-4E4A-A860-6BA7A78BC664";
layerId = "7A4B3A9E-9B3A-485C-9E5F-646208802225";
name = "Nov 7, 24 at 23:36";
shapes = (
{
closed = 1;
nodes = (
(245,507,o),
(161,452,o),
(90,389,c),
(61,355,o),
(45,303,o),
(45,250,cs),
(45,98,o),
(153,-14,o),
(304,-14,c),
(350,-8,o),
(431,36,o),
(513,110,c),
(543,143,o),
(559,208,o),
(559,270,cs),
(559,403,o),
(479,516,o),
(303,516,c)
);
},
{
closed = 1;
nodes = (
(363,461,o),
(449,350,o),
(451,249,cs),
(453,124,o),
(419,50,o),
(336,49,cs),
(253,47,o),
(156,151,o),
(154,267,cs),
(152,383,o),
(196,458,o),
(281,460,cs)
);
}
);
width = 604;
},
{
layerId = "A2AECE16-8029-4E4A-A860-6BA7A78BC664";
name = "Le display";
shapes = (
{
closed = 1;
nodes = (
(258,516,o),
(152,467,o),
(86,389,cs),
(57,355,o),
(41,303,o),
(41,250,cs),
(41,98,o),
(149,-14,o),
(300,-14,cs),
(332,-14,o),
(435,28,o),
(509,110,cs),
(539,143,o),
(555,208,o),
(555,270,cs),
(555,403,o),
(475,516,o),
(299,516,cs)
);
},
{
closed = 1;
nodes = (
(359,463,o),
(445,352,o),
(447,251,cs),
(449,126,o),
(415,52,o),
(332,51,cs),
(249,49,o),
(152,153,o),
(150,269,cs),
(148,385,o),
(192,460,o),
(277,462,cs)
);
}
);
width = 596;
}
);
unicode = 111;
},
{
glyphname = p;
lastChange = "2024-12-05 21:53:36 +0000";
layers = (
{
background = {
shapes = (
{
closed = 1;
nodes = (
(580,516,o),
(494,467,o),
(428,389,cs),
(399,355,o),
(383,303,o),
(383,250,cs),
(383,98,o),
(491,-14,o),
(642,-14,cs),
(694,-14,o),
(777,28,o),
(851,110,cs),
(881,143,o),
(897,208,o),
(897,270,cs),
(897,403,o),
(817,516,o),
(641,516,cs)
);
},
{
closed = 1;
nodes = (
(701,463,o),
(787,352,o),
(789,251,cs),
(791,126,o),
(757,52,o),
(674,51,cs),
(591,49,o),
(494,153,o),
(492,269,cs),
(490,385,o),
(534,460,o),
(619,462,cs)
);
}
);
};
layerId = "A2AECE16-8029-4E4A-A860-6BA7A78BC664";
shapes = (
{
closed = 1;
nodes = (
(151,366,l),
(230,405,o),
(296,434,o),
(327,434,cs),
(407,434,o),
(473,349,o),
(473,213,cs),
(473,107,o),
(432,41,o),
(347,41,cs),
(270,41,o),
(188,109,o),
(179,202,c),
(112,91,l),
(150,14,o),
(235,-16,o),
(333,-16,cs),
(412,-16,o),
(582,88,o),
(582,254,cs),
(582,401,o),
(491,516,o),
(377,516,cs),
(349,516,o),
(288,466,o),
(198,433,c),
(151,433,l)
);
},
{
closed = 1;
nodes = (
(102,206,l),
(102,-248,l),
(202,-248,l),
(202,206,l)
);
},
{
pos = (6,0);
ref = _expStem;
},
{
pos = (-324,-300);
ref = _dblBotSerif;
}
);
width = 623;
},
{
associatedMasterId = "A2AECE16-8029-4E4A-A860-6BA7A78BC664";
background = {
shapes = (
{
closed = 1;
nodes = (
(276,515,o),
(190,466,o),
(131,398,cs),
(93,353,o),
(77,300,o),
(77,247,cs),
(77,93,o),
(187,-20,o),
(339,-20,cs),
(392,-20,o),
(475,23,o),
(532,85,cs),
(581,138,o),
(597,204,o),
(597,267,cs),
(597,421,o),
(489,515,o),
(338,515,cs)
);
},
{
closed = 1;
nodes = (
(392,456,o),
(486,342,o),
(486,230,cs),
(486,113,o),
(450,40,o),
(367,40,cs),
(282,40,o),
(187,147,o),
(187,264,cs),
(187,381,o),
(223,456,o),
(309,456,cs)
);
}
);
};
hints = (
{
name = _corner.leftSerif;
origin = (1,1);
type = Corner;
},
{
name = _corner.rightSerif;
options = 1;
origin = (1,2);
scale = (1,-1);
type = Corner;
}
);
layerId = "0D5300D6-B21B-4AB4-894E-31DD28ABF415";
name = "Nov 7, 24 at 18:19";
shapes = (
{
closed = 1;
nodes = (
(164,376,l),
(243,415,o),
(309,434,o),
(340,434,cs),
(420,434,o),
(486,349,o),
(486,213,cs),
(486,107,o),
(445,41,o),
(360,41,cs),
(283,41,o),
(201,109,o),
(192,202,c),
(125,91,l),
(163,14,o),
(248,-16,o),
(346,-16,cs),
(425,-16,o),
(595,88,o),
(595,254,cs),
(595,401,o),
(504,516,o),
(390,516,cs),
(342,516,o),
(255,466,o),
(215,443,c),
(164,443,l)
);
},
{
closed = 1;
nodes = (
(115,206,l),
(115,-298,l),
(215,-298,l),
(215,206,l)
);
},
{
pos = (19,0);
ref = _expStem;
}
);
width = 640;
}
);
metricRight = o;
unicode = 112;
},
{
glyphname = q;
lastChange = "2024-12-05 21:53:36 +0000";
layers = (
{
layerId = "A2AECE16-8029-4E4A-A860-6BA7A78BC664";
shapes = (
{
closed = 1;
nodes = (
(432,483,o),
(360,516,o),
(311,516,cs),
(206,516,o),
(41,405,o),
(41,253,cs),
(41,98,o),
(126,-15,o),
(243,-15,cs),
(281,-15,o),
(380,79,o),
(462,65,c),
(450,125,l),
(384,88,o),
(328,66,o),
(294,66,cs),
(221,66,o),
(146,137,o),
(146,293,cs),
(146,396,o),
(211,464,o),
(281,464,cs),
(380,464,o),
(427,364,o),
(427,342,c),
(473,441,l)
);
},
{
closed = 1;
nodes = (
(453,-299,o),
(487,-299,o),
(520,-300,c),
(520,532,l),
(487,509,o),
(453,482,o),
(420,479,c),
(420,454,l),
(420,-300,l)
);
},
{
pos = (-6,-300);
ref = _dblBotSerif;
}
);
width = 611;
}
);
metricLeft = o;
unicode = 113;
},
{
glyphname = r;
lastChange = "2024-12-05 21:53:36 +0000";
layers = (
{
layerId = "A2AECE16-8029-4E4A-A860-6BA7A78BC664";
shapes = (
{
pos = (16,15);
ref = _expStem;
},
{
closed = 1;
nodes = (
(411,421,o),
(429,457,o),
(462,495,c),
(445,507,o),
(423,516,o),
(385,516,c),
(368,516,o),
(330,492,o),
(214,436,c),
(181,436,l),
(181,357,l),
(226,388,o),
(301,423,o),
(320,423,cs),
(334,423,o),
(372,402,o),
(392,383,c)
);
},
{
pos = (-314,0);
ref = _dblBotSerif;
},
{
closed = 1;
nodes = (
(112,119,l),
(212,119,l),
(212,224,l),
(112,224,l)
);
}
);
width = 462;
}
);
unicode = 114;
},
{
glyphname = s;
lastChange = "2024-12-05 21:53:36 +0000";
layers = (
{
background = {
shapes = (
{
closed = 1;
nodes = (
(279,20,o),
(287,2,o),
(293,-16,c),
(349,-4,o),
(443,0,o),
(667,0,c),
(662,69,o),
(675,115,o),
(700,164,c),
(653,149,l),
(637,108,o),
(615,76,o),
(595,50,c),
(587,46,o),
(578,46,o),
(530,46,cs),
(389,46,l),
(680,465,l),
(669,482,o),
(661,494,o),
(655,516,c),
(558,503,o),
(465,498,o),
(282,499,c),
(291,467,o),
(280,421,o),
(259,347,c),
(296,364,l),
(308,396,o),
(325,423,o),
(339,448,c),
(347,452,o),
(356,452,o),
(404,452,cs),
(556,452,l),
(267,36,l)
);
}
);
};
layerId = "A2AECE16-8029-4E4A-A860-6BA7A78BC664";
shapes = (
{
closed = 1;
nodes = (
(53,38,o),
(52,97,o),
(41,149,c),
(99,142,l),
(104,79,l),
(132,51,o),
(171,46,o),
(224,46,cs),
(266,46,o),
(316,81,o),
(316,121,cs),
(316,158,o),
(278,182,o),
(241,195,cs),
(202,209,o),
(202,209,o),
(142,228,cs),
(87,245,o),
(44,305,o),
(44,364,cs),
(44,425,o),
(167,516,o),
(202,516,cs),
(258,516,o),
(314,507,o),
(380,500,c),
(366,463,o),
(351,395,o),
(352,362,c),
(311,370,l),
(301,440,l),
(273,449,o),
(233,461,o),
(188,457,cs),
(164,455,o),
(125,421,o),
(125,393,cs),
(125,372,o),
(138,330,o),
(172,319,cs),
(199,310,o),
(238,296,o),
(287,280,cs),
(344,261,o),
(395,222,o),
(395,147,cs),
(395,64,o),
(255,-17,o),
(228,-17,cs),
(149,-17,o),
(100,2,o),
(43,0,c)
);
}
);
width = 436;
},
{
associatedMasterId = "A2AECE16-8029-4E4A-A860-6BA7A78BC664";
background = {
shapes = (
{
closed = 1;
nodes = (
(430,428,l),
(360,500,o),
(305,517,o),
(224,517,cs),
(175,517,o),
(-25,430,o),
(-25,247,cs),
(-25,100,o),
(61,-15,o),
(197,-15,cs),
(294,-15,o),
(412,84,o),
(443,133,c),
(428,164,l),
(379,124,o),
(297,66,o),
(234,66,cs),
(150,66,o),
(85,165,o),
(85,279,cs),
(85,395,o),
(136,460,o),
(207,460,cs),
(255,460,o),
(282,440,o),
(329,374,c)
);
}
);
};
layerId = "070F904F-201A-4A22-9C4E-C7299E813A94";
name = "Oct 24, 24 at 22:38";
shapes = (
{
closed = 1;
nodes = (
(56,55,o),
(57,80,o),
(55,145,c),
(93,142,l),
(99,76,l),
(127,48,o),
(183,24,o),
(226,29,cs),
(271,34,o),
(298,72,o),
(307,111,cs),
(314,143,o),
(289,172,o),
(252,185,cs),
(213,199,o),
(213,199,o),
(153,218,cs),
(96,236,o),
(45,271,o),
(45,359,cs),
(45,451,o),
(177,516,o),
(213,516,cs),
(274,516,o),
(325,498,o),
(366,460,c),
(366,382,l),
(332,392,l),
(328,441,l),
(296,465,o),
(263,477,o),
(226,477,cs),
(168,477,o),
(136,451,o),
(136,393,cs),
(136,367,o),
(149,330,o),
(183,319,cs),
(210,310,o),
(248,301,o),
(297,285,cs),
(354,266,o),
(406,227,o),
(406,147,cs),
(406,58,o),
(298,-17,o),
(219,-17,cs),
(160,-17,o),
(100,0,o),
(51,-4,c)
);
}
);
width = 451;
},
{
associatedMasterId = "A2AECE16-8029-4E4A-A860-6BA7A78BC664";
background = {
shapes = (
{
closed = 1;
nodes = (
(430,428,l),
(360,500,o),
(305,517,o),
(224,517,cs),
(175,517,o),
(-25,430,o),
(-25,247,cs),
(-25,100,o),
(61,-15,o),
(197,-15,cs),
(294,-15,o),
(412,84,o),
(443,133,c),
(428,164,l),
(379,124,o),
(297,66,o),
(234,66,cs),
(150,66,o),
(85,165,o),
(85,279,cs),
(85,395,o),
(136,460,o),
(207,460,cs),
(255,460,o),
(282,440,o),
(329,374,c)
);
}
);
};
layerId = "6551C1A3-29B9-4235-AB9A-FE5698E5ED3A";
name = "Nov 1, 24 at 16:05";
shapes = (
{
closed = 1;
nodes = (
(56,55,o),
(57,80,o),
(55,145,c),
(93,142,l),
(99,76,l),
(127,48,o),
(183,24,o),
(226,29,cs),
(271,34,o),
(298,72,o),
(307,111,cs),
(314,143,o),
(289,172,o),
(252,185,cs),
(213,199,o),
(213,199,o),
(153,218,cs),
(96,236,o),
(45,271,o),
(45,359,cs),
(45,451,o),
(177,516,o),
(213,516,cs),
(274,516,o),
(325,498,o),
(366,460,c),
(366,382,l),
(332,392,l),
(328,441,l),
(296,465,o),
(263,477,o),
(226,477,cs),
(168,477,o),
(136,451,o),
(136,393,cs),
(136,367,o),
(149,330,o),
(183,319,cs),
(210,310,o),
(248,301,o),
(297,285,cs),
(354,266,o),
(406,227,o),
(406,147,cs),
(406,58,o),
(298,-17,o),
(219,-17,cs),
(160,-17,o),
(100,0,o),
(51,-4,c)
);
}
);
width = 451;
},
{
associatedMasterId = "A2AECE16-8029-4E4A-A860-6BA7A78BC664";
background = {
shapes = (
{
closed = 1;
nodes = (
(428,428,l),
(358,500,o),
(303,517,o),
(222,517,cs),
(173,517,o),
(-27,430,o),
(-27,247,cs),
(-27,100,o),
(59,-15,o),
(195,-15,cs),
(292,-15,o),
(410,84,o),
(441,133,c),
(426,164,l),
(377,124,o),
(295,66,o),
(232,66,cs),
(148,66,o),
(83,165,o),
(83,279,cs),
(83,395,o),
(134,460,o),
(205,460,cs),
(253,460,o),
(280,440,o),
(327,374,c)
);
}
);
};
layerId = "CD5ED12A-0064-46AA-92CB-0AA0D65982DD";
name = "Nov 7, 24 at 23:31";
shapes = (
{
closed = 1;
nodes = (
(55,149,l),
(103,142,l),
(108,79,l),
(136,51,o),
(182,32,o),
(235,32,cs),
(260,32,o),
(307,71,o),
(307,111,cs),
(307,143,o),
(289,172,o),
(252,185,cs),
(213,199,o),
(213,199,o),
(153,218,cs),
(35,255,o),
(55,343,o),
(55,359,cs),
(55,422,o),
(174,516,o),
(213,516,cs),
(244,516,o),
(283,505,o),
(366,470,c),
(362,437,o),
(362,395,o),
(363,362,c),
(322,370,l),
(308,431,l),
(288,446,o),
(244,457,o),
(216,457,cs),
(171,457,o),
(136,429,o),
(136,393,cs),
(136,367,o),
(149,330,o),
(183,319,cs),
(210,310,o),
(249,296,o),
(298,280,cs),
(355,261,o),
(406,217,o),
(406,147,cs),
(406,58,o),
(298,-17,o),
(219,-17,cs),
(200,-17,o),
(100,-6,o),
(51,0,c)
);
}
);
width = 451;
}
);
unicode = 115;
},
{
glyphname = t;
lastChange = "2024-12-05 21:53:36 +0000";
layers = (
{
background = {
shapes = (
{
closed = 0;
nodes = (
(279,57,l),
(286,57,l),
(291,34,o),
(348,-16,o),
(378,-16,cs),
(402,-16,o),
(431,23,o),
(504,67,c),
(504,112,l),
(368,53,o),
(379,60,o),
(379,160,c)
);
},
{
closed = 0;
nodes = (
(279,133,l)
);
}
);
};
layerId = "A2AECE16-8029-4E4A-A860-6BA7A78BC664";
shapes = (
{
closed = 1;
nodes = (
(191,500,l),
(334,500,l),
(334,485,l),
(283,440,l),
(191,440,l),
(191,123,l),
(191,89,o),
(195,74,o),
(209,74,cs),
(230,74,o),
(308,106,o),
(367,132,c),
(367,87,l),
(296,43,o),
(221,-16,o),
(201,-16,cs),
(172,-16,o),
(91,23,o),
(91,97,c),
(91,440,l),
(11,440,l),
(11,477,l),
(91,500,l),
(91,653,l),
(191,702,l)
);
}
);
width = 377;
}
);
unicode = 116;
},
{
glyphname = u;
lastChange = "2024-12-05 21:53:36 +0000";
layers = (
{
background = {
hints = (
{
name = _corner.leftSerif;
origin = (0,1);
type = Corner;
},
{
name = _corner.rightSerif;
options = 1;
origin = (0,2);
scale = (1,-1);
type = Corner;
}
);
shapes = (
{
closed = 1;
nodes = (
(736,274,l),
(736,0,l),
(836,0,l),
(836,274,l)
);
}
);
};
guides = (
{
angle = 90;
pos = (192,449);
},
{
angle = 90;
pos = (420,353);
},
{
pos = (15,515);
}
);
layerId = "A2AECE16-8029-4E4A-A860-6BA7A78BC664";
shapes = (
{
pos = (6,15);
ref = _expStem;
},
{
pos = (324,15);
ref = _expStem;
},
{
pos = (1,0);
ref = _serif.lowOutro;
},
{
closed = 1;
nodes = (
(380,90,o),
(318,67,o),
(300,67,cs),
(252,67,o),
(202,100,o),
(202,146,c),
(202,340,l),
(102,340,l),
(102,91,ls),
(102,42,o),
(159,-16,o),
(241,-16,cs),
(260,-16,o),
(318,31,o),
(417,67,c),
(468,67,l),
(468,134,l)
);
}
);
width = 632;
}
);
unicode = 117;
},
{
glyphname = v;
lastChange = "2024-12-12 21:45:08 +0000";
layers = (
{
layerId = "A2AECE16-8029-4E4A-A860-6BA7A78BC664";
shapes = (
{
closed = 0;
nodes = (
(210,450,l)
);
},
{
closed = 1;
nodes = (
(307,65,l),
(323,0,l),
(524,469,l),
(520,482,l),
(473,476,l),
(319,117,l)
);
},
{
closed = 1;
nodes = (
(175,476,l),
(71,474,l),
(71,462,l),
(282,-16,l),
(295,-7,o),
(309,-1,o),
(324,0,c),
(345,87,l)
);
},
{
ref = _leftTopSerif;
},
{
pos = (26,0);
ref = _rightTopSerif;
}
);
width = 609;
},
{
associatedMasterId = "A2AECE16-8029-4E4A-A860-6BA7A78BC664";
background = {
shapes = (
{
angle = -24.1;
pos = (-183,110);
ref = _expStem;
},
{
angle = -25;
pos = (27,110);
ref = _expStem;
}
);
};
guides = (
{
angle = -14.1;
pos = (417,453);
},
{
angle = 195;
pos = (517,453);
}
);
layerId = "3C9144E2-220F-482B-AD92-9B633EC0BCB5";
name = "Oct 1, 24 at 01:00";
width = 612;
}
);
unicode = 118;
},
{
glyphname = w;
lastChange = "2024-12-12 21:48:07 +0000";
layers = (
{
background = {
shapes = (
{
closed = 0;
nodes = (
(200,450,l)
);
},
{
closed = 1;
nodes = (
(297,65,l),
(313,0,l),
(514,469,l),
(510,482,l),
(463,476,l),
(309,117,l)
);
},
{
closed = 1;
nodes = (
(165,476,l),
(61,474,l),
(61,462,l),
(272,-16,l),
(285,-7,o),
(299,-1,o),
(314,0,c),
(335,87,l)
);
}
);
};
guides = (
{
pos = (624,509);
}
);
layerId = "A2AECE16-8029-4E4A-A860-6BA7A78BC664";
shapes = (
{
closed = 0;
nodes = (
(185,450,l)
);
},
{
closed = 0;
nodes = (
(545,450,l)
);
},
{
closed = 1;
nodes = (
(321,105,l),
(170,476,l),
(64,474,l),
(126,313,o),
(210,153,o),
(260,-8,c)
);
},
{
closed = 1;
nodes = (
(260,-8,l),
(260,-8,l),
(308,0,l),
(484,398,l),
(458,452,l),
(304,116,l)
);
},
{
closed = 1;
nodes = (
(625,106,l),
(455,500,l),
(349,500,l),
(565,-8,l)
);
},
{
closed = 1;
nodes = (
(565,-8,l),
(565,-8,l),
(613,0,l),
(763,466,l),
(720,477,l),
(604,116,l)
);
},
{
ref = _leftTopSerif;
},
{
pos = (274,1);
ref = _rightTopSerif;
}
);
width = 857;
}
);
unicode = 119;
},
{
glyphname = x;
lastChange = "2024-12-12 21:49:23 +0000";
layers = (
{
background = {
shapes = (
{
closed = 1;
nodes = (
(812,7,o),
(859,6,o),
(899,-16,c),
(917,30,l),
(842,47,o),
(763,117,o),
(602,311,c),
(821,478,l),
(757,478,l),
(502,284,l),
(608,180,o),
(676,104,o),
(749,-16,c)
);
}
);
};
layerId = "A2AECE16-8029-4E4A-A860-6BA7A78BC664";
shapes = (
{
closed = 1;
nodes = (
(612,29,l),
(558,43,o),
(520,79,o),
(474,129,c),
(382,254,o),
(239,403,o),
(182,518,c),
(150,493,o),
(74,494,o),
(10,518,c),
(0,481,l),
(96,451,o),
(116,425,o),
(172,346,cs),
(263,223,o),
(394,81,o),
(448,-16,c),
(472,4,o),
(561,7,o),
(591,-16,c)
);
},
{
closed = 1;
nodes = (
(181,57,l),
(181,72,o),
(191,87,o),
(208,111,c),
(434,393,l),
(449,412,o),
(463,432,o),
(481,451,c),
(503,466,o),
(521,477,o),
(546,485,c),
(543,500,l),
(377,500,l),
(379,480,l),
(398,477,o),
(409,473,o),
(425,461,c),
(421,445,o),
(409,428,o),
(396,412,c),
(167,126,ls),
(147,101,o),
(123,69,o),
(111,50,c)
);
},
{
closed = 1;
nodes = (
(502,458,o),
(540,471,o),
(578,481,c),
(568,518,l),
(499,494,o),
(441,494,o),
(338,516,c),
(347,470,l),
(395,469,o),
(432,451,o),
(434,428,c),
(461,429,l)
);
},
{
closed = 1;
nodes = (
(179,31,o),
(159,59,o),
(213,133,c),
(189,145,l),
(134,79,o),
(92,47,o),
(29,30,c),
(0,-16,l),
(105,5,o),
(173,6,o),
(260,-16,c),
(270,19,l)
);
}
);
width = 612;
},
{
associatedMasterId = "A2AECE16-8029-4E4A-A860-6BA7A78BC664";
layerId = "F4610E29-1E5F-425F-A95B-AE76BF53CD2F";
name = "Oct 2, 24 at 00:45";
shapes = (
{
closed = 1;
nodes = (
(540,28,l),
(472,165,o),
(227,391,o),
(164,526,c),
(57,465,l),
(105,337,o),
(359,107,o),
(439,-35,c)
);
},
{
closed = 1;
nodes = (
(173,0,ls),
(211,0,o),
(228,0,o),
(256,-3,c),
(251,25,l),
(229,32,o),
(198,39,o),
(178,47,c),
(167,58,o),
(168,74,o),
(186,98,c),
(515,484,l),
(451,476,l),
(112,78,l),
(84,52,o),
(60,38,o),
(21,25,c),
(16,-3,l),
(44,0,o),
(61,0,o),
(99,0,cs)
);
},
{
closed = 1;
nodes = (
(556,485,l),
(553,500,l),
(376,500,l),
(378,480,l),
(471,450,l),
(484,449,l)
);
}
);
width = 600;
},
{
associatedMasterId = "A2AECE16-8029-4E4A-A860-6BA7A78BC664";
layerId = "03CD97BF-0B55-46AF-8907-3DD8F86CB2E9";
name = "Nov 7, 24 at 18:20";
shapes = (
{
closed = 1;
nodes = (
(140,500,o),
(90,500,o),
(41,500,c),
(37,474,l),
(107,439,l),
(426,0,l),
(476,0,o),
(527,0,o),
(577,0,c),
(570,34,l),
(523,44,l),
(189,500,l)
);
},
{
closed = 1;
nodes = (
(261,0,l),
(266,29,l),
(177,62,l),
(464,437,l),
(553,480,l),
(554,500,l),
(348,500,l),
(346,475,l),
(412,451,l),
(164,126,l),
(108,55,l),
(40,30,l),
(35,0,l)
);
}
);
width = 578;
}
);
unicode = 120;
},
{
glyphname = y;
lastChange = "2024-12-12 21:48:14 +0000";
layers = (
{
background = {
shapes = (
{
closed = 0;
nodes = (
(210,450,l)
);
},
{
closed = 1;
nodes = (
(307,65,l),
(323,0,l),
(524,469,l),
(520,482,l),
(473,476,l),
(319,117,l)
);
},
{
closed = 1;
nodes = (
(175,476,l),
(71,474,l),
(71,462,l),
(282,-16,l),
(295,-7,o),
(309,-1,o),
(324,0,c),
(345,87,l)
);
}
);
};
layerId = "A2AECE16-8029-4E4A-A860-6BA7A78BC664";
shapes = (
{
closed = 0;
nodes = (
(193,450,l)
);
},
{
closed = 1;
nodes = (
(302,34,o),
(270,-44,o),
(235,-114,cs),
(213,-160,o),
(185,-181,o),
(125,-199,c),
(108,-316,l),
(159,-315,o),
(208,-274,o),
(246,-200,cs),
(269,-156,o),
(288,-114,o),
(303,-76,c),
(534,469,l),
(530,482,l),
(487,476,l),
(333,116,l)
);
},
{
closed = 1;
nodes = (
(175,476,l),
(70,474,l),
(72,462,l),
(283,-17,l),
(314,0,l),
(342,86,l)
);
},
{
pos = (38,0);
ref = _rightTopSerif;
},
{
ref = _leftTopSerif;
}
);
width = 621;
}
);
unicode = 121;
},
{
glyphname = z;
lastChange = "2024-12-12 21:36:16 +0000";
layers = (
{
layerId = "A2AECE16-8029-4E4A-A860-6BA7A78BC664";
shapes = (
{
closed = 1;
nodes = (
(55,20,o),
(64,2,o),
(71,-16,c),
(134,-4,o),
(239,0,o),
(491,0,c),
(485,69,o),
(483,97,o),
(507,149,c),
(454,141,l),
(439,115,o),
(428,75,o),
(425,59,c),
(416,55,o),
(391,46,o),
(337,46,cs),
(181,46,l),
(492,465,l),
(490,482,o),
(489,494,o),
(487,516,c),
(378,503,o),
(286,498,o),
(81,499,c),
(86,467,o),
(78,425,o),
(55,351,c),
(108,358,l),
(121,390,o),
(134,420,o),
(138,445,c),
(147,449,o),
(164,452,o),
(195,452,cs),
(356,452,l),
(41,36,l)
);
}
);
width = 548;
},
{
associatedMasterId = "A2AECE16-8029-4E4A-A860-6BA7A78BC664";
background = {
shapes = (
{
closed = 1;
nodes = (
(114,366,l),
(122,450,o),
(131,462,o),
(181,462,c),
(458,464,l),
(458,500,l),
(70,500,l),
(70,366,l)
);
},
{
closed = 1;
nodes = (
(48,0,l),
(151,0,l),
(476,478,l),
(476,500,l),
(374,500,l),
(48,23,l)
);
},
{
closed = 1;
nodes = (
(414,134,l),
(406,50,o),
(397,38,o),
(347,38,c),
(70,36,l),
(70,0,l),
(458,0,l),
(458,134,l)
);
}
);
};
layerId = "6D78AC39-653B-4E4A-A10B-EFCDBA9C37D3";
name = "Nov 7, 24 at 18:15";
shapes = (
{
closed = 1;
nodes = (
(81,-11,l),
(455,0,l),
(468,144,l),
(421,129,l),
(385,42,l),
(177,38,l),
(468,465,l),
(443,511,l),
(70,501,l),
(67,359,l),
(104,374,l),
(127,451,l),
(192,455,l),
(344,455,l),
(55,36,l)
);
}
);
width = 523;
},
{
associatedMasterId = "A2AECE16-8029-4E4A-A860-6BA7A78BC664";
layerId = "F23869DE-F58B-4760-9F14-ABFA9EE4CA3C";
name = "Nov 20, 24 at 20:04";
shapes = (
{
closed = 1;
nodes = (
(67,20,o),
(75,2,o),
(81,-16,c),
(137,-4,o),
(231,0,o),
(455,0,c),
(450,69,o),
(453,105,o),
(468,144,c),
(421,129,l),
(415,98,o),
(403,68,o),
(383,42,c),
(375,38,o),
(366,38,o),
(318,38,cs),
(177,38,l),
(468,465,l),
(457,482,o),
(449,494,o),
(443,516,c),
(346,503,o),
(253,498,o),
(70,499,c),
(79,467,o),
(78,431,o),
(67,357,c),
(104,374,l),
(106,406,o),
(113,426,o),
(127,451,c),
(135,455,o),
(144,455,o),
(192,455,cs),
(344,455,l),
(55,36,l)
);
}
);
width = 523;
},
{
associatedMasterId = "A2AECE16-8029-4E4A-A860-6BA7A78BC664";
background = {
shapes = (
{
closed = 1;
nodes = (
(394,2,o),
(345,-17,o),
(266,-17,cs),
(239,-17,o),
(99,64,o),
(99,147,cs),
(99,222,o),
(150,261,o),
(207,280,cs),
(256,296,o),
(295,310,o),
(322,319,cs),
(356,330,o),
(369,372,o),
(369,393,cs),
(369,429,o),
(339,454,o),
(306,457,cs),
(261,461,o),
(221,449,o),
(193,440,c),
(183,370,l),
(142,362,l),
(143,395,o),
(128,463,o),
(114,500,c),
(180,507,o),
(236,516,o),
(292,516,cs),
(327,516,o),
(450,425,o),
(450,364,cs),
(450,305,o),
(407,245,o),
(352,228,cs),
(292,209,o),
(292,209,o),
(253,195,cs),
(216,182,o),
(178,158,o),
(178,121,cs),
(178,81,o),
(228,46,o),
(270,46,cs),
(323,46,o),
(362,51,o),
(390,79,c),
(395,142,l),
(453,149,l),
(442,97,o),
(441,38,o),
(451,0,c)
);
}
);
};
layerId = "5208E4C5-0191-43A6-AFA7-CC5659CA95CF";
name = "Nov 28, 24 at 19:38";
shapes = (
{
closed = 1;
nodes = (
(61,20,o),
(69,2,o),
(75,-16,c),
(131,-4,o),
(225,0,o),
(449,0,c),
(444,69,o),
(457,115,o),
(482,164,c),
(435,149,l),
(419,108,o),
(397,76,o),
(377,50,c),
(369,46,o),
(360,46,o),
(312,46,cs),
(171,46,l),
(462,465,l),
(451,482,o),
(443,494,o),
(437,516,c),
(340,503,o),
(247,498,o),
(64,499,c),
(73,467,o),
(62,421,o),
(41,347,c),
(78,364,l),
(90,396,o),
(107,423,o),
(121,448,c),
(129,452,o),
(138,452,o),
(186,452,cs),
(338,452,l),
(49,36,l)
);
}
);
width = 523;
}
);
unicode = 122;
},
{
glyphname = zero;
lastChange = "2024-12-12 20:57:21 +0000";
layers = (
{
background = {
shapes = (
{
closed = 1;
nodes = (
(787,234,l),
(788,246,o),
(789,498,o),
(789,510,cs),
(789,643,o),
(709,756,o),
(533,756,cs),
(472,756,o),
(386,707,o),
(320,629,cs),
(291,595,o),
(275,543,o),
(275,490,cs),
(275,485,o),
(275,240,o),
(275,234,c)
);
},
{
closed = 1;
nodes = (
(275,234,l),
(283,90,o),
(388,-14,o),
(534,-14,cs),
(586,-14,o),
(669,28,o),
(743,110,cs),
(767,137,o),
(782,184,o),
(787,234,c)
);
}
);
};
layerId = "A2AECE16-8029-4E4A-A860-6BA7A78BC664";
shapes = (
{
closed = 1;
nodes = (
(318,-14,o),
(382,28,o),
(447,110,cs),
(469,137,o),
(492,184,o),
(497,234,cs),
(498,246,o),
(499,488,o),
(499,500,cs),
(499,633,o),
(428,746,o),
(270,746,cs),
(216,746,o),
(129,697,o),
(70,619,cs),
(44,585,o),
(40,533,o),
(40,480,cs),
(40,234,l),
(47,90,o),
(141,-14,o),
(271,-14,cs)
);
},
{
closed = 1;
nodes = (
(138,520,ls),
(138,555,o),
(137,589,o),
(155,612,cs),
(194,663,o),
(234,695,o),
(270,695,cs),
(374,695,o),
(401,621,o),
(401,533,cs),
(400,400,ls),
(400,227,o),
(399,210,o),
(399,208,cs),
(389,97,o),
(288,45,o),
(270,45,cs),
(185,45,o),
(143,113,o),
(138,208,c)
);
}
);
width = 539;
},
{
associatedMasterId = "A2AECE16-8029-4E4A-A860-6BA7A78BC664";
background = {
shapes = (
{
closed = 1;
nodes = (
(537,234,l),
(538,246,o),
(539,498,o),
(539,510,cs),
(539,643,o),
(459,756,o),
(283,756,cs),
(222,756,o),
(136,707,o),
(70,629,cs),
(41,595,o),
(25,543,o),
(25,490,cs),
(25,485,o),
(25,240,o),
(25,234,c)
);
},
{
closed = 1;
nodes = (
(25,234,l),
(33,90,o),
(138,-14,o),
(284,-14,cs),
(336,-14,o),
(419,28,o),
(493,110,cs),
(517,137,o),
(532,184,o),
(537,234,c)
);
}
);
};
backgroundImage = {
angle = 1;
imagePath = "Images/zero-Nov 21, 24 at 23:07.tif";
locked = 1;
pos = (72,-33);
scale = (1.2351,1.2351);
};
layerId = "5BE66967-E102-4E57-88F3-84B6E840158B";
name = "Nov 21, 24 at 23:07";
shapes = (
{
closed = 1;
nodes = (
(587,234,l),
(588,246,o),
(589,498,o),
(589,510,cs),
(589,643,o),
(509,756,o),
(333,756,cs),
(272,756,o),
(186,707,o),
(120,629,cs),
(91,595,o),
(75,543,o),
(75,490,cs),
(75,485,o),
(75,240,o),
(75,234,c)
);
},
{
closed = 1;
nodes = (
(75,234,l),
(83,90,o),
(188,-14,o),
(334,-14,cs),
(386,-14,o),
(469,28,o),
(543,110,cs),
(567,137,o),
(582,184,o),
(587,234,c)
);
}
);
width = 600;
}
);
unicode = 48;
},
{
glyphname = one;
lastChange = "2024-12-05 22:04:19 +0000";
layers = (
{
layerId = "A2AECE16-8029-4E4A-A860-6BA7A78BC664";
shapes = (
{
closed = 1;
nodes = (
(290,176,l),
(290,607,ls),
(290,620,o),
(291,631,o),
(293,641,c),
(306,675,o),
(319,694,o),
(332,709,c),
(306,750,l),
(273,713,o),
(193,649,o),
(63,577,c),
(54,514,l),
(92,541,o),
(134,566,o),
(190,590,c),
(190,169,l)
);
},
{
pos = (-12,0);
ref = _numSerif;
}
);
width = 432;
}
);
unicode = 49;
},
{
glyphname = two;
lastChange = "2024-12-05 22:04:19 +0000";
layers = (
{
backgroundImage = {
angle = -1.1;
imagePath = "Images/two-Le display.tif";
pos = (-769,-78);
scale = (1.4337,1.4337);
};
guides = (
{
pos = (47,-32);
}
);
layerId = "A2AECE16-8029-4E4A-A860-6BA7A78BC664";
shapes = (
{
closed = 1;
nodes = (
(100,528,l),
(139,500,l),
(143,607,l),
(240,657,o),
(293,675,o),
(305,675,cs),
(501,675,o),
(421,496,o),
(290,318,cs),
(250,263,o),
(179,158,o),
(40,63,c),
(87,-17,l),
(166,-5,o),
(244,0,o),
(323,0,c),
(397,0,o),
(460,-4,o),
(534,-16,c),
(530,60,o),
(542,139,o),
(574,188,c),
(538,257,l),
(504,153,o),
(477,85,o),
(452,68,c),
(342,65,o),
(222,52,o),
(112,49,c),
(127,27,l),
(188,94,o),
(259,171,o),
(320,238,cs),
(413,340,o),
(540,486,o),
(540,593,cs),
(540,657,o),
(514,759,o),
(343,759,c),
(321,759,o),
(181,684,o),
(85,639,c)
);
}
);
width = 614;
}
);
unicode = 50;
},
{
glyphname = three;
lastChange = "2024-12-05 22:04:19 +0000";
layers = (
{
background = {
shapes = (
{
closed = 1;
nodes = (
(575,224,o),
(646,256,o),
(702,297,c),
(709,297,l),
(714,274,o),
(769,224,o),
(798,224,cs),
(822,224,o),
(850,273,o),
(921,307,c),
(921,362,l),
(789,303,o),
(799,310,o),
(799,410,c),
(799,634,l),
(799,730,o),
(722,755,o),
(657,755,cs),
(642,755,o),
(590,727,o),
(444,664,c),
(444,601,l),
(489,626,o),
(574,674,o),
(613,673,cs),
(680,671,o),
(702,636,o),
(702,593,c),
(702,550,l),
(461,458,l),
(428,442,o),
(409,405,o),
(409,346,cs),
(409,289,o),
(474,224,o),
(552,224,cs)
);
},
{
closed = 1;
nodes = (
(551,300,o),
(509,335,o),
(497,365,cs),
(487,389,o),
(489,423,o),
(505,432,c),
(702,514,l),
(702,373,l),
(702,341,o),
(695,316,o),
(605,306,cs)
);
},
{
closed = 1;
nodes = (
(787,49,l),
(447,68,l),
(422,85,o),
(395,153,o),
(361,257,c),
(325,188,l),
(357,139,o),
(369,60,o),
(365,-16,c),
(439,-4,o),
(502,0,o),
(576,0,c),
(812,-17,l)
);
}
);
};
backgroundImage = {
imagePath = "Images/three-Le display.tif";
pos = (-307,-118);
scale = (1.2809,1.2809);
};
layerId = "A2AECE16-8029-4E4A-A860-6BA7A78BC664";
shapes = (
{
closed = 1;
nodes = (
(129,-5,o),
(282,-14,o),
(299,-14,cs),
(437,-14,o),
(553,151,o),
(553,273,cs),
(553,386,o),
(489,424,o),
(298,424,cs),
(279,424,o),
(250,408,o),
(214,404,c),
(193,353,l),
(200,339,l),
(233,351,o),
(264,363,o),
(299,363,cs),
(373,363,o),
(450,326,o),
(450,241,cs),
(450,151,o),
(376,73,o),
(289,53,cs),
(259,46,o),
(189,45,o),
(149,75,c),
(128,87,o),
(93,197,o),
(85,237,c),
(40,168,l),
(81,15,l)
);
},
{
closed = 1;
nodes = (
(376,394,o),
(493,551,o),
(493,604,cs),
(493,716,o),
(467,749,o),
(332,757,c),
(304,757,o),
(128,704,o),
(91,696,c),
(81,556,l),
(119,541,l),
(123,577,o),
(150,687,o),
(290,687,cs),
(401,687,o),
(397,620,o),
(397,570,cs),
(397,525,o),
(274,426,o),
(224,404,c),
(310,394,ls)
);
}
);
width = 593;
},
{
associatedMasterId = "A2AECE16-8029-4E4A-A860-6BA7A78BC664";
backgroundImage = {
angle = -2;
imagePath = "Images/three-Nov 21, 24 at 19:44.tif";
pos = (-674,-86);
scale = (1.4419,1.4419);
};
layerId = "0A493D20-B09C-40CC-ABA8-9B3CF78B97F2";
name = "Nov 21, 24 at 19:44";
shapes = (
{
closed = 1;
nodes = (
(351,-15,o),
(420,58,o),
(442,81,cs),
(459,98,o),
(548,171,o),
(548,316,cs),
(548,423,o),
(470,473,o),
(434,473,cs),
(354,473,o),
(279,429,o),
(199,407,c),
(213,355,l),
(243,368,o),
(293,378,o),
(311,378,cs),
(411,378,o),
(435,323,o),
(435,238,cs),
(435,201,o),
(399,83,o),
(296,83,cs),
(206,80,o),
(145,112,o),
(85,137,c),
(77,104,o),
(54,47,o),
(33,3,c),
(128,-10,o),
(244,-15,o),
(261,-15,cs)
);
},
{
closed = 1;
nodes = (
(293,408,l),
(387,544,o),
(475,649,o),
(554,711,c),
(523,759,l),
(477,747,o),
(397,740,o),
(300,740,c),
(196,740,o),
(144,745,o),
(91,758,c),
(96,739,o),
(125,635,o),
(85,524,c),
(150,551,l),
(189,648,l),
(385,648,l),
(246,443,l),
(234,427,o),
(216,414,o),
(206,403,c)
);
}
);
width = 600;
},
{
associatedMasterId = "A2AECE16-8029-4E4A-A860-6BA7A78BC664";
background = {
shapes = (
{
closed = 1;
nodes = (
(332,-14,o),
(402,28,o),
(476,110,cs),
(506,143,o),
(522,208,o),
(522,270,cs),
(522,403,o),
(442,516,o),
(279,516,cs),
(260,516,o),
(191,469,o),
(134,446,c),
(74,417,l),
(116,355,l),
(126,355,l),
(167,402,o),
(219,413,o),
(278,413,cs),
(314,413,o),
(411,360,o),
(411,261,cs),
(411,196,o),
(417,108,o),
(346,62,cs),
(284,22,o),
(179,59,o),
(166,63,cs),
(132,74,o),
(111,106,o),
(106,118,cs),
(101,130,o),
(91,170,o),
(83,205,c),
(8,131,l),
(41,93,o),
(67,14,o),
(81,-16,c),
(100,1,o),
(129,0,o),
(146,0,cs),
(167,0,o),
(231,-14,o),
(280,-14,c)
);
}
);
};
backgroundImage = {
angle = -2;
imagePath = "Images/three-Le display.tif";
pos = (-674,-86);
scale = (1.4419,1.4419);
};
layerId = "36859444-6796-4AE1-A7D1-84E36933F826";
name = "Nov 21, 24 at 22:00";
shapes = (
{
closed = 1;
nodes = (
(293,408,l),
(387,544,o),
(471,649,o),
(550,711,c),
(519,759,l),
(473,747,o),
(393,740,o),
(300,740,c),
(196,740,o),
(144,745,o),
(91,758,c),
(96,739,o),
(125,635,o),
(85,524,c),
(150,551,l),
(188,668,l),
(400,668,l),
(246,443,l),
(234,427,o),
(216,414,o),
(206,403,c)
);
},
{
closed = 1;
nodes = (
(356,-15,o),
(426,58,o),
(448,81,cs),
(482,116,o),
(522,148,o),
(522,296,cs),
(522,403,o),
(470,473,o),
(434,473,cs),
(354,473,o),
(279,429,o),
(199,407,c),
(213,355,l),
(243,368,o),
(293,378,o),
(311,378,cs),
(408,378,o),
(412,287,o),
(412,192,cs),
(412,122,o),
(364,44,o),
(281,44,cs),
(191,44,o),
(110,81,o),
(85,137,c),
(77,104,o),
(54,47,o),
(33,-16,c),
(128,0,o),
(249,-15,o),
(266,-15,cs)
);
}
);
width = 600;
},
{
associatedMasterId = "A2AECE16-8029-4E4A-A860-6BA7A78BC664";
background = {
shapes = (
{
closed = 1;
nodes = (
(37,528,l),
(76,500,l),
(80,607,l),
(177,657,o),
(230,675,o),
(242,675,cs),
(438,675,o),
(358,496,o),
(227,318,cs),
(187,263,o),
(116,158,o),
(-23,63,c),
(24,-17,l),
(103,-5,o),
(181,0,o),
(260,0,c),
(334,0,o),
(397,-4,o),
(471,-16,c),
(467,60,o),
(479,139,o),
(511,188,c),
(475,257,l),
(441,153,o),
(414,85,o),
(389,68,c),
(279,65,o),
(159,52,o),
(49,49,c),
(64,27,l),
(125,94,o),
(196,171,o),
(257,238,cs),
(350,340,o),
(477,486,o),
(477,593,cs),
(477,657,o),
(451,759,o),
(280,759,c),
(258,759,o),
(118,684,o),
(22,639,c)
);
}
);
};
backgroundImage = {
imagePath = "Images/three-Le display.tif";
pos = (-615,-118);
scale = (1.2809,1.2809);
};
layerId = "A099D242-1E5B-4682-B1D0-092299774320";
name = "Nov 21, 24 at 23:43";
shapes = (
{
closed = 1;
nodes = (
(117,1,o),
(146,0,o),
(163,0,cs),
(184,0,o),
(248,-14,o),
(297,-14,c),
(349,-14,o),
(419,28,o),
(493,110,cs),
(523,143,o),
(551,211,o),
(551,273,cs),
(551,421,o),
(451,404,o),
(296,404,cs),
(277,404,o),
(248,408,o),
(212,404,c),
(191,353,l),
(198,339,l),
(231,351,o),
(262,363,o),
(297,363,cs),
(371,363,o),
(448,326,o),
(448,241,cs),
(448,153,o),
(399,86,o),
(363,62,cs),
(301,22,o),
(196,59,o),
(183,63,cs),
(149,74,o),
(128,106,o),
(123,118,cs),
(118,130,o),
(108,170,o),
(100,205,c),
(25,131,l),
(58,93,o),
(84,14,o),
(98,-16,c)
);
},
{
closed = 1;
nodes = (
(390,394,o),
(485,539,o),
(485,584,cs),
(485,640,o),
(430,724,o),
(360,757,c),
(272,757,o),
(179,712,o),
(89,696,c),
(102,641,o),
(97,596,o),
(79,556,c),
(117,541,l),
(121,577,o),
(160,702,o),
(318,677,cs),
(399,664,o),
(408,597,o),
(408,547,cs),
(408,477,o),
(304,412,o),
(222,401,c),
(328,394,l)
);
}
);
width = 611;
}
);
unicode = 51;
},
{
glyphname = four;
lastChange = "2024-12-05 22:04:19 +0000";
layers = (
{
background = {
shapes = (
{
closed = 1;
nodes = (
(416,733,o),
(340,734,o),
(276,758,c),
(266,721,l),
(356,691,o),
(376,665,o),
(432,586,cs),
(523,463,o),
(654,321,o),
(708,224,c),
(764,247,o),
(830,243,o),
(905,224,c),
(876,270,l),
(812,284,o),
(777,319,o),
(740,369,c),
(648,494,o),
(505,643,o),
(448,758,c)
);
},
{
closed = 1;
nodes = (
(447,297,l),
(447,312,o),
(457,327,o),
(474,351,c),
(700,633,l),
(715,652,o),
(729,672,o),
(747,691,c),
(769,706,o),
(787,717,o),
(812,725,c),
(809,740,l),
(643,740,l),
(645,720,l),
(664,717,o),
(675,713,o),
(691,701,c),
(687,685,o),
(675,668,o),
(662,652,c),
(433,366,ls),
(413,341,o),
(389,309,o),
(377,290,c)
);
},
{
closed = 1;
nodes = (
(759,698,o),
(797,711,o),
(835,721,c),
(825,758,l),
(756,734,o),
(698,734,o),
(595,756,c),
(604,710,l),
(652,709,o),
(689,691,o),
(691,668,c),
(718,669,l)
);
},
{
closed = 1;
nodes = (
(445,271,o),
(425,299,o),
(479,373,c),
(455,385,l),
(400,319,o),
(358,287,o),
(295,270,c),
(266,224,l),
(371,245,o),
(439,246,o),
(526,224,c),
(536,259,l)
);
}
);
};
backgroundImage = {
imagePath = "Images/four-Le display.tif";
locked = 1;
pos = (309,-55);
scale = (1.4067,1.4067);
};
layerId = "A2AECE16-8029-4E4A-A860-6BA7A78BC664";
shapes = (
{
closed = 1;
nodes = (
(139,230,o),
(234,241,o),
(361,240,c),
(429,239,o),
(508,231,o),
(576,205,c),
(645,329,l),
(572,301,o),
(488,290,o),
(405,290,c),
(305,288,o),
(204,287,o),
(104,295,c),
(94,237,l),
(193,359,o),
(285,493,o),
(375,633,c),
(416,662,o),
(470,702,o),
(518,719,c),
(499,763,l),
(456,750,o),
(413,741,o),
(368,741,c),
(270,543,o),
(161,391,o),
(40,282,c),
(92,208,l)
);
},
{
closed = 1;
nodes = (
(468,177,l),
(468,711,l),
(368,711,l),
(368,170,l)
);
},
{
pos = (166,0);
ref = _numSerif;
}
);
width = 685;
}
);
unicode = 52;
},
{
glyphname = five;
lastChange = "2024-12-12 20:59:31 +0000";
layers = (
{
background = {
shapes = (
{
closed = 1;
nodes = (
(528,516,o),
(442,467,o),
(376,389,cs),
(347,355,o),
(331,303,o),
(331,250,cs),
(331,98,o),
(439,-14,o),
(590,-14,cs),
(642,-14,o),
(725,28,o),
(799,110,cs),
(829,143,o),
(845,208,o),
(845,270,cs),
(845,403,o),
(765,516,o),
(589,516,cs)
);
},
{
closed = 1;
nodes = (
(649,463,o),
(735,352,o),
(737,251,cs),
(739,126,o),
(705,52,o),
(622,51,cs),
(539,49,o),
(442,153,o),
(440,269,cs),
(438,385,o),
(482,460,o),
(567,462,cs)
);
},
{
closed = 0;
nodes = (
(293,24,ls),
(187,18,o),
(167,63,o),
(149,81,cs),
(148,82,ls),
(127,109,o),
(106,153,o),
(84,218,c),
(84,218,o),
(48,193,o),
(51,185,cs),
(68,136,o),
(86,71,o),
(91,1,c),
(106,3,o),
(146,-19,o),
(190,-23,cs)
);
}
);
};
layerId = "A2AECE16-8029-4E4A-A860-6BA7A78BC664";
shapes = (
{
closed = 1;
nodes = (
(166,463,o),
(164,582,o),
(180,668,c),
(244,682,o),
(367,671,o),
(505,651,c),
(501,689,o),
(506,718,o),
(521,758,c),
(469,745,o),
(395,740,o),
(326,740,c),
(253,740,o),
(186,742,o),
(139,757,c),
(79,698,l),
(99,629,o),
(100,553,o),
(94,406,c),
(148,355,l)
);
},
{
closed = 1;
nodes = (
(364,-14,o),
(434,28,o),
(508,110,cs),
(538,143,o),
(554,208,o),
(554,270,cs),
(554,403,o),
(474,516,o),
(311,516,cs),
(292,516,o),
(223,469,o),
(166,446,c),
(106,417,l),
(148,355,l),
(148,355,l),
(199,402,o),
(251,413,o),
(310,413,cs),
(384,413,o),
(443,346,o),
(443,261,cs),
(443,196,o),
(449,108,o),
(378,62,cs),
(316,22,o),
(211,59,o),
(198,63,cs),
(147,79,o),
(90,188,o),
(83,218,c),
(49,188,l),
(72,150,o),
(86,41,o),
(91,1,c),
(173,-4,o),
(279,-14,o),
(312,-14,c)
);
}
);
width = 594;
}
);
unicode = 53;
},
{
glyphname = six;
lastChange = "2024-12-12 21:50:18 +0000";
layers = (
{
background = {
shapes = (
{
closed = 1;
nodes = (
(534,379,o),
(568,406,o),
(586,406,cs),
(622,406,o),
(702,346,o),
(712,184,cs),
(715,136,o),
(654,53,o),
(602,53,cs),
(504,53,o),
(463,166,o),
(463,333,c)
);
},
{
closed = 1;
nodes = (
(642,-19,o),
(778,50,o),
(813,149,cs),
(824,181,o),
(824,243,o),
(813,304,cs),
(792,419,o),
(690,494,o),
(572,483,c),
(547,483,o),
(529,453,o),
(463,411,c),
(471,496,o),
(496,571,o),
(547,626,cs),
(589,672,o),
(714,720,o),
(810,723,c),
(823,756,l),
(658,756,o),
(501,686,o),
(457,630,cs),
(393,548,o),
(351,439,o),
(351,325,cs),
(351,200,o),
(388,-19,o),
(608,-19,cs)
);
}
);
};
layerId = "A2AECE16-8029-4E4A-A860-6BA7A78BC664";
shapes = (
{
closed = 1;
nodes = (
(225,50,o),
(155,147,o),
(151,208,cs),
(150,231,o),
(150,282,o),
(163,299,c),
(208,351,o),
(282,385,o),
(303,386,c),
(399,391,o),
(444,316,o),
(448,236,cs),
(450,198,o),
(446,154,o),
(425,128,cs),
(386,81,o),
(335,56,o),
(303,54,cs)
);
},
{
closed = 1;
nodes = (
(359,-12,o),
(442,37,o),
(513,130,cs),
(557,188,o),
(543,270,o),
(541,304,c),
(536,405,o),
(434,473,o),
(329,467,c),
(306,466,o),
(221,392,o),
(150,351,c),
(174,544,o),
(295,649,o),
(506,734,c),
(497,760,l),
(398,730,o),
(249,664,o),
(169,578,cs),
(68,468,o),
(35,325,o),
(40,236,cs),
(48,88,o),
(164,-22,o),
(276,-16,cs)
);
}
);
width = 585;
}
);
unicode = 54;
},
{
glyphname = seven;
lastChange = "2024-12-05 22:04:19 +0000";
layers = (
{
backgroundImage = {
imagePath = "Images/seven-Le display.tif";
locked = 1;
pos = (200,-75);
scale = (1.3776,1.3776);
};
layerId = "A2AECE16-8029-4E4A-A860-6BA7A78BC664";
shapes = (
{
closed = 1;
nodes = (
(242,-15,l),
(287,194,o),
(398,511,o),
(577,702,c),
(549,756,l),
(485,746,o),
(405,740,o),
(310,740,c),
(239,740,o),
(169,740,o),
(98,756,c),
(40,703,l),
(80,657,o),
(89,584,o),
(87,499,c),
(140,548,l),
(160,672,l),
(450,672,l),
(365,543,o),
(303,418,o),
(235,284,cs),
(192,199,o),
(154,118,o),
(106,30,c)
);
}
);
width = 617;
}
);
unicode = 55;
},
{
glyphname = eight;
lastChange = "2024-12-05 22:04:19 +0000";
layers = (
{
backgroundImage = {
angle = 2;
imagePath = "Images/eight-Le display.tif";
locked = 1;
pos = (263,-70);
scale = (1.4529,1.4529);
};
layerId = "A2AECE16-8029-4E4A-A860-6BA7A78BC664";
shapes = (
{
closed = 1;
nodes = (
(256,474,o),
(197,528,o),
(185,567,cs),
(167,630,o),
(213,680,o),
(284,690,cs),
(341,690,o),
(377,670,o),
(384,635,cs),
(397,571,o),
(374,516,o),
(298,452,c)
);
},
{
closed = 1;
nodes = (
(298,325,o),
(352,280,o),
(382,231,cs),
(426,162,o),
(361,51,o),
(285,51,cs),
(216,51,o),
(177,89,o),
(160,131,cs),
(133,198,o),
(161,281,o),
(261,356,c)
);
},
{
closed = 1;
nodes = (
(213,756,o),
(159,727,o),
(84,618,c),
(75,579,o),
(78,545,o),
(95,514,c),
(124,464,o),
(160,426,o),
(200,397,c),
(134,342,o),
(40,269,o),
(40,179,cs),
(40,42,o),
(167,-15,o),
(239,-15,cs),
(360,-15,o),
(499,100,o),
(499,169,c),
(511,281,o),
(468,345,o),
(342,425,c),
(383,471,o),
(479,546,o),
(479,608,cs),
(479,684,o),
(373,756,o),
(296,756,c)
);
}
);
width = 541;
}
);
unicode = 56;
},
{
glyphname = nine;
lastChange = "2024-12-05 22:04:19 +0000";
layers = (
{
backgroundImage = {
imagePath = "Images/nine-Le display.tif";
pos = (-349,-125);
scale = (1.4412,1.4412);
};
guides = (
{
pos = (92,673);
}
);
layerId = "A2AECE16-8029-4E4A-A860-6BA7A78BC664";
shapes = (
{
closed = 1;
nodes = (
(329,358,o),
(279,349,o),
(261,349,cs),
(233,349,o),
(131,414,o),
(131,553,cs),
(131,626,o),
(204,684,o),
(261,684,cs),
(359,684,o),
(400,571,o),
(400,404,c)
);
},
{
closed = 1;
nodes = (
(221,756,o),
(78,669,o),
(50,588,cs),
(42,565,o),
(39,494,o),
(45,463,cs),
(67,337,o),
(151,251,o),
(269,262,c),
(294,262,o),
(334,284,o),
(400,326,c),
(392,241,o),
(367,166,o),
(316,111,cs),
(274,65,o),
(149,17,o),
(53,14,c),
(40,-19,l),
(205,-19,o),
(362,51,o),
(406,107,cs),
(470,189,o),
(512,298,o),
(512,412,cs),
(512,537,o),
(475,756,o),
(255,756,cs)
);
}
);
width = 552;
}
);
unicode = 57;
},
{
glyphname = one.osf;
lastChange = "2024-12-05 22:04:53 +0000";
layers = (
{
layerId = "A2AECE16-8029-4E4A-A860-6BA7A78BC664";
shapes = (
{
closed = 1;
nodes = (
(126,35,l),
(226,35,l),
(226,475,l),
(126,447,l)
);
},
{
pos = (-300,0);
ref = _dblBotSerif;
},
{
pos = (-300,503);
ref = _dblBotSerif;
scale = (1,-1);
}
);
width = 358;
}
);
},
{
glyphname = two.osf;
lastChange = "2024-12-12 20:14:57 +0000";
layers = (
{
layerId = "A2AECE16-8029-4E4A-A860-6BA7A78BC664";
shapes = (
{
closed = 1;
nodes = (
(168,329,l),
(125,310,l),
(112,417,l),
(270,500,o),
(347,513,o),
(367,513,cs),
(440,513,o),
(487,461,o),
(487,425,cs),
(487,285,o),
(255,161,o),
(170,81,c),
(225,87,o),
(313,89,o),
(400,85,c),
(425,100,o),
(449,151,o),
(474,202,c),
(520,172,l),
(500,128,o),
(484,37,o),
(471,-16,c),
(420,-1,o),
(327,0,o),
(281,0,cs),
(210,0,o),
(147,2,o),
(87,-16,c),
(40,36,l),
(172,147,ls),
(266,226,o),
(420,349,o),
(390,404,cs),
(363,456,o),
(311,472,o),
(173,398,c)
);
}
);
width = 560;
}
);
},
{
glyphname = three.osf;
lastChange = "2024-12-12 20:16:24 +0000";
layers = (
{
layerId = "A2AECE16-8029-4E4A-A860-6BA7A78BC664";
shapes = (
{
closed = 1;
nodes = (
(143,314,l),
(98,271,l),
(96,406,l),
(260,481,o),
(279,512,o),
(319,512,cs),
(359,512,o),
(428,462,o),
(428,424,c),
(433,345,o),
(402,266,o),
(286,203,c),
(330,212,o),
(344,213,o),
(348,213,cs),
(401,213,o),
(452,162,o),
(452,111,cs),
(452,14,o),
(425,-29,o),
(285,-137,cs),
(202,-201,o),
(123,-264,o),
(56,-311,c),
(40,-304,l),
(85,-199,l),
(154,-168,o),
(188,-145,o),
(260,-92,cs),
(308,-57,o),
(352,5,o),
(352,29,cs),
(352,106,o),
(319,168,o),
(270,168,cs),
(250,168,o),
(228,156,o),
(209,144,c),
(210,191,l),
(276,223,o),
(328,304,o),
(328,365,cs),
(328,413,o),
(300,432,o),
(262,432,c),
(239,430,o),
(183,401,o),
(143,376,c)
);
}
);
width = 492;
}
);
},
{
glyphname = four.osf;
lastChange = "2024-12-12 20:55:58 +0000";
layers = (
{
layerId = "A2AECE16-8029-4E4A-A860-6BA7A78BC664";
shapes = (
{
closed = 1;
nodes = (
(498,522,l),
(526,489,l),
(458,401,o),
(465,267,o),
(465,128,cs),
(465,8,o),
(477,-148,o),
(505,-228,c),
(455,-250,o),
(413,-284,o),
(380,-336,c),
(368,-314,l),
(389,-179,o),
(390,14,o),
(390,71,cs),
(390,415,l),
(391,459,l)
);
},
{
closed = 1;
nodes = (
(330,271,o),
(237,130,o),
(176,55,c),
(296,71,o),
(360,70,o),
(444,73,cs),
(518,81,o),
(561,89,o),
(594,116,c),
(634,58,l),
(600,34,o),
(575,6,o),
(562,-26,c),
(508,-13,o),
(402,-13,o),
(326,-13,cs),
(223,-13,o),
(142,-27,o),
(93,-54,c),
(40,7,l),
(91,54,o),
(159,163,o),
(204,228,cs),
(251,296,o),
(295,360,o),
(333,464,c),
(495,518,l),
(425,448,l)
);
}
);
width = 674;
}
);
},
{
glyphname = five.osf;
lastChange = "2024-12-12 20:56:45 +0000";
layers = (
{
layerId = "A2AECE16-8029-4E4A-A860-6BA7A78BC664";
shapes = (
{
closed = 1;
nodes = (
(168,516,l),
(273,497,o),
(385,503,o),
(493,522,c),
(461,480,o),
(437,443,o),
(428,416,c),
(331,429,o),
(253,435,o),
(189,432,c),
(164,273,l),
(214,280,o),
(276,295,o),
(315,295,cs),
(441,295,o),
(467,187,o),
(467,129,cs),
(467,8,o),
(369,-96,o),
(276,-164,cs),
(218,-206,o),
(134,-265,o),
(56,-321,c),
(40,-314,l),
(95,-209,l),
(185,-157,o),
(244,-121,o),
(301,-73,cs),
(370,-15,o),
(368,63,o),
(355,131,cs),
(347,170,o),
(318,217,o),
(229,217,cs),
(212,217,o),
(156,212,o),
(119,191,c),
(101,227,l),
(116,245,o),
(137,301,o),
(137,372,cs),
(137,414,o),
(140,495,o),
(136,497,c)
);
}
);
width = 533;
}
);
},
{
glyphname = six.osf;
lastChange = "2024-12-05 22:05:26 +0000";
layers = (
{
layerId = "A2AECE16-8029-4E4A-A860-6BA7A78BC664";
shapes = (
{
closed = 1;
nodes = (
(129,304,l),
(292,413,l),
(364,443,o),
(407,397,o),
(428,352,cs),
(475,251,o),
(452,189,o),
(419,140,cs),
(400,112,o),
(342,50,o),
(297,43,c),
(218,5,l),
(252,-7,o),
(289,-14,o),
(319,-14,cs),
(349,-14,o),
(500,111,o),
(524,140,cs),
(552,173,o),
(575,253,o),
(575,284,cs),
(575,376,o),
(491,517,o),
(407,517,c),
(355,517,o),
(222,416,o),
(130,360,c)
);
},
{
closed = 1;
nodes = (
(349,63,o),
(322,65,o),
(294,75,cs),
(264,86,o),
(214,131,o),
(187,193,cs),
(176,219,o),
(146,289,o),
(146,370,cs),
(146,501,o),
(263,703,o),
(479,744,c),
(500,788,l),
(245,752,o),
(40,572,o),
(40,326,cs),
(40,242,o),
(46,169,o),
(94,107,cs),
(161,21,o),
(222,-7,o),
(271,-7,cs),
(315,-7,o),
(341,45,o),
(376,71,c)
);
}
);
width = 615;
}
);
},
{
glyphname = seven.osf;
lastChange = "2024-12-12 22:44:20 +0000";
layers = (
{
layerId = "A2AECE16-8029-4E4A-A860-6BA7A78BC664";
shapes = (
{
closed = 1;
nodes = (
(112,519,l),
(215,488,o),
(385,494,o),
(492,517,c),
(561,452,l),
(523,437,o),
(494,415,o),
(473,385,c),
(321,167,o),
(228,-26,o),
(190,-248,c),
(140,-269,o),
(121,-285,o),
(78,-322,c),
(40,-266,l),
(88,-162,o),
(174,1,o),
(205,56,cs),
(258,151,o),
(329,275,o),
(454,429,c),
(354,434,o),
(258,431,o),
(168,420,c),
(153,389,o),
(161,352,o),
(157,318,c),
(125,290,l),
(115,293,l),
(108,358,o),
(90,420,o),
(53,479,c)
);
}
);
width = 601;
}
);
},
{
glyphname = nine.osf;
lastChange = "2024-12-05 22:06:04 +0000";
layers = (
{
backgroundImage = {
imagePath = "Images/nine.osf-Le display.tif";
locked = 1;
pos = (184,-456);
scale = (1.6647,1.6647);
};
layerId = "A2AECE16-8029-4E4A-A860-6BA7A78BC664";
shapes = (
{
closed = 1;
nodes = (
(361,129,l),
(303,114,o),
(214,81,o),
(189,81,cs),
(118,81,o),
(56,148,o),
(56,211,cs),
(56,287,o),
(77,334,o),
(110,373,cs),
(221,503,o),
(296,515,o),
(342,515,cs),
(483,515,o),
(525,414,o),
(525,376,cs),
(542,151,o),
(463,-78,o),
(40,-313,c),
(46,-281,l),
(251,-149,o),
(427,38,o),
(427,259,cs),
(427,343,o),
(389,473,o),
(283,473,cs),
(209,473,o),
(147,328,o),
(175,256,cs),
(207,171,o),
(231,133,o),
(378,170,c)
);
}
);
width = 567;
}
);
},
{
glyphname = period;
lastChange = "2024-12-05 21:53:36 +0000";
layers = (
{
layerId = "A2AECE16-8029-4E4A-A860-6BA7A78BC664";
shapes = (
{
closed = 1;
nodes = (
(118,-71,o),
(164,-60,o),
(211,-58,c),
(209,-27,o),
(209,18,o),
(211,49,c),
(164,47,o),
(118,33,o),
(71,31,c),
(72,0,o),
(72,-43,o),
(71,-74,c)
);
}
);
width = 282;
}
);
unicode = 46;
},
{
glyphname = comma;
lastChange = "2024-12-05 21:53:36 +0000";
layers = (
{
layerId = "A2AECE16-8029-4E4A-A860-6BA7A78BC664";
shapes = (
{
closed = 1;
nodes = (
(211,-64,o),
(174,-100,o),
(120,-168,c),
(138,-203,l),
(167,-172,o),
(252,-96,o),
(255,-39,cs),
(257,-11,o),
(207,46,o),
(119,46,c),
(105,13,o),
(86,-15,o),
(61,-41,c)
);
}
);
width = 326;
}
);
metricWidth = tt;
unicode = 44;
},
{
glyphname = semicolon;
lastChange = "2024-12-05 21:53:36 +0000";
layers = (
{
layerId = "A2AECE16-8029-4E4A-A860-6BA7A78BC664";
shapes = (
{
closed = 1;
nodes = (
(170,279,o),
(216,290,o),
(263,292,c),
(261,323,o),
(261,368,o),
(263,399,c),
(216,397,o),
(170,383,o),
(123,381,c),
(124,350,o),
(124,307,o),
(123,276,c)
);
},
{
closed = 1;
nodes = (
(221,-14,o),
(184,-50,o),
(130,-118,c),
(148,-153,l),
(177,-122,o),
(262,-46,o),
(265,11,cs),
(267,39,o),
(217,96,o),
(129,96,c),
(115,63,o),
(96,35,o),
(71,9,c)
);
}
);
width = 336;
}
);
unicode = 59;
},
{
glyphname = bar;
lastChange = "2024-11-07 22:41:51 +0000";
layers = (
{
layerId = "A2AECE16-8029-4E4A-A860-6BA7A78BC664";
shapes = (
{
closed = 1;
nodes = (
(6,705,l),
(62,705,l),
(62,-201,l),
(15,-201,l),
(15,705,l)
);
}
);
width = 566;
}
);
metricWidth = v;
unicode = 124;
},
{
glyphname = dotaccentcomb;
lastChange = "2024-11-07 19:34:08 +0000";
layers = (
{
background = {
shapes = (
{
closed = 0;
nodes = (
(77,682,l),
(177,731,l)
);
}
);
};
layerId = "A2AECE16-8029-4E4A-A860-6BA7A78BC664";
shapes = (
{
closed = 1;
nodes = (
(208,632,l),
(164,727,l),
(49,658,l),
(90,572,l)
);
}
);
width = 252;
},
{
associatedMasterId = "A2AECE16-8029-4E4A-A860-6BA7A78BC664";
background = {
shapes = (
{
closed = 0;
nodes = (
(77,682,l),
(177,731,l)
);
}
);
};
layerId = "90B6A74D-1F7A-4A3C-A064-EF87F4BE19B9";
name = "Nov 1, 24 at 15:59";
shapes = (
{
closed = 1;
nodes = (
(208,642,l),
(199,677,o),
(186,704,o),
(164,737,c),
(49,668,l),
(66,642,o),
(79,614,o),
(90,582,c)
);
}
);
width = 252;
}
);
unicode = 775;
},
{
export = 0;
glyphname = _corner.leftSerif;
lastChange = "2024-11-14 21:23:12 +0000";
layers = (
{
anchors = (
{
name = left;
pos = (74,26);
},
{
name = origin;
pos = (74,0);
},
{
name = right;
pos = (81,0);
}
);
background = {
shapes = (
{
closed = 0;
nodes = (
(76,132,l),
(76,110,o),
(76,89,o),
(66,67,c),
(43,51,o),
(11,39,o),
(-20,29,c),
(-10,-8,l),
(23,0,o),
(56,0,o),
(89,0,c)
);
}
);
};
layerId = "A2AECE16-8029-4E4A-A860-6BA7A78BC664";
shapes = (
{
closed = 0;
nodes = (
(76,121,l),
(76,81,o),
(72,66,o),
(66,56,c),
(47,43,o),
(21,36,o),
(-1,29,c),
(-10,-16,l),
(18,-10,o),
(59,0,o),
(87,0,c)
);
}
);
width = 87;
}
);
},
{
export = 0;
glyphname = _corner.rightSerif;
lastChange = "2024-11-14 21:23:04 +0000";
layers = (
{
anchors = (
{
name = left;
pos = (13,79);
},
{
name = origin;
pos = (13,0);
},
{
name = right;
}
);
background = {
hints = (
{
name = _corner.rightSerif;
options = 1;
origin = (0,2);
scale = (-1,1);
type = Corner;
},
{
name = _corner.leftSerif;
origin = (0,5);
type = Corner;
}
);
shapes = (
{
closed = 1;
nodes = (
(-49,0,o),
(-24,0,o),
(13,0,c),
(13,224,l),
(-87,224,l),
(-87,0,l)
);
},
{
closed = 1;
nodes = (
(212,431,o),
(230,457,o),
(263,495,c),
(246,507,o),
(224,516,o),
(186,516,c),
(169,516,o),
(131,489,o),
(15,433,c),
(-18,433,l),
(-18,367,l),
(27,398,o),
(102,433,o),
(121,433,cs),
(135,433,o),
(173,412,o),
(193,393,c)
);
}
);
};
layerId = "A2AECE16-8029-4E4A-A860-6BA7A78BC664";
shapes = (
{
closed = 0;
nodes = (
(13,122,l),
(13,100,o),
(13,79,o),
(23,57,c),
(46,41,o),
(78,29,o),
(109,19,c),
(99,-16,l),
(66,-8,o),
(33,0,o),
(0,0,c)
);
}
);
width = 109;
},
{
anchors = (
{
name = left;
pos = (13,79);
},
{
name = origin;
pos = (13,0);
},
{
name = right;
}
);
associatedMasterId = "A2AECE16-8029-4E4A-A860-6BA7A78BC664";
layerId = "DEB8BB4A-5176-457A-A1BB-608A040EC8EA";
name = "Nov 1, 24 at 15:51";
shapes = (
{
closed = 0;
nodes = (
(13,122,l),
(13,74,o),
(13,65,o),
(17,57,c),
(43,46,o),
(73,35,o),
(104,25,c),
(99,-3,l),
(64,0,o),
(35,0,o),
(0,0,c)
);
}
);
width = 104;
}
);
},
{
glyphname = expStem;
lastChange = "2024-11-07 19:34:35 +0000";
layers = (
{
layerId = "A2AECE16-8029-4E4A-A860-6BA7A78BC664";
shapes = (
{
closed = 1;
nodes = (
(186,146,l),
(186,516,l),
(24,479,l),
(24,454,l),
(105,454,l),
(105,146,l)
);
}
);
width = 600;
}
);
},
{
export = 0;
glyphname = _dblBotSerif;
lastChange = "2024-11-14 18:47:03 +0000";
layers = (
{
layerId = "A2AECE16-8029-4E4A-A860-6BA7A78BC664";
shapes = (
{
closed = 1;
nodes = (
(426,132,l),
(426,92,o),
(419,77,o),
(414,67,c),
(399,49,o),
(375,35,o),
(350,29,c),
(340,-16,l),
(435,5,o),
(527,4,o),
(610,-16,c),
(618,19,l),
(580,29,o),
(549,47,o),
(535,67,c),
(527,89,o),
(526,110,o),
(526,132,c)
);
}
);
width = 640;
}
);
},
{
export = 0;
glyphname = _expLongStem;
lastChange = "2024-11-07 21:04:18 +0000";
layers = (
{
layerId = "A2AECE16-8029-4E4A-A860-6BA7A78BC664";
shapes = (
{
closed = 1;
nodes = (
(196,326,l),
(196,507,l),
(96,507,l),
(96,326,l)
);
},
{
pos = (0,315);
ref = _expStem;
}
);
width = 600;
},
{
associatedMasterId = "A2AECE16-8029-4E4A-A860-6BA7A78BC664";
layerId = "17E8A418-DD83-4F2E-9211-FCC63577FD9D";
name = "Nov 1, 24 at 15:54";
shapes = (
{
closed = 1;
nodes = (
(196,216,l),
(196,763,l),
(196,806,o),
(193,827,o),
(182,846,c),
(131,819,o),
(81,795,o),
(30,774,c),
(35,749,l),
(55,744,o),
(76,736,o),
(93,728,c),
(98,710,o),
(96,693,o),
(96,677,c),
(96,216,l)
);
}
);
width = 600;
}
);
},
{
export = 0;
glyphname = _expQuatO;
lastChange = "2024-11-07 19:34:46 +0000";
layers = (
{
layerId = "A2AECE16-8029-4E4A-A860-6BA7A78BC664";
shapes = (
{
closed = 1;
nodes = (
(428,361,l),
(428,361,o),
(427,362,o),
(427,362,cs),
(369,437,o),
(271,462,o),
(196,428,c),
(166,456,l),
(217,496,o),
(280,514,o),
(341,514,cs),
(409,514,o),
(474,484,o),
(512,432,cs),
(513,431,o),
(514,429,o),
(515,428,c)
);
}
);
width = 600;
}
);
},
{
export = 0;
glyphname = _expStem;
lastChange = "2024-11-07 20:39:51 +0000";
layers = (
{
guides = (
{
pos = (20,433);
}
);
layerId = "A2AECE16-8029-4E4A-A860-6BA7A78BC664";
shapes = (
{
closed = 1;
nodes = (
(196,146,l),
(196,343,l),
(196,461,o),
(187,488,o),
(182,516,c),
(141,484,o),
(91,459,o),
(30,441,c),
(35,415,l),
(55,412,o),
(76,407,o),
(91,400,c),
(96,381,o),
(96,364,o),
(96,347,c),
(96,146,l)
);
}
);
width = 607;
},
{
associatedMasterId = "A2AECE16-8029-4E4A-A860-6BA7A78BC664";
guides = (
{
pos = (20,433);
}
);
layerId = "2671AF6C-CC5B-4E2F-96E3-39BC71712DA3";
name = "Nov 1, 24 at 15:52";
shapes = (
{
closed = 1;
nodes = (
(196,146,l),
(196,433,l),
(196,476,o),
(193,497,o),
(182,516,c),
(131,486,o),
(81,463,o),
(30,444,c),
(35,419,l),
(55,414,o),
(76,406,o),
(93,398,c),
(98,380,o),
(96,363,o),
(96,347,c),
(96,146,l)
);
}
);
width = 607;
}
);
},
{
export = 0;
glyphname = _leftTopSerif;
lastChange = "2024-11-28 18:16:09 +0000";
layers = (
{
layerId = "A2AECE16-8029-4E4A-A860-6BA7A78BC664";
shapes = (
{
closed = 1;
nodes = (
(199,452,o),
(218,471,o),
(270,481,c),
(260,516,l),
(169,495,o),
(101,497,o),
(0,516,c),
(9,470,l),
(38,469,o),
(80,447,o),
(92,429,c),
(194,405,l)
);
}
);
width = 566;
}
);
},
{
export = 0;
glyphname = _numSerif;
lastChange = "2024-11-21 22:37:37 +0000";
layers = (
{
layerId = "A2AECE16-8029-4E4A-A860-6BA7A78BC664";
shapes = (
{
closed = 1;
nodes = (
(91,-7,o),
(185,0,o),
(240,0,cs),
(298,0,o),
(352,-5,o),
(396,-16,c),
(404,19,l),
(371,27,o),
(334,32,o),
(311,56,c),
(305,74,o),
(302,134,o),
(302,178,c),
(202,171,l),
(201,131,o),
(195,69,o),
(187,53,c),
(169,35,o),
(96,24,o),
(69,19,c),
(52,-16,l)
);
}
);
width = 444;
}
);
},
{
export = 0;
glyphname = _rightTopSerif;
lastChange = "2024-11-28 18:16:21 +0000";
layers = (
{
layerId = "A2AECE16-8029-4E4A-A860-6BA7A78BC664";
shapes = (
{
closed = 1;
nodes = (
(472,440,o),
(540,470,o),
(583,481,c),
(573,518,l),
(502,495,o),
(444,495,o),
(343,516,c),
(352,470,l),
(390,467,o),
(430,445,o),
(438,429,c),
(459,381,l)
);
}
);
width = 566;
}
);
},
{
export = 0;
glyphname = _shoulder;
lastChange = "2024-11-14 18:46:58 +0000";
layers = (
{
layerId = "A2AECE16-8029-4E4A-A860-6BA7A78BC664";
shapes = (
{
closed = 1;
nodes = (
(246,410,o),
(308,433,o),
(326,433,cs),
(374,433,o),
(424,400,o),
(424,354,c),
(424,30,l),
(524,30,l),
(524,409,ls),
(524,458,o),
(467,516,o),
(385,516,cs),
(366,516,o),
(308,469,o),
(209,433,c),
(158,433,l),
(158,366,l)
);
},
{
pos = (-2,0);
ref = _dblBotSerif;
}
);
width = 640;
}
);
},
{
export = 0;
glyphname = _serif.lowOutro;
lastChange = "2024-11-14 20:25:21 +0000";
layers = (
{
layerId = "A2AECE16-8029-4E4A-A860-6BA7A78BC664";
shapes = (
{
closed = 1;
nodes = (
(490,-7,o),
(547,1,o),
(605,0,c),
(610,38,l),
(577,45,o),
(546,55,o),
(526,70,c),
(519,88,o),
(519,107,o),
(519,125,c),
(519,356,l),
(419,356,l),
(419,149,l),
(419,42,o),
(428,11,o),
(432,-31,c)
);
}
